<svg width="24" height="24" viewBox="0 0 24 24" fill="none" xmlns="http://www.w3.org/2000/svg">
<path fill-rule="evenodd" clip-rule="evenodd" d="M21 4C19.89 3.65 18.67 3.5 17.5 3.5C15.55 3.5 13.45 3.9 12 5C10.55 3.9 8.45 3.5 6.5 3.5C4.55 3.5 2.45 3.9 1 5V19.65C1 19.9 1.25 20.15 1.5 20.15C1.55 20.15 1.5875 20.1375 1.625 20.125C1.6625 20.1125 1.7 20.1 1.75 20.1C3.1 19.45 5.05 19 6.5 19C8.45 19 10.55 19.4 12 20.5C13.35 19.65 15.8 19 17.5 19C19.15 19 20.85 19.3 22.25 20.05C22.35 20.1 22.4 20.1 22.5 20.1C22.75 20.1 23 19.85 23 19.6V5C22.4 4.55 21.75 4.25 21 4ZM21 17.5C19.9 17.15 18.7 17 17.5 17C15.8 17 13.35 17.65 12 18.5C10.65 17.65 8.2 17 6.5 17C5.3 17 4.1 17.15 3 17.5V6C4.1 5.65 5.3 5.5 6.5 5.5C8.2 5.5 10.65 6.15 12 7C13.35 6.15 15.8 5.5 17.5 5.5C18.7 5.5 19.9 5.65 21 6V17.5Z" fill="#666666"/>
<path d="M11 6H13V19H11V6Z" fill="#666666"/>
<path d="M14.0078 9.88263V8.27709C14.8175 8.08084 16.9687 7.62 20.0078 8.08086V9.60017C16.7106 9.14825 14.0078 9.88263 14.0078 9.88263Z" fill="#666666"/>
<path d="M14.0078 12.4609V10.8554C14.8175 10.6591 16.9687 10.1983 20.0078 10.6592V12.1785C16.7106 11.7266 14.0078 12.4609 14.0078 12.4609Z" fill="#666666"/>
<path d="M14.0078 15.0389V13.4334C14.8175 13.2371 16.9687 12.7763 20.0078 13.2372V14.7565C16.7106 14.3046 14.0078 15.0389 14.0078 15.0389Z" fill="#666666"/>
</svg>
