<svg width="24" height="25" viewBox="0 0 24 25" fill="none" xmlns="http://www.w3.org/2000/svg">
<path d="M4.65663 12.6983C4.65663 13.2506 4.20891 13.6983 3.65663 13.6983H2.00073C1.44845 13.6983 1.00073 13.2506 1.00073 12.6983C1.00073 12.146 1.44845 11.6983 2.00073 11.6983H3.65663C4.20891 11.6983 4.65663 12.146 4.65663 12.6983Z" fill="#666666"/>
<path d="M23.0004 12.6983C23.0004 13.2506 22.5527 13.6983 22.0004 13.6983H20.3445C19.7922 13.6983 19.3445 13.2506 19.3445 12.6983C19.3445 12.146 19.7922 11.6983 20.3445 11.6983H22.0004C22.5527 11.6983 23.0004 12.146 23.0004 12.6983Z" fill="#666666"/>
<path d="M12.0009 20.0422C12.5532 20.0422 13.0009 20.4899 13.0009 21.0422V22.6981C13.0009 23.2504 12.5532 23.6981 12.0009 23.6981C11.4486 23.6981 11.0009 23.2504 11.0009 22.6981V21.0422C11.0009 20.4899 11.4486 20.0422 12.0009 20.0422Z" fill="#666666"/>
<path d="M12.0009 1.69806C12.5532 1.69806 13.0009 2.14577 13.0009 2.69806V4.35395C13.0009 4.90624 12.5532 5.35395 12.0009 5.35395C11.4486 5.35395 11.0009 4.90624 11.0009 4.35395V2.69806C11.0009 2.14578 11.4486 1.69806 12.0009 1.69806Z" fill="#666666"/>
<path d="M6.86897 17.8914C7.25942 18.2818 7.25942 18.9149 6.86897 19.3053L5.69781 20.4765C5.30736 20.8669 4.67432 20.8669 4.28387 20.4765C3.89341 20.086 3.89341 19.453 4.28387 19.0625L5.45503 17.8914C5.84548 17.5009 6.47852 17.5009 6.86897 17.8914Z" fill="#666666"/>
<path d="M19.8396 4.92015C20.2301 5.3106 20.2301 5.94365 19.8396 6.3341L18.6685 7.50526C18.278 7.89571 17.645 7.89571 17.2545 7.50526C16.8641 7.11481 16.8641 6.48176 17.2545 6.09131L18.4257 4.92015C18.8162 4.5297 19.4492 4.5297 19.8396 4.92015Z" fill="#666666"/>
<path d="M6.74709 7.50501C6.35658 7.89551 5.72345 7.89551 5.33295 7.50501L4.16198 6.33404C3.77148 5.94354 3.77148 5.31041 4.16198 4.9199C4.55248 4.5294 5.18562 4.5294 5.57612 4.9199L6.74709 6.09087C7.13759 6.48137 7.13759 7.11451 6.74709 7.50501Z" fill="#666666"/>
<path d="M19.7178 20.4762C19.3273 20.8667 18.6941 20.8667 18.3036 20.4762L17.1327 19.3053C16.7422 18.9148 16.7422 18.2816 17.1327 17.8911C17.5232 17.5006 18.1563 17.5006 18.5468 17.8911L19.7178 19.0621C20.1083 19.4526 20.1083 20.0857 19.7178 20.4762Z" fill="#666666"/>
<path fill-rule="evenodd" clip-rule="evenodd" d="M12.088 16.8493C14.3906 16.8493 16.2573 14.9826 16.2573 12.6799C16.2573 10.3772 14.3906 8.51056 12.088 8.51056C9.78529 8.51056 7.91861 10.3772 7.91861 12.6799C7.91861 14.9826 9.78529 16.8493 12.088 16.8493ZM12.088 18.8493C15.4952 18.8493 18.2573 16.0871 18.2573 12.6799C18.2573 9.27267 15.4952 6.51056 12.088 6.51056C8.68073 6.51056 5.91861 9.27267 5.91861 12.6799C5.91861 16.0871 8.68073 18.8493 12.088 18.8493Z" fill="#666666"/>
</svg>
