<svg width="24" height="24" viewBox="0 0 24 24" fill="none" xmlns="http://www.w3.org/2000/svg">
<path fill-rule="evenodd" clip-rule="evenodd" d="M19 1H5C3.9 1 3 2.1 3 3.44444V20.5556C3 21.9 3.9 23 5 23H19C20.1 23 21 21.9 21 20.5556V3.44444C21 2.1 20.1 1 19 1ZM19 21H5V3H19V21ZM7 5H17V10H7V5ZM16 9H8V6H16V9ZM10 11H7V13H10V11ZM10.5 11H13.5V13H10.5V11ZM17 11H14V13H17V11ZM7 14H10V16H7V14ZM13.5 14H10.5V16H13.5V14ZM14 14H17V16H14V14ZM10 17H7V19H10V17ZM10.5 17H13.5V19H10.5V17ZM17 17H14V19H17V17Z" fill="#666666"/>
</svg>
