<svg width="24" height="24" viewBox="0 0 24 24" fill="none" xmlns="http://www.w3.org/2000/svg">
<g id="calendar-time">
<g id="Vector">
<path fill-rule="evenodd" clip-rule="evenodd" d="M21 14.4174V6C21 4.9 20.1 4 19 4H18V2H16V4H8V2H6V4H5C3.89 4 3.01 4.9 3.01 6L3 20C3 21.1 3.89 22 5 22H14.9987C14.5624 21.4185 14.2498 20.7388 14.0999 20H5V10H19V14C19.7112 14.0007 20.3876 14.1496 21 14.4174ZM19 8H5V6H19V8Z" fill="#666666"/>
<path d="M15.9975 15H15V15.9983C15.2838 15.6204 15.6199 15.284 15.9975 15Z" fill="#666666"/>
<path d="M9 14V12H7V14H9Z" fill="#666666"/>
<path d="M15 12V14H17V12H15Z" fill="#666666"/>
<path d="M13 14H11V12H13V14Z" fill="#666666"/>
<path d="M9 15V17H7V15H9Z" fill="#666666"/>
<path d="M11 17H13V15H11V17Z" fill="#666666"/>
<path fill-rule="evenodd" clip-rule="evenodd" d="M18.995 14C16.235 14 14 16.24 14 19C14 21.76 16.235 24 18.995 24C21.76 24 24 21.76 24 19C24 16.24 21.76 14 18.995 14ZM19 22.5C17.0662 22.5 15.5 20.9338 15.5 19C15.5 17.0662 17.0662 15.5 19 15.5C20.9338 15.5 22.5 17.0662 22.5 19C22.5 20.9338 20.9338 22.5 19 22.5ZM18.4998 16.5H19.5001V18.5H21.5001L21.4998 19.5H18.4998V16.5Z" fill="#666666"/>
</g>
</g>
</svg>
