<svg width="24" height="24" viewBox="0 0 24 24" fill="none" xmlns="http://www.w3.org/2000/svg">
<path fill-rule="evenodd" clip-rule="evenodd" d="M14.7702 6.0011L9.21209 6.00111L8.43431 7.16247C8.06304 7.71685 7.43977 8.04957 6.77255 8.04957L4.01172 8.04957V18.0011L20.0126 18.0011V8.04957H17.2793C16.6397 8.04957 16.0387 7.7437 15.6623 7.22662L14.7702 6.0011ZM9.21208 4.00111L14.7702 4.0011C15.4098 4.0011 16.0108 4.30697 16.3872 4.82405L17.2793 6.04957L20.0126 6.04957C21.1172 6.04957 22.0126 6.945 22.0126 8.04957V18.0011C22.0126 19.1057 21.1172 20.0011 20.0126 20.0011H4.01172C2.90715 20.0011 2.01172 19.1057 2.01172 18.0011V8.04957C2.01172 6.945 2.90715 6.04957 4.01172 6.04957H6.77255L7.55033 4.88821C7.9216 4.33384 8.54487 4.00112 9.21208 4.00111Z" fill="#666666"/>
<path d="M17.002 9.0011H19.002V10.0011H17.002V9.0011Z" fill="#666666"/>
<path d="M4.00464 5.25796C4.00464 5.14751 4.09418 5.05796 4.20464 5.05796H5.80464C5.9151 5.05796 6.00464 5.14751 6.00464 5.25796V6.05796H4.00464V5.25796Z" fill="#666666"/>
<path fill-rule="evenodd" clip-rule="evenodd" d="M12.0122 14.8832C13.6138 14.8832 14.9122 13.5849 14.9122 11.9832C14.9122 10.3816 13.6138 9.08323 12.0122 9.08323C10.4105 9.08323 9.11216 10.3816 9.11216 11.9832C9.11216 13.5849 10.4105 14.8832 12.0122 14.8832ZM12.0122 16.2832C14.387 16.2832 16.3122 14.3581 16.3122 11.9832C16.3122 9.6084 14.387 7.68323 12.0122 7.68323C9.63733 7.68323 7.71216 9.6084 7.71216 11.9832C7.71216 14.3581 9.63733 16.2832 12.0122 16.2832Z" fill="#666666"/>
</svg>
