<svg width="25" height="25" viewBox="0 0 25 25" fill="none" xmlns="http://www.w3.org/2000/svg">
<path fill-rule="evenodd" clip-rule="evenodd" d="M2.11011 7.34316C2.11011 6.79087 2.55782 6.34316 3.11011 6.34316H6.33953C6.67774 6.34316 6.99303 6.17221 7.17756 5.88878L8.11013 4.45644C8.29466 4.17301 8.60995 4.00207 8.94816 4.00206L15.2226 4.00204C15.5471 4.00204 15.8514 4.1595 16.0388 4.42438L17.0979 5.92082C17.2853 6.1857 17.5896 6.34316 17.9141 6.34316H21.1101C21.6624 6.34316 22.1101 6.79087 22.1101 7.34316V19.002C22.1101 19.5543 21.6624 20.002 21.1101 20.002H3.11011C2.55782 20.002 2.11011 19.5543 2.11011 19.002V7.34316ZM16.1136 13.0015C16.1136 15.1995 14.3318 16.9814 12.1337 16.9814C9.93567 16.9814 8.15381 15.1995 8.15381 13.0015C8.15381 10.8034 9.93567 9.02155 12.1337 9.02155C14.3318 9.02155 16.1136 10.8034 16.1136 13.0015ZM20.1101 9.00146H18.1101V10.0015H20.1101V9.00146Z" fill="#666666"/>
<path d="M3.88379 5.60723C3.88379 5.49677 3.97333 5.40723 4.08379 5.40723H5.68379C5.79425 5.40723 5.88379 5.49677 5.88379 5.60723V6.40723H3.88379V5.60723Z" fill="#666666"/>
</svg>
