<svg width="25" height="25" viewBox="0 0 25 25" fill="none" xmlns="http://www.w3.org/2000/svg">
<path fill-rule="evenodd" clip-rule="evenodd" d="M14.4244 10.0463C14.4244 11.3166 13.3911 12.3499 12.1208 12.3499C10.8505 12.3499 9.81717 11.3166 9.81717 10.0463C9.81717 8.77601 10.8505 7.74267 12.1208 7.74267C13.3911 7.74267 14.4244 8.77601 14.4244 10.0463ZM7.51318 15.8051C7.51318 14.2715 10.5803 13.5014 12.1204 13.5014C13.6606 13.5014 16.7277 14.2715 16.7277 15.8051V16.9569H7.51318V15.8051ZM16.5902 13.5412C17.3537 14.0941 17.8802 14.8312 17.8802 15.8053V16.9571H20.5129V15.8053C20.5129 14.4758 18.2093 13.7189 16.5902 13.5412ZM18.209 10.0463C18.209 11.3166 17.1756 12.3499 15.9053 12.3499C15.5499 12.3499 15.2208 12.2644 14.9181 12.1196C15.3327 11.5338 15.5763 10.8164 15.5763 10.0463C15.5763 9.27622 15.3327 8.55881 14.9181 7.97303C15.2208 7.82823 15.5499 7.74267 15.9053 7.74267C17.1756 7.74267 18.209 8.77601 18.209 10.0463Z" fill="#666666"/>
<path fill-rule="evenodd" clip-rule="evenodd" d="M5.51364 4.29077H21.5136V20.2927H5.51364V18.2927H3.51364V20.2927C3.51364 21.3973 4.40907 22.2927 5.51364 22.2927H21.5136C22.6182 22.2927 23.5136 21.3973 23.5136 20.2927V4.29077C23.5136 3.1862 22.6182 2.29077 21.5136 2.29077H5.51364C4.40907 2.29077 3.51364 3.1862 3.51364 4.29077V6.29272H5.51364V4.29077Z" fill="#666666"/>
<path d="M5.51315 10.3075V14.3075H3.51315L3.51315 10.3075H5.51315Z" fill="#666666"/>
<path d="M1.51367 8.32251C1.51367 7.77023 1.96139 7.32251 2.51367 7.32251H6.51367V9.32251H2.51367C1.96139 9.32251 1.51367 8.8748 1.51367 8.32251Z" fill="#666666"/>
<path d="M1.51367 16.2927C1.51367 15.7404 1.96139 15.2927 2.51367 15.2927H6.51367V17.2927H2.51367C1.96139 17.2927 1.51367 16.845 1.51367 16.2927Z" fill="#666666"/>
</svg>
