<svg width="24" height="24" viewBox="0 0 24 24" fill="none" xmlns="http://www.w3.org/2000/svg">
<path d="M17.2753 6.7981L17.2753 6.79813L18.2131 7.7571L18.2134 7.75738C18.5954 8.14866 18.5957 8.78149 18.2133 9.17282C18.2133 9.17283 18.2133 9.17284 18.2132 9.17285L10.3688 17.2013C10.3687 17.2014 10.3686 17.2014 10.3686 17.2015L10.3684 17.2017L10.0107 16.8523C9.81877 17.0492 9.50366 17.0492 9.31102 16.8523L17.2753 6.7981ZM17.2753 6.7981C16.8869 6.40098 16.2486 6.40008 15.86 6.79872L9.66088 13.1429L8.1395 11.5868C8.13948 11.5867 8.13945 11.5867 8.13943 11.5867C7.75108 11.1894 7.11268 11.1887 6.72422 11.5871C6.72419 11.5872 6.72415 11.5872 6.72412 11.5872L5.78676 12.5471L17.2753 6.7981ZM9.66922 13.1514L9.66902 13.1512L9.66922 13.1514ZM2.5 6C2.5 4.067 4.067 2.5 6 2.5H18C19.933 2.5 21.5 4.067 21.5 6V18C21.5 19.933 19.933 21.5 18 21.5H6C4.067 21.5 2.5 19.933 2.5 18V6Z" fill="#666666" stroke="#666666"/>
</svg>
