<svg width="24" height="24" viewBox="0 0 24 24" fill="none" xmlns="http://www.w3.org/2000/svg">
<path fill-rule="evenodd" clip-rule="evenodd" d="M18 4H6C4.89543 4 4 4.89543 4 6V18C4 19.1046 4.89543 20 6 20H18C19.1046 20 20 19.1046 20 18V6C20 4.89543 19.1046 4 18 4ZM6 2C3.79086 2 2 3.79086 2 6V18C2 20.2091 3.79086 22 6 22H18C20.2091 22 22 20.2091 22 18V6C22 3.79086 20.2091 2 18 2H6Z" fill="#666666"/>
<path fill-rule="evenodd" clip-rule="evenodd" d="M16.9178 7.14772C16.7252 6.95076 16.4101 6.95076 16.2181 7.14772L10.0107 13.5003C9.81811 13.6974 9.50299 13.6974 9.31102 13.5003L7.78191 11.9362C7.58943 11.7393 7.27415 11.7393 7.08218 11.9362L6.14436 12.8966C5.95188 13.0935 5.95188 13.4161 6.14436 13.6126L9.31102 16.8523C9.50366 17.0492 9.81877 17.0492 10.0107 16.8523L17.8556 8.82339C18.0481 8.62643 18.0481 8.30381 17.8556 8.10669L16.9178 7.14772Z" fill="#666666"/>
</svg>
