<svg width="24" height="24" viewBox="0 0 24 24" fill="none" xmlns="http://www.w3.org/2000/svg">
<path fill-rule="evenodd" clip-rule="evenodd" d="M18 4H6C4.89543 4 4 4.89543 4 6V18C4 19.1046 4.89543 20 6 20H18C19.1046 20 20 19.1046 20 18V6C20 4.89543 19.1046 4 18 4ZM6 2C3.79086 2 2 3.79086 2 6V18C2 20.2091 3.79086 22 6 22H18C20.2091 22 22 20.2091 22 18V6C22 3.79086 20.2091 2 18 2H6Z" fill="#666666"/>
<path d="M6 11.5C6 11.2239 6.22386 11 6.5 11H17.5C17.7761 11 18 11.2239 18 11.5V12.5C18 12.7761 17.7761 13 17.5 13H6.5C6.22386 13 6 12.7761 6 12.5V11.5Z" fill="#666666"/>
</svg>
