<svg width="24" height="24" viewBox="0 0 24 24" fill="none" xmlns="http://www.w3.org/2000/svg">
<path d="M18.3726 17.705H5.73234C5.56145 17.705 5.39083 17.6914 5.2221 17.6643C1.64753 17.09 1.60003 11.9633 5.16335 11.3228L5.77582 11.2127C5.77582 6.9004 10.9392 4.68531 14.0641 7.65705L15.1927 8.7304L15.6686 8.54195C17.4479 7.83732 19.2549 9.4973 18.7035 11.3299L19.6519 11.7577C22.2497 12.9295 22.0359 16.6871 19.3219 17.5566C19.0151 17.655 18.6948 17.705 18.3726 17.705Z" fill="#666666"/>
<path fill-rule="evenodd" clip-rule="evenodd" d="M5.29094 10.7919C5.61479 6.31983 11.0685 4.1183 14.4086 7.29473L15.3057 8.14787L15.4845 8.07708C17.511 7.27453 19.5671 8.98951 19.2779 11.0404L19.8575 11.3019C22.8728 12.662 22.6246 17.0235 19.4745 18.0328C19.1183 18.1469 18.7466 18.205 18.3726 18.205H5.73234C5.53488 18.205 5.33774 18.1893 5.14279 18.1579C1.01255 17.4944 0.957662 11.5707 5.07491 10.8307L5.29094 10.7919ZM13.7195 8.01937C10.913 5.35045 6.27582 7.33983 6.27582 11.2127V11.6309L5.2518 11.8149C2.2424 12.3558 2.28251 16.6856 5.30142 17.1706C5.44392 17.1935 5.58802 17.205 5.73234 17.205H18.3726C18.643 17.205 18.9118 17.163 19.1694 17.0805C21.4472 16.3507 21.6267 13.1969 19.4463 12.2134L18.0984 11.6054L18.2247 11.1858C18.6557 9.7535 17.2433 8.4561 15.8527 9.00682L15.0797 9.31293L13.7195 8.01937Z" fill="#666666"/>
</svg>
