<svg width="24" height="24" viewBox="0 0 24 24" fill="none" xmlns="http://www.w3.org/2000/svg">
<path fill-rule="evenodd" clip-rule="evenodd" d="M17.5005 18.7391H6.59003C6.34616 18.7391 6.10268 18.7197 5.8619 18.681C1.04026 17.9063 0.715616 11.3275 4.98876 9.8372C6.03688 5.53174 11.5565 3.63356 15.0314 6.93818L15.2225 7.11991C17.3578 6.71969 19.3449 8.24485 19.6496 10.2859C23.0876 12.1273 22.6907 17.3015 18.8733 18.5246C18.4296 18.6668 17.9664 18.7391 17.5005 18.7391ZM17.7861 11.4227C18.2621 9.84091 16.7023 8.40809 15.1665 9.01629L14.7558 9.17896L13.7816 8.25248C11.0843 5.68742 6.62756 7.59939 6.62756 11.3216L6.09892 11.4166C3.02323 11.9694 3.06421 16.3945 6.14962 16.8903C6.29526 16.9137 6.44252 16.9254 6.59003 16.9254H17.5005C17.7786 16.9254 18.055 16.8822 18.3199 16.7974C20.6625 16.0468 20.8471 12.8034 18.6047 11.7919L17.7861 11.4227Z" fill="#666666"/>
</svg>
