<svg width="24" height="25" viewBox="0 0 24 25" fill="none" xmlns="http://www.w3.org/2000/svg">
<path fill-rule="evenodd" clip-rule="evenodd" d="M2.5 5.53613V18.5361H21.5V5.53613H2.5ZM2 4.03613C1.44772 4.03613 1 4.48385 1 5.03613V19.0361C1 19.5884 1.44772 20.0361 2 20.0361H22C22.5523 20.0361 23 19.5884 23 19.0361V5.03613C23 4.48385 22.5523 4.03613 22 4.03613H2Z" fill="#666666"/>
<path fill-rule="evenodd" clip-rule="evenodd" d="M11.9999 6.58691C10.7441 6.58692 9.72599 7.60499 9.72599 8.86085C9.72599 10.1167 10.7441 11.1348 11.9999 11.1348V6.58691Z" fill="#666666"/>
<path fill-rule="evenodd" clip-rule="evenodd" d="M11.7 12.9101L9.97595 14.3931L7.38507 11.3477L4.00215 17.0411H11.7V12.9101Z" fill="#666666"/>
<path fill-rule="evenodd" clip-rule="evenodd" d="M12.3 12.9083L14.0268 14.3868L16.6173 11.3756L19.9997 17.0689H12.3V16.2689H18.5939L16.4979 12.741L14.1127 15.5135L12.3 13.9615V12.9083Z" fill="#666666"/>
<path fill-rule="evenodd" clip-rule="evenodd" d="M11.9999 6.58691C13.2558 6.58692 14.2742 7.60499 14.2742 8.86085C14.2742 10.1167 13.2558 11.1348 11.9999 11.1348L12.0003 10.3348C12.8143 10.3348 13.4742 9.67488 13.4742 8.86085C13.4742 8.04682 12.8143 7.38692 12.0003 7.38691L11.9999 6.58691Z" fill="#666666"/>
<path d="M11.7 4.99112H12.3V19.1811H11.7V4.99112Z" fill="#666666"/>
</svg>
