<svg width="24" height="25" viewBox="0 0 24 25" fill="none" xmlns="http://www.w3.org/2000/svg">
<path fill-rule="evenodd" clip-rule="evenodd" d="M12 20.848C16.6392 20.848 20.4 17.0872 20.4 12.448C20.4 7.80881 16.6392 4.048 12 4.048C7.36081 4.048 3.6 7.80881 3.6 12.448C3.6 17.0872 7.36081 20.848 12 20.848ZM12 22.448C17.5228 22.448 22 17.9708 22 12.448C22 6.92515 17.5228 2.448 12 2.448C6.47715 2.448 2 6.92515 2 12.448C2 17.9708 6.47715 22.448 12 22.448Z" fill="#666666"/>
<path d="M12 19.4699C8.13401 19.4699 5 16.3359 5 12.4699C5 8.60392 8.13401 5.46992 12 5.46992V19.4699Z" fill="#666666"/>
</svg>
