<svg width="24" height="24" viewBox="0 0 24 24" fill="none" xmlns="http://www.w3.org/2000/svg">
<path fill-rule="evenodd" clip-rule="evenodd" d="M5.16763 6.0004H13.9612L16.3676 8.41618V20.4004C16.3676 21.2804 15.6476 22.0004 14.7676 22.0004H5.15963C4.27963 22.0004 3.56763 21.2804 3.56763 20.4004L3.57563 7.6004C3.57563 6.7204 4.28763 6.0004 5.16763 6.0004ZM5.16768 7.60039V20.4004H14.7677V10.004H12.3765V7.60039L5.16768 7.60039Z" fill="#666666"/>
<path fill-rule="evenodd" clip-rule="evenodd" d="M9.23268 1.99963H18.0263L20.4327 4.41542V16.3996C20.4327 17.2796 19.7127 17.9996 18.8327 17.9996H17.5938L17.5937 16.3996H18.8328V6.00327H16.4416V3.59963L9.23278 3.59963V4.85966H7.63989L7.64068 3.59963C7.64068 2.71963 8.35268 1.99963 9.23268 1.99963Z" fill="#666666"/>
</svg>
