<svg width="24" height="24" viewBox="0 0 24 24" fill="none" xmlns="http://www.w3.org/2000/svg">
<path fill-rule="evenodd" clip-rule="evenodd" d="M12 20C16.4183 20 20 16.4183 20 12C20 7.58172 16.4183 4 12 4C7.58172 4 4 7.58172 4 12C4 16.4183 7.58172 20 12 20ZM12 22C17.5228 22 22 17.5228 22 12C22 6.47715 17.5228 2 12 2C6.47715 2 2 6.47715 2 12C2 17.5228 6.47715 22 12 22Z" fill="#666666"/>
<path fill-rule="evenodd" clip-rule="evenodd" d="M16.1207 8.38522L14.8105 9.94734C14.1745 9.07035 13.1415 8.49999 11.9753 8.49999C10.0423 8.49999 8.47534 10.067 8.47534 12C8.47534 13.933 10.0423 15.5 11.9753 15.5C13.1415 15.5 14.1745 14.9296 14.8105 14.0526C14.974 14.216 15.1777 14.4123 15.4092 14.6352C15.663 14.8797 15.9501 15.1563 16.2537 15.4566C15.2454 16.703 13.7034 17.5 11.9753 17.5C8.93778 17.5 6.47534 15.0376 6.47534 12C6.47534 8.96243 8.93778 6.5 11.9753 6.5C13.6292 6.5 15.1125 7.22994 16.1207 8.38522Z" fill="#666666"/>
</svg>
