<svg width="24" height="24" viewBox="0 0 24 24" fill="none" xmlns="http://www.w3.org/2000/svg">
<path fill-rule="evenodd" clip-rule="evenodd" d="M4.42738 18.1096C4.42738 19.1541 5.27414 20.0008 6.31866 20.0008C7.36318 20.0008 8.20994 19.1541 8.20994 18.1096C8.20994 17.065 7.36318 16.2183 6.31866 16.2183C5.27414 16.2183 4.42738 17.065 4.42738 18.1096ZM6.31866 22C4.17003 22 2.42822 20.2582 2.42822 18.1096C2.42822 15.9609 4.17003 14.2191 6.31866 14.2191C8.46729 14.2191 10.2091 15.9609 10.2091 18.1096C10.2091 20.2582 8.46729 22 6.31866 22Z" fill="#666666"/>
<path fill-rule="evenodd" clip-rule="evenodd" d="M15.79 18.1096C15.79 19.1541 16.6368 20.0008 17.6813 20.0008C18.7258 20.0008 19.5726 19.1541 19.5726 18.1096C19.5726 17.065 18.7258 16.2183 17.6813 16.2183C16.6368 16.2183 15.79 17.065 15.79 18.1096ZM17.6813 22C15.5326 22 13.7908 20.2582 13.7908 18.1096C13.7908 15.9609 15.5326 14.2191 17.6813 14.2191C19.8299 14.2191 21.5717 15.9609 21.5717 18.1096C21.5717 20.2582 19.8299 22 17.6813 22Z" fill="#666666"/>
<path fill-rule="evenodd" clip-rule="evenodd" d="M14.4404 16.8859L16.3771 14.9493L13.8729 12.4451L11.9362 14.3817L14.4404 16.8859ZM9.09215 11.5377L11.0288 9.601L3.4278 2V5.87331L9.09215 11.5377Z" fill="#666666"/>
<path fill-rule="evenodd" clip-rule="evenodd" d="M9.43283 16.8859L7.49617 14.9493L20.4455 2V5.87331L9.43283 16.8859ZM12.6008 12.4144C12.6008 12.0832 12.3323 11.8147 12.0011 11.8147C11.6698 11.8147 11.4013 12.0832 11.4013 12.4144C11.4013 12.7457 11.6698 13.0142 12.0011 13.0142C12.3323 13.0142 12.6008 12.7457 12.6008 12.4144Z" fill="#666666"/>
</svg>
