<svg width="24" height="25" viewBox="0 0 24 25" fill="none" xmlns="http://www.w3.org/2000/svg">
<path fill-rule="evenodd" clip-rule="evenodd" d="M19.3999 6.31517H4.59985L5.85775 20.9391C5.94671 21.9734 6.81226 22.7677 7.85039 22.7677H16.1677C17.2068 22.7677 18.0728 21.972 18.1606 20.9366L19.3999 6.31517ZM17.2343 8.31518H6.76509L7.853 20.7702H16.1799L17.2343 8.31518Z" fill="#666666"/>
<path fill-rule="evenodd" clip-rule="evenodd" d="M10.0143 2.68736C8.90973 2.68736 8.0143 3.5828 8.0143 4.68736V8.30149H16.0137V4.68736C16.0137 3.58279 15.1182 2.68736 14.0137 2.68736H10.0143ZM14.0291 4.68737H10.0054V6.31518H14.0291V4.68737Z" fill="#666666"/>
<path d="M2.96704 7.31517C2.96704 6.76289 3.41476 6.31517 3.96704 6.31517H20.033C20.5853 6.31517 21.033 6.76289 21.033 7.31517C21.033 7.86746 20.5853 8.31517 20.033 8.31517H3.96704C3.41476 8.31517 2.96704 7.86746 2.96704 7.31517Z" fill="#666666"/>
<path d="M9.13745 11.8136C9.13745 11.3166 9.5404 10.9136 10.0375 10.9136C10.5345 10.9136 10.9375 11.3166 10.9375 11.8136V17.2136C10.9375 17.7107 10.5345 18.1136 10.0375 18.1136C9.5404 18.1136 9.13745 17.7107 9.13745 17.2136V11.8136Z" fill="#666666"/>
<path d="M12.9441 11.8136C12.9441 11.3166 13.347 10.9136 13.8441 10.9136C14.3411 10.9136 14.7441 11.3166 14.7441 11.8136V17.2136C14.7441 17.7107 14.3411 18.1136 13.8441 18.1136C13.347 18.1136 12.9441 17.7107 12.9441 17.2136V11.8136Z" fill="#666666"/>
</svg>
