<svg width="24" height="24" viewBox="0 0 24 24" fill="none" xmlns="http://www.w3.org/2000/svg">
<path d="M2 15.75H9.5V22H2V15.75Z" fill="#666666"/>
<path d="M15.7501 14.5V12L14.9501 12.8C14.3367 12.2182 13.8647 11.5035 13.5705 10.7109C13.2762 9.91822 13.1675 9.06869 13.2526 8.2275L15.7514 8.25V2H8.2514V8.25H10.7514C10.8326 9.08734 10.7219 9.93216 10.4278 10.7203C10.1336 11.5085 9.66378 12.2193 9.0539 12.7988L8.2514 12.0013V14.5013H10.7514L9.93889 13.6888C10.6674 12.9893 11.2305 12.1361 11.5871 11.1912C11.9437 10.2464 12.0848 9.23384 12.0001 8.2275C11.9876 8.41375 11.9801 8.60125 11.9801 8.79C11.9801 10.7138 12.7789 12.45 14.0614 13.6863L13.2514 14.5013H15.7514L15.7501 14.5Z" fill="#666666"/>
<path d="M14.5 15.75H22V22H14.5V15.75Z" fill="#666666"/>
</svg>
