<svg width="25" height="24" viewBox="0 0 25 24" fill="none" xmlns="http://www.w3.org/2000/svg">
<path d="M13.8354 15.8311H16.2515L12.2584 19.8457L8.25146 15.8311H10.6523L10.6524 11.8347H13.8354L13.8354 15.8311Z" fill="#666666"/>
<path fill-rule="evenodd" clip-rule="evenodd" d="M16.0608 17.6324H17.8841C18.35 17.6324 18.8131 17.5601 19.2568 17.4179C23.0742 16.1948 23.4712 11.0206 20.0332 9.17921C19.7284 7.13816 17.7413 5.613 15.6061 6.01322L15.415 5.83149C11.9401 2.52687 6.42042 4.42505 5.37231 8.73051C1.09916 10.2208 1.4238 16.7996 6.24545 17.5743C6.48623 17.613 6.72971 17.6324 6.97357 17.6324H8.44888L6.61546 15.7955C6.58798 15.792 6.56054 15.788 6.53316 15.7836C3.44776 15.2878 3.40677 10.8627 6.48246 10.3099L7.0111 10.2149C7.0111 6.4927 11.4678 4.58073 14.1651 7.1458L15.1393 8.07227L15.5501 7.9096C17.0859 7.3014 18.6456 8.73422 18.1696 10.316L18.9883 10.6853C21.2306 11.6967 21.046 14.9401 18.7034 15.6907C18.4386 15.7755 18.1622 15.8187 17.8841 15.8187H17.8648L16.0608 17.6324Z" fill="#666666"/>
</svg>
