<svg width="24" height="25" viewBox="0 0 24 25" fill="none" xmlns="http://www.w3.org/2000/svg">
<path fill-rule="evenodd" clip-rule="evenodd" d="M11.8273 4.23419C11.5015 4.05091 11.101 4.05391 10.7751 4.24447C10.4483 4.4356 10.2478 4.78558 10.2478 5.16229V6.59862C10.2478 6.60906 10.2475 6.61944 10.2471 6.62976V8.13505C10.2471 8.52165 9.93369 8.83505 9.54709 8.83505C9.16049 8.83505 8.84709 8.52165 8.84709 8.13505V6.27487C8.84709 5.89899 8.64693 5.5533 8.32271 5.3668L8.29217 5.34924C7.97899 5.16908 7.59043 5.17366 7.27869 5.36375C6.98023 5.54574 6.79847 5.86984 6.79847 6.21756V11.506C6.79847 11.8926 6.48506 12.206 6.09847 12.206C5.71187 12.206 5.39847 11.8926 5.39847 11.506V11.1112L4.88187 11.7815C4.70543 12.0104 4.60996 12.2908 4.60996 12.5786V14.8637C4.60996 15.4623 4.84332 16.0358 5.25983 16.4629L7.70621 18.9714C8.61357 19.9018 9.76555 20.5571 11.0305 20.8623L11.5485 20.9873C14.6635 21.7387 17.8592 20.0418 18.9879 17.0333C19.2556 16.3198 19.3927 15.5644 19.3927 14.8035L19.3928 7.50374C19.3929 7.13548 19.1976 6.7965 18.8808 6.61247L18.8506 6.59497C18.8506 6.59497 18.8506 6.59497 18.8506 6.59497C18.5407 6.41495 18.1548 6.41949 17.8463 6.60943C17.5547 6.78897 17.3774 7.10666 17.3773 7.44727L17.3773 7.86168C17.3773 7.93279 17.3667 8.00142 17.347 8.06608V8.06816C17.347 8.45476 17.0336 8.76816 16.647 8.76816C16.2604 8.76816 15.947 8.45476 15.947 8.06816V6.38328C15.947 5.98951 15.7353 5.62794 15.3938 5.43578L15.3626 5.41822C15.0419 5.23783 14.6473 5.24247 14.3281 5.43283C14.0135 5.62046 13.8212 5.95953 13.8212 6.32394V6.69224C13.8212 6.73941 13.8165 6.78549 13.8076 6.83004V8.06783C13.8076 8.45443 13.4942 8.76783 13.1076 8.76783C12.721 8.76783 12.4076 8.45443 12.4076 8.06783V5.20218C12.4076 4.80519 12.1942 4.44065 11.8499 4.24691L11.8273 4.23419C11.8273 4.23419 11.8273 4.23419 11.8273 4.23419ZM13.611 4.23042C14.3595 3.78405 15.2895 3.77078 16.049 4.19807L16.0802 4.21563C16.563 4.48723 16.9319 4.90621 17.1439 5.39815C17.8846 4.95773 18.8069 4.95056 19.5538 5.38435L19.5839 5.40185C19.5839 5.40186 19.5839 5.40185 19.5839 5.40185C20.333 5.83693 20.7929 6.63753 20.7929 7.50378C20.7929 7.5038 20.7929 7.50376 20.7929 7.50378L20.7927 14.8035C20.7927 15.7326 20.6253 16.6545 20.2987 17.525C18.9224 21.1937 15.0247 23.266 11.2202 22.3482L10.7021 22.2232C9.1812 21.8563 7.79554 21.0682 6.70393 19.9489L4.25756 17.4404C3.58555 16.7513 3.20996 15.8268 3.20996 14.8637V12.5786C3.20996 11.9811 3.40815 11.4002 3.77301 10.9268L5.39847 8.81792V6.21756C5.39847 5.38072 5.83534 4.60412 6.54982 4.16844C7.29651 3.71313 8.23209 3.69958 8.99024 4.13569L9.02077 4.15325C9.03234 4.1599 9.04384 4.16664 9.05527 4.17347C9.26118 3.70442 9.61178 3.30299 10.0684 3.03596C10.822 2.59523 11.7529 2.58597 12.5138 3.01404L12.5364 3.02676C12.5364 3.02676 12.5364 3.02676 12.5364 3.02676C13.0263 3.30244 13.3995 3.72941 13.611 4.23042Z" fill="#666666"/>
</svg>
