<svg width="24" height="25" viewBox="0 0 24 25" fill="none" xmlns="http://www.w3.org/2000/svg">
<g id="face-adjudication">
<g id="Vector">
<path fill-rule="evenodd" clip-rule="evenodd" d="M9.11238 2.80819C7.73793 2.81059 6.2943 3.13168 4.92664 4.06151C3.44332 5.06997 2.77109 6.24667 2.47065 7.35571C2.16454 8.4857 2.23605 9.57066 2.2977 10.4214C2.34166 11.028 2.44547 11.4837 2.55369 11.7928C2.56213 11.8169 2.57054 11.84 2.57888 11.862L2.58384 11.861V10.1031C2.58384 9.84294 2.61439 9.57485 2.74444 9.32492C2.87847 9.06734 3.0818 8.89791 3.29368 8.76654C3.49503 8.64169 3.75048 8.52412 4.02837 8.39687L4.08743 8.36984C4.36432 8.24314 4.69288 8.09279 5.09179 7.89179C5.3347 7.7694 5.5169 7.51667 5.6614 7.10016C5.76873 6.79078 5.83135 6.47133 5.89687 6.13701C5.92245 6.00647 5.9485 5.8736 5.97781 5.73825C6.01034 5.58802 6.09381 5.43767 6.23823 5.33119C6.37966 5.22692 6.54667 5.18944 6.70085 5.20518C7.01725 5.23749 7.25985 5.48237 7.30773 5.79023C7.40039 6.38599 7.64638 7.11088 8.14157 7.68337C8.62008 8.23658 9.35993 8.68316 10.5345 8.71105C10.5919 8.71082 10.6898 8.70752 10.8174 8.70322C11.2108 8.68996 11.8872 8.66716 12.5329 8.6955C12.9769 8.71499 13.4482 8.75873 13.8696 8.85137C14.272 8.93983 14.7167 9.09065 15.0271 9.38381C15.4713 9.80336 15.6295 10.3922 15.6809 10.8882C15.7113 11.1823 15.7077 11.4764 15.6882 11.7424C15.7901 11.4349 15.8854 10.9959 15.9271 10.4214C15.9887 9.57066 16.0602 8.4857 15.7541 7.35571C15.4537 6.24667 14.7815 5.06997 13.2981 4.06151C11.9305 3.13168 10.4868 2.81059 9.11238 2.80819ZM9.09685 1.65702C7.54102 1.66184 5.86688 2.03021 4.27939 3.10948C2.55705 4.28044 1.72809 5.69405 1.35949 7.0547C0.996586 8.39434 1.08819 9.65849 1.1495 10.5046C1.19963 11.1964 1.32037 11.7539 1.46712 12.1732C1.5057 12.2834 1.54676 12.386 1.58983 12.4803C1.56771 12.5071 1.5464 12.5342 1.52588 12.5616C1.22347 12.9655 1.07428 13.451 1.0168 13.8093L1.01408 13.8262L1.01238 13.8433C0.977069 14.1971 1.00112 14.8035 1.30249 15.3631C1.58479 15.8873 2.08647 16.322 2.86882 16.4768C3.1951 17.4012 3.851 18.6843 4.84416 19.7516C5.89956 20.8859 7.38347 21.8225 9.28276 21.7359C10.111 21.6981 10.8497 21.4902 11.5017 21.1737C11.3543 20.817 11.2359 20.4454 11.1494 20.0616C10.5852 20.3604 9.94694 20.5532 9.23035 20.5859C7.77767 20.6521 6.59857 19.9471 5.68695 18.9674C5.10843 18.3457 4.65688 17.6319 4.33632 16.9875L4.34028 16.9854C4.34028 16.9854 4.33415 16.9722 4.32405 16.9384C4.31295 16.9013 4.30127 16.8536 4.28803 16.7921C4.28072 16.7581 4.27155 16.7123 4.26128 16.661C4.24187 16.5639 4.21856 16.4474 4.19668 16.3555C4.16097 16.2055 4.10497 16.0045 4.00119 15.829C3.89174 15.6438 3.67749 15.4074 3.31824 15.3783C2.71306 15.3292 2.4518 15.0693 2.31605 14.8172C2.16269 14.5325 2.1379 14.1884 2.15635 13.9743C2.1964 13.7398 2.29368 13.4569 2.4474 13.2516C2.5909 13.0599 2.75595 12.9628 2.99098 12.977C3.35282 12.9987 3.73505 12.723 3.73505 12.2826V10.1031C3.73505 9.92275 3.75926 9.86861 3.76588 9.8559C3.76909 9.84961 3.78652 9.8155 3.90034 9.74493C4.02746 9.66611 4.21016 9.5798 4.50768 9.44355L4.56794 9.41598C4.84487 9.28927 5.19095 9.13092 5.60982 8.91987C6.19622 8.62439 6.51372 8.09796 6.70404 7.60088C6.85541 7.88861 7.04211 8.172 7.27089 8.43649C7.96425 9.23809 9.01358 9.82871 10.5156 9.86227H10.5284C10.6351 9.86227 10.7769 9.85742 10.9461 9.85163C11.3416 9.83811 11.8867 9.81946 12.4824 9.8456C12.895 9.86371 13.2925 9.90322 13.6224 9.97573C13.9713 10.0524 14.1603 10.1487 14.2366 10.2208C14.3881 10.3638 14.4962 10.6244 14.5358 11.0069C14.5742 11.3772 14.5391 11.7764 14.4903 12.0909C14.4682 12.2326 14.4897 12.3657 14.5418 12.4812C15.2589 12.0829 16.0542 11.8087 16.8991 11.6874C16.9796 11.3512 17.0425 10.9565 17.0753 10.5046C17.1366 9.65849 17.2282 8.39434 16.8653 7.0547C16.4967 5.69405 15.6677 4.28044 13.9454 3.10948C12.3579 2.03021 10.6837 1.66184 9.12791 1.65702L9.11238 1.65698L9.09685 1.65702ZM13.067 13.5799C13.0774 13.5189 13.0828 13.4564 13.0828 13.3928C13.0828 12.7468 12.5278 12.2231 11.8432 12.2231C11.1586 12.2231 10.6037 12.7468 10.6037 13.3928C10.6037 14.0387 11.1586 14.5624 11.8432 14.5624C11.9993 14.5624 12.1485 14.5352 12.2861 14.4855C12.5201 14.1614 12.7816 13.8584 13.067 13.5799ZM7.65501 13.3928C7.65501 14.0387 7.10004 14.5624 6.41545 14.5624C5.73087 14.5624 5.1759 14.0387 5.1759 13.3928C5.1759 12.7468 5.73087 12.2231 6.41545 12.2231C7.10004 12.2231 7.65501 12.7468 7.65501 13.3928Z" fill="#666666"/>
<path fill-rule="evenodd" clip-rule="evenodd" d="M18 12.6567C14.688 12.6567 12 15.3447 12 18.6567C12 21.9687 14.688 24.6567 18 24.6567C21.312 24.6567 24 21.9687 24 18.6567C24 15.3447 21.312 12.6567 18 12.6567ZM15.0287 21.3395C14.6508 21.3395 14.3445 21.6459 14.3445 22.0238C14.3445 22.0675 14.3486 22.1103 14.3564 22.1517H17.4916C17.4994 22.1103 17.5035 22.0675 17.5035 22.0238C17.5035 21.6459 17.1972 21.3395 16.8193 21.3395H15.0287ZM18.0327 14.392C17.8724 14.2317 17.8724 13.9719 18.0327 13.8116C18.1929 13.6513 18.4528 13.6513 18.613 13.8116L20.7895 15.988C20.9498 16.1483 20.9498 16.4082 20.7895 16.5684C20.6292 16.7287 20.3694 16.7287 20.2091 16.5684L18.0327 14.392ZM14.6018 17.2424C14.4416 17.4027 14.4416 17.6625 14.6018 17.8228L16.7783 19.9992C16.9386 20.1595 17.1984 20.1595 17.3587 19.9992C17.5189 19.839 17.5189 19.5791 17.3587 19.4188L15.1822 17.2424C15.022 17.0821 14.7621 17.0821 14.6018 17.2424ZM18.4789 18.2986L18.4887 18.3099L21.139 21.3131C21.3959 21.6008 21.8418 21.6134 22.1146 21.3407C22.3829 21.0723 22.3757 20.6351 22.0986 20.3757L19.102 17.7108C19.0959 17.705 19.0897 17.6995 19.0833 17.6942L19.8496 16.9279L17.6732 14.7515L15.5427 16.8819L17.7191 19.0584L18.4789 18.2986Z" fill="#666666"/>
</g>
</g>
</svg>
