<svg width="25" height="25" viewBox="0 0 25 25" fill="none" xmlns="http://www.w3.org/2000/svg">
<g id="fingerprint-adjudication">
<g id="Vector">
<path fill-rule="evenodd" clip-rule="evenodd" d="M14.576 3.8175C14.6388 3.85337 14.7105 3.87131 14.7822 3.87131C14.9436 3.87131 15.0961 3.78164 15.1768 3.62023C15.2934 3.40503 15.2127 3.13602 14.9885 3.01946C13.1592 2.07794 11.4914 1.65649 9.58147 1.65649C7.6536 1.65649 5.82436 2.12277 4.15653 3.02842C3.94133 3.14499 3.86062 3.42296 3.97719 3.63817C4.10273 3.85337 4.37174 3.93407 4.58694 3.8175C6.12027 2.97462 7.80604 2.55318 9.58147 2.55318C11.3659 2.55318 12.8544 2.92979 14.576 3.8175ZM1.69065 8.4982C1.77135 8.552 1.86102 8.5789 1.95069 8.5789C2.09416 8.5789 2.22866 8.51613 2.30039 8.3906C3.10741 7.26077 4.12963 6.36409 5.34912 5.73641C7.91364 4.40932 11.2045 4.40932 13.778 5.72744C14.9885 6.34616 16.0107 7.23387 16.8177 8.3637C16.9612 8.56993 17.2392 8.61477 17.4454 8.4713C17.6516 8.32783 17.6965 8.04089 17.553 7.84362C16.6653 6.59723 15.5355 5.61984 14.1904 4.92939C11.3659 3.47676 7.7612 3.48573 4.94561 4.93836C3.60059 5.62881 2.47076 6.61516 1.58305 7.87052C1.43958 8.07676 1.48441 8.35473 1.69065 8.4982ZM7.55497 19.4019C7.4384 19.4019 7.32183 19.3571 7.24113 19.2674C6.46101 18.4873 6.03957 17.9851 5.43879 16.9001C4.82008 15.7972 4.49727 14.4522 4.49727 13.0085C4.49727 10.3454 6.77485 8.17539 9.57251 8.17539C12.2428 8.17539 14.4393 10.1523 14.6337 12.6481C14.3479 12.8297 14.0764 13.0317 13.8212 13.2523C13.7767 13.1825 13.7511 13.099 13.7511 13.0085C13.7511 10.8385 11.877 9.07208 9.57251 9.07208C7.26803 9.07208 5.39396 10.8385 5.39396 13.0085C5.39396 14.2998 5.68089 15.4923 6.22787 16.4608C6.80175 17.4919 7.19629 17.9313 7.88674 18.6307C8.05711 18.8101 8.05711 19.088 7.88674 19.2674C7.7881 19.3571 7.67154 19.4019 7.55497 19.4019ZM12.8715 14.2549C12.5234 13.9387 12.3074 13.4968 12.3074 13.0085C12.3074 11.5559 11.07 10.3723 9.54561 10.3723C8.02124 10.3723 6.78382 11.5559 6.78382 13.0085C6.78382 14.784 7.47426 16.4428 8.72962 17.6892C9.57054 18.5147 10.3783 19.0216 11.4955 19.3983C11.4546 19.0947 11.4335 18.7849 11.4335 18.4701C11.4335 18.4536 11.4336 18.4371 11.4337 18.4206C10.6231 18.1017 10.0004 17.68 9.3573 17.0436C8.27231 15.9676 7.6805 14.5329 7.6805 12.9996C7.6805 12.0401 8.51442 11.26 9.54561 11.26C10.5768 11.26 11.4107 12.0401 11.4107 12.9996C11.4107 13.7965 11.7831 14.5125 12.3711 14.9964C12.522 14.7381 12.6893 14.4904 12.8715 14.2549ZM15.9494 11.9981C15.4373 9.0978 12.7582 6.88417 9.53664 6.88417C6.99005 6.88417 4.65867 8.30093 3.60955 10.4978C3.25985 11.2241 3.08051 12.076 3.08051 13.0085C3.08051 13.7079 3.14328 14.8109 3.68129 16.2456C3.77096 16.4787 3.65439 16.7387 3.42125 16.8194C3.18811 16.9091 2.92807 16.7836 2.84737 16.5594C2.408 15.3847 2.19279 14.219 2.19279 13.0085C2.19279 11.9325 2.39903 10.9551 2.80254 10.1033C3.99513 7.60151 6.64035 5.97852 9.53664 5.97852C13.1653 5.97852 16.191 8.46809 16.816 11.744C16.5194 11.81 16.2301 11.8952 15.9494 11.9981ZM11.7957 16.259C11.7657 16.2401 11.7361 16.2206 11.7066 16.2007C10.6127 15.4654 9.96705 14.2728 9.96705 13.0085C9.96705 12.7575 9.76978 12.5602 9.51871 12.5602C9.26763 12.5602 9.07036 12.7575 9.07036 13.0085C9.07036 14.5688 9.86841 16.0393 11.2045 16.945C11.3184 17.0231 11.4361 17.0957 11.5574 17.1624C11.6167 16.8535 11.6966 16.5518 11.7957 16.259Z" fill="#666666"/>
<path fill-rule="evenodd" clip-rule="evenodd" d="M18.4971 12.6515C15.1837 12.6515 12.4945 15.3407 12.4945 18.6541C12.4945 21.9676 15.1837 24.6567 18.4971 24.6567C21.8106 24.6567 24.4998 21.9676 24.4998 18.6541C24.4998 15.3407 21.8106 12.6515 18.4971 12.6515ZM15.5247 21.3378C15.1467 21.3378 14.8402 21.6443 14.8402 22.0224C14.8402 22.0661 14.8443 22.1089 14.8521 22.1504H17.9886C17.9965 22.1089 18.0006 22.0661 18.0006 22.0224C18.0006 21.6443 17.6941 21.3378 17.316 21.3378H15.5247ZM18.5315 14.3874C18.3711 14.2271 18.3711 13.9671 18.5315 13.8068C18.6918 13.6465 18.9518 13.6465 19.1121 13.8068L21.2895 15.9842C21.4498 16.1445 21.4498 16.4045 21.2895 16.5648C21.1292 16.7252 20.8692 16.7252 20.7089 16.5648L18.5315 14.3874ZM15.0992 17.2391C14.9388 17.3994 14.9388 17.6594 15.0992 17.8197L17.2766 19.9971C17.4369 20.1575 17.6969 20.1575 17.8572 19.9971C18.0175 19.8368 18.0175 19.5768 17.8572 19.4165L15.6798 17.2391C15.5195 17.0788 15.2595 17.0788 15.0992 17.2391ZM18.9779 18.2957L18.9877 18.3071L21.6392 21.3116C21.8962 21.5994 22.3423 21.612 22.6151 21.3391C22.8836 21.0707 22.8764 20.6332 22.5992 20.3738L19.6013 17.7076C19.5952 17.7019 19.589 17.6964 19.5826 17.6911L20.3492 16.9245L18.1718 14.7471L16.0404 16.8785L18.2178 19.0558L18.9779 18.2957Z" fill="#666666"/>
</g>
</g>
</svg>
