<svg width="24" height="24" viewBox="0 0 24 24" fill="none" xmlns="http://www.w3.org/2000/svg">
<path d="M19.5373 12.557C20.0609 10.6881 20.2344 8.26013 19.5513 6.41035C18.906 4.66382 17.4222 3.18814 15.7585 2.55014C13.9196 1.84527 11.6664 1.85656 9.77329 2.36177C7.97961 2.84006 6.71452 3.99283 5.86854 5.68288C5.4304 6.55874 5.19529 7.59085 5.35723 8.59087C5.48958 9.41118 5.53972 10.1864 5.09664 10.8982C4.77933 11.4095 4.2409 11.9459 4.06333 12.5475C3.70492 13.0544 4.96181 13.5024 5.21335 13.6916C5.7822 14.1968 4.98235 14.7437 5.01442 15.2689C5.03579 15.6317 5.61203 15.393 5.31034 15.7324C5.20183 15.8548 5.15169 15.9685 5.19443 16.09C5.21005 16.1352 5.38761 16.2966 5.42131 16.3487C5.55366 16.551 5.51091 16.9112 5.4731 17.1161C5.47228 17.6951 5.27745 18.2845 6.02305 18.5796C6.71355 18.853 7.41887 18.5405 8.1209 18.5701H8.12172H8.12254C8.44972 18.5839 8.70867 18.6447 8.975 18.86C9.31205 19.1291 9.61538 19.8808 9.72388 20.4459C9.77156 20.6925 9.83732 22.0006 10.0823 21.9997C10.8632 21.9963 11.6433 21.9928 12.4243 21.9885C14.1843 21.9806 15.945 21.972 17.706 21.9641C17.1831 20.6395 16.6768 18.7879 17.0911 17.353C17.5942 15.6065 19.0409 14.3279 19.5375 12.5571L19.5373 12.557Z" fill="#666666"/>
</svg>
