<svg width="24" height="24" viewBox="0 0 24 24" fill="none" xmlns="http://www.w3.org/2000/svg">
<path fill-rule="evenodd" clip-rule="evenodd" d="M15.252 5.63591C18.7668 6.67948 20.7701 10.3748 19.7266 13.8896C18.683 17.4043 14.9877 19.4077 11.4729 18.3641C10.4409 18.0577 9.54157 17.5241 8.81075 16.8349L7.44083 18.2873C8.39386 19.1862 9.56618 19.8807 10.9046 20.2781C15.4765 21.6355 20.2831 19.0297 21.6406 14.4578C22.998 9.88597 20.3922 5.07933 15.8203 3.7219C11.2484 2.36446 6.4418 4.97028 5.08436 9.54215C4.69237 10.8624 4.63082 12.205 4.85301 13.4786L6.8199 13.1355C6.64952 12.1589 6.69611 11.1285 6.99837 10.1104C8.04195 6.59565 11.7372 4.59233 15.252 5.63591Z" fill="#666666"/>
<path d="M5.83396 15.9684L9.64181 12.1183L2 12.1341L5.83396 15.9684Z" fill="#666666"/>
<path d="M14.2349 7.63839H12.4898V12.8723H17.7237L17.7242 11.1277H14.2349V7.63839Z" fill="#666666"/>
</svg>
