<svg width="24" height="25" viewBox="0 0 24 25" fill="none" xmlns="http://www.w3.org/2000/svg">
<path fill-rule="evenodd" clip-rule="evenodd" d="M20.0005 6.54297H4.00049V18.543H20.0005V6.54297ZM4.00049 4.54297C2.89592 4.54297 2.00049 5.4384 2.00049 6.54297V18.543C2.00049 19.6475 2.89592 20.543 4.00049 20.543H20.0005C21.1051 20.543 22.0005 19.6475 22.0005 18.543V6.54297C22.0005 5.4384 21.1051 4.54297 20.0005 4.54297H4.00049Z" fill="#666666"/>
<path d="M14.0005 15.8523C14.0005 15.4657 14.3139 15.1523 14.7005 15.1523H18.3005C18.6871 15.1523 19.0005 15.4657 19.0005 15.8523C19.0005 16.2389 18.6871 16.5523 18.3005 16.5523H14.7005C14.3139 16.5523 14.0005 16.2389 14.0005 15.8523Z" fill="#666666"/>
<path d="M14.0005 12.5523C14.0005 12.1657 14.3139 11.8523 14.7005 11.8523H18.3005C18.6871 11.8523 19.0005 12.1657 19.0005 12.5523C19.0005 12.9389 18.6871 13.2523 18.3005 13.2523H14.7005C14.3139 13.2523 14.0005 12.9389 14.0005 12.5523Z" fill="#666666"/>
<path d="M14.0005 9.25225C14.0005 8.86565 14.3139 8.55225 14.7005 8.55225H18.3005C18.6871 8.55225 19.0005 8.86565 19.0005 9.25225C19.0005 9.63885 18.6871 9.95225 18.3005 9.95225H14.7005C14.3139 9.95225 14.0005 9.63885 14.0005 9.25225Z" fill="#666666"/>
<path fill-rule="evenodd" clip-rule="evenodd" d="M11.0005 10.5522C11.0005 11.6572 10.1055 12.5522 9.00049 12.5522C7.89549 12.5522 7.00049 11.6572 7.00049 10.5522C7.00049 9.44725 7.89549 8.55225 9.00049 8.55225C10.1055 8.55225 11.0005 9.44725 11.0005 10.5522ZM5.00049 15.5522C5.00049 14.2222 7.66549 13.5522 9.00049 13.5522C10.3355 13.5522 13.0005 14.2222 13.0005 15.5522V16.5522H5.00049V15.5522Z" fill="#666666"/>
</svg>
