<svg width="24" height="25" viewBox="0 0 24 25" fill="none" xmlns="http://www.w3.org/2000/svg">
<path fill-rule="evenodd" clip-rule="evenodd" d="M2.99878 4.61963V20.6196H20.9988V4.61963H2.99878ZM1.99878 2.61963C1.44649 2.61963 0.998779 3.06734 0.998779 3.61963V21.6196C0.998779 22.1719 1.44649 22.6196 1.99878 22.6196H21.9988C22.5511 22.6196 22.9988 22.1719 22.9988 21.6196V3.61963C22.9988 3.06734 22.5511 2.61963 21.9988 2.61963H1.99878Z" fill="#666666"/>
<path d="M4.49868 7.51973C4.49868 7.0779 4.85685 6.71973 5.29868 6.71973H10.4987V8.31973H5.29868C4.85685 8.31973 4.49868 7.96155 4.49868 7.51973Z" fill="#666666"/>
<path d="M6.29897 10.9197C6.29897 10.4779 6.65715 10.1197 7.09897 10.1197H10.499V11.7197H7.09897C6.65715 11.7197 6.29897 11.3616 6.29897 10.9197Z" fill="#666666"/>
<path d="M4.09878 14.3197C4.09878 13.8779 4.45695 13.5197 4.89878 13.5197H10.4988V15.1197H4.89878C4.45695 15.1197 4.09878 14.7616 4.09878 14.3197Z" fill="#666666"/>
<path d="M5.09878 17.7197C5.09878 17.2779 5.45695 16.9197 5.89878 16.9197H10.4988V18.5197H5.89878C5.45695 18.5197 5.09878 18.1616 5.09878 17.7197Z" fill="#666666"/>
<path d="M19.4991 7.51963C19.4991 7.0778 19.1409 6.71963 18.6991 6.71963H13.4991V8.31963H18.6991C19.1409 8.31963 19.4991 7.96146 19.4991 7.51963Z" fill="#666666"/>
<path d="M17.6988 10.9195C17.6988 10.4777 17.3406 10.1195 16.8988 10.1195H13.4988V11.7195H16.8988C17.3406 11.7195 17.6988 11.3614 17.6988 10.9195Z" fill="#666666"/>
<path d="M19.899 14.3194C19.899 13.8776 19.5408 13.5194 19.099 13.5194H13.499V15.1194H19.099C19.5408 15.1194 19.899 14.7613 19.899 14.3194Z" fill="#666666"/>
<path d="M18.899 17.7198C18.899 17.278 18.5408 16.9198 18.099 16.9198H13.499V18.5198H18.099C18.5408 18.5198 18.899 18.1617 18.899 17.7198Z" fill="#666666"/>
<path d="M11.4989 3.87351H12.4989V21.2199H11.4989V3.87351Z" fill="#666666"/>
</svg>
