<svg width="25" height="24" viewBox="0 0 25 24" fill="none" xmlns="http://www.w3.org/2000/svg">
<path fill-rule="evenodd" clip-rule="evenodd" d="M20.7798 6.4H4.77979C4.44841 6.4 4.17979 6.66863 4.17979 7V17C4.17979 17.3314 4.44841 17.6 4.77979 17.6H20.7798C21.1112 17.6 21.3798 17.3314 21.3798 17V7C21.3798 6.66863 21.1112 6.4 20.7798 6.4ZM4.77979 5C3.67522 5 2.77979 5.89543 2.77979 7V17C2.77979 18.1046 3.67522 19 4.77979 19H20.7798C21.8844 19 22.7798 18.1046 22.7798 17V7C22.7798 5.89543 21.8844 5 20.7798 5H4.77979Z" fill="#666666"/>
<path d="M5.77979 7.82215H7.77979V9.82215H5.77979V7.82215Z" fill="#666666"/>
<path d="M8.77979 7.82215H10.7798V9.82215H8.77979V7.82215Z" fill="#666666"/>
<path d="M13.7798 7.82215H11.7798V9.82215H13.7798V7.82215Z" fill="#666666"/>
<path d="M14.7798 7.82215H16.7798V9.82215H14.7798V7.82215Z" fill="#666666"/>
<path d="M19.7798 7.82215H17.7798V9.82215H19.7798V7.82215Z" fill="#666666"/>
<path d="M5.77979 10.8315H7.77979V12.8315H5.77979V10.8315Z" fill="#666666"/>
<path d="M10.7798 10.8315H8.77979V12.8315H10.7798V10.8315Z" fill="#666666"/>
<path d="M11.7798 10.8315H13.7798V12.8315H11.7798V10.8315Z" fill="#666666"/>
<path d="M16.7798 14.1778H8.77979V16.1778H16.7798V14.1778Z" fill="#666666"/>
<path d="M14.7798 10.8315H16.7798V12.8315H14.7798V10.8315Z" fill="#666666"/>
<path d="M19.7798 10.8315H17.7798V12.8315H19.7798V10.8315Z" fill="#666666"/>
</svg>
