<svg width="24" height="24" viewBox="0 0 24 24" fill="none" xmlns="http://www.w3.org/2000/svg">
<path fill-rule="evenodd" clip-rule="evenodd" d="M4 5C2.89543 5 2 5.89543 2 7V17C2 18.1046 2.89543 19 4 19H20C21.1046 19 22 18.1046 22 17V7C22 5.89543 21.1046 5 20 5H4ZM5 7.99066H7V9.99066H5V7.99066ZM8 7.99066H10V9.99066H8V7.99066ZM11 7.99066H13V9.99066H11V7.99066ZM14 7.99066H16V9.99066H14V7.99066ZM17 7.99066H19V9.99066H17V7.99066ZM5 11H7V13H5V11ZM8 11H10V13H8V11ZM11 11H13V13H11V11ZM8 15H16V17H8V15ZM14 11H16V13H14V11ZM17 11H19V13H17V11Z" fill="#666666"/>
</svg>
