<svg width="24" height="25" viewBox="0 0 24 25" fill="none" xmlns="http://www.w3.org/2000/svg">
<path fill-rule="evenodd" clip-rule="evenodd" d="M15.8263 7.9375H4L4 17.9375H15.8263L19.5147 12.9375L15.8263 7.9375ZM4 5.9375C2.89543 5.9375 2 6.83293 2 7.9375V17.9375C2 19.0421 2.89543 19.9375 4 19.9375H16.3313C16.6488 19.9375 16.9475 19.7867 17.136 19.5311L21.1242 14.1248C21.6449 13.4189 21.6449 12.4561 21.1242 11.7502L17.136 6.34386C16.9475 6.08832 16.6488 5.9375 16.3313 5.9375H4Z" fill="#666666"/>
<path d="M16.9988 12.9375C16.9988 13.7659 16.3272 14.4375 15.4988 14.4375C14.6704 14.4375 13.9988 13.7659 13.9988 12.9375C13.9988 12.1091 14.6704 11.4375 15.4988 11.4375C16.3272 11.4375 16.9988 12.1091 16.9988 12.9375Z" fill="#666666"/>
</svg>
