<svg width="24" height="25" viewBox="0 0 24 25" fill="none" xmlns="http://www.w3.org/2000/svg">
<path fill-rule="evenodd" clip-rule="evenodd" d="M4.00391 5.9375C2.89934 5.9375 2.00391 6.83293 2.00391 7.9375V17.9375C2.00391 19.0421 2.89934 19.9375 4.00391 19.9375H15.2489C15.5141 19.9375 15.7685 19.8321 15.956 19.6446L21.4104 14.1902C22.2075 13.3931 22.1887 12.095 21.3688 11.3214L15.9521 6.21018C15.7665 6.03505 15.521 5.9375 15.2658 5.9375H4.00391ZM17.5757 14.2915C18.3235 14.2915 18.9297 13.6853 18.9297 12.9375C18.9297 12.1897 18.3235 11.5835 17.5757 11.5835C16.8279 11.5835 16.2217 12.1897 16.2217 12.9375C16.2217 13.6853 16.8279 14.2915 17.5757 14.2915Z" fill="#666666"/>
</svg>
