<svg width="24" height="25" viewBox="0 0 24 25" fill="none" xmlns="http://www.w3.org/2000/svg">
<path fill-rule="evenodd" clip-rule="evenodd" d="M14.5813 13.6968L14.5969 13.682C15.3184 12.9942 15.7644 12.0291 15.7644 10.9569C15.7644 8.87807 14.0791 7.19282 12.0002 7.19282C9.92138 7.19282 8.23613 8.87807 8.23613 10.9569C8.23613 12.0291 8.68208 12.9942 9.40359 13.682C9.93361 14.1873 10.334 14.9427 10.5962 15.6475C10.7527 16.0683 10.8867 16.5422 10.9734 17.0473H12.8778C13.0543 16.0431 13.4968 14.7814 14.5661 13.7121L14.5813 13.6968ZM15.8389 14.9848C16.9019 13.9715 17.5644 12.5416 17.5644 10.9569C17.5644 7.88396 15.0732 5.39282 12.0002 5.39282C8.92727 5.39282 6.43613 7.88396 6.43613 10.9569C6.43613 12.5416 7.09855 13.9715 8.16158 14.9848C8.65848 15.4585 9.28596 16.8547 9.27816 18.2765C9.2765 18.5793 9.50801 18.8473 9.8109 18.8473H14.0187C14.3241 18.8473 14.5654 18.5742 14.5678 18.2689C14.5739 17.4883 14.7534 16.0704 15.8389 14.9848Z" fill="#666666"/>
<path d="M12.0003 2.40405C12.2765 2.40405 12.5003 2.62791 12.5003 2.90405V4.30405C12.5003 4.5802 12.2765 4.80405 12.0003 4.80405C11.7242 4.80405 11.5003 4.5802 11.5003 4.30405V2.90405C11.5003 2.62791 11.7242 2.40405 12.0003 2.40405Z" fill="#666666"/>
<path d="M5.66978 11.4714C5.66978 11.7476 5.44592 11.9714 5.16978 11.9714H3.76978C3.49363 11.9714 3.26978 11.7476 3.26978 11.4714C3.26978 11.1953 3.49363 10.9714 3.76978 10.9714H5.16978C5.44592 10.9714 5.66978 11.1953 5.66978 11.4714Z" fill="#666666"/>
<path d="M20.7303 11.4714C20.7303 11.7476 20.5065 11.9714 20.2303 11.9714H18.8303C18.5542 11.9714 18.3303 11.7476 18.3303 11.4714C18.3303 11.1953 18.5542 10.9714 18.8303 10.9714H20.2303C20.5065 10.9714 20.7303 11.1953 20.7303 11.4714Z" fill="#666666"/>
<path d="M17.0675 6.87772C16.8723 6.68246 16.8723 6.36588 17.0675 6.17062L18.0575 5.18067C18.2527 4.9854 18.5693 4.9854 18.7646 5.18067C18.9598 5.37593 18.9598 5.69251 18.7646 5.88777L17.7746 6.87772C17.5794 7.07299 17.2628 7.07299 17.0675 6.87772Z" fill="#666666"/>
<path d="M6.78937 6.87772C6.98463 6.68246 6.98463 6.36588 6.78937 6.17062L5.79942 5.18067C5.60415 4.9854 5.28757 4.9854 5.09231 5.18067C4.89705 5.37593 4.89705 5.69251 5.09231 5.88777L6.08226 6.87772C6.27752 7.07299 6.5941 7.07299 6.78937 6.87772Z" fill="#666666"/>
<path d="M9.00034 20.6123C9.00034 20.1704 9.35851 19.8123 9.80034 19.8123H14.2003C14.6422 19.8123 15.0003 20.1704 15.0003 20.6123C15.0003 21.0541 14.6422 21.4123 14.2003 21.4123H9.80034C9.35851 21.4123 9.00034 21.0541 9.00034 20.6123Z" fill="#666666"/>
<path d="M10.0003 21.7663C10.0003 21.4141 10.2858 21.1287 10.638 21.1287H13.3627C13.7149 21.1287 14.0003 21.4141 14.0003 21.7663C14.0003 22.1184 13.7149 22.4039 13.3627 22.4039H10.638C10.2858 22.4039 10.0003 22.1184 10.0003 21.7663Z" fill="#666666"/>
</svg>
