<svg width="24" height="25" viewBox="0 0 24 25" fill="none" xmlns="http://www.w3.org/2000/svg">
<path d="M12.0002 2.40405C12.2764 2.40405 12.5002 2.62791 12.5002 2.90405V4.30405C12.5002 4.5802 12.2764 4.80405 12.0002 4.80405C11.7241 4.80405 11.5002 4.58019 11.5002 4.30405V2.90405C11.5002 2.62791 11.7241 2.40405 12.0002 2.40405Z" fill="#666666"/>
<path d="M5.66978 11.4716C5.66978 11.7477 5.44592 11.9716 5.16978 11.9716H3.76978C3.49363 11.9716 3.26978 11.7477 3.26978 11.4716C3.26978 11.1954 3.49363 10.9716 3.76978 10.9716H5.16978C5.44592 10.9716 5.66978 11.1954 5.66978 11.4716Z" fill="#666666"/>
<path d="M20.7303 11.4716C20.7303 11.7477 20.5065 11.9716 20.2303 11.9716H18.8303C18.5542 11.9716 18.3303 11.7477 18.3303 11.4716C18.3303 11.1954 18.5542 10.9716 18.8303 10.9716H20.2303C20.5065 10.9716 20.7303 11.1954 20.7303 11.4716Z" fill="#666666"/>
<path d="M17.0674 6.87772C16.8722 6.68246 16.8722 6.36588 17.0674 6.17062L18.0574 5.18067C18.2526 4.9854 18.5692 4.9854 18.7645 5.18067C18.9597 5.37593 18.9597 5.69251 18.7645 5.88777L17.7745 6.87772C17.5793 7.07299 17.2627 7.07299 17.0674 6.87772Z" fill="#666666"/>
<path d="M6.78927 6.87772C6.98453 6.68246 6.98453 6.36588 6.78927 6.17062L5.79932 5.18067C5.60406 4.9854 5.28748 4.9854 5.09221 5.18067C4.89695 5.37593 4.89695 5.69251 5.09221 5.88777L6.08216 6.87772C6.27743 7.07299 6.59401 7.07299 6.78927 6.87772Z" fill="#666666"/>
<path d="M9.00024 20.6123C9.00024 20.1704 9.35842 19.8123 9.80024 19.8123H14.2002C14.6421 19.8123 15.0002 20.1704 15.0002 20.6123C15.0002 21.0541 14.6421 21.4123 14.2002 21.4123H9.80024C9.35842 21.4123 9.00024 21.0541 9.00024 20.6123Z" fill="#666666"/>
<path d="M10.0002 21.7663C10.0002 21.4141 10.2857 21.1287 10.6379 21.1287H13.3626C13.7148 21.1287 14.0002 21.4141 14.0002 21.7663C14.0002 22.1184 13.7148 22.4039 13.3626 22.4039H10.6379C10.2857 22.4039 10.0002 22.1184 10.0002 21.7663Z" fill="#666666"/>
<path fill-rule="evenodd" clip-rule="evenodd" d="M15.8388 14.9848C16.9018 13.9715 17.5643 12.5416 17.5643 10.9569C17.5643 7.88396 15.0731 5.39282 12.0001 5.39282C8.92717 5.39282 6.43604 7.88396 6.43604 10.9569C6.43604 12.5416 7.09845 13.9715 8.16148 14.9848C8.65838 15.4585 9.28587 16.8547 9.27806 18.2765C9.2764 18.5793 9.50792 18.8472 9.8108 18.8472H14.0186C14.324 18.8472 14.5653 18.5742 14.5677 18.2689C14.5738 17.4883 14.7533 16.0704 15.8388 14.9848ZM9.54609 11.6359C9.37933 10.8979 9.54927 10.0958 10.0747 9.47578C10.6002 8.85574 11.3635 8.55657 12.1189 8.60003C12.4498 8.61907 12.7334 8.36631 12.7524 8.03548C12.7714 7.70466 12.5187 7.42105 12.1879 7.40201C11.0724 7.33784 9.93869 7.78025 9.15927 8.69994C8.37986 9.61963 8.12936 10.8106 8.37559 11.9004C8.44862 12.2236 8.76984 12.4264 9.09307 12.3534C9.41629 12.2804 9.61911 11.9591 9.54609 11.6359Z" fill="#666666"/>
</svg>
