<svg width="24" height="24" viewBox="0 0 24 24" fill="none" xmlns="http://www.w3.org/2000/svg">
<path d="M13 3H11V13H13V3Z" fill="#666666"/>
<path fill-rule="evenodd" clip-rule="evenodd" d="M7.66193 4.11259C4.88277 5.64438 3 8.60232 3 12C3 16.9706 7.02944 21 12 21C16.9706 21 21 16.9706 21 12C21 8.60232 19.1172 5.64438 16.3381 4.11259L15.3741 5.86535C17.5356 7.05674 19 9.35736 19 12C19 15.866 15.866 19 12 19C8.13401 19 5 15.866 5 12C5 9.35736 6.46438 7.05674 8.62594 5.86535L7.66193 4.11259Z" fill="#666666"/>
</svg>
