<svg width="24" height="24" viewBox="0 0 24 24" fill="none" xmlns="http://www.w3.org/2000/svg">
<path d="M21.6758 13.0103L18.2888 4.09238C18.1666 3.76979 17.9553 3.49326 17.6822 3.29852C17.4092 3.10378 17.0869 2.99979 16.7572 3H14.1574L14.5633 7.57313H17.4472L11.9999 12.3296L6.55254 7.57313H9.43641L9.84229 3H7.24253C6.56749 3 5.96081 3.432 5.71087 4.09238L2.32392 13.0103C2.01642 13.821 1.92555 14.705 2.06117 15.5662L2.69135 19.5476C2.75534 19.9534 2.95396 20.322 3.25184 20.588C3.54973 20.854 3.92756 21 4.31807 21H19.6806C20.487 21 21.1748 20.3858 21.3073 19.5476L21.9375 15.5662C22.0751 14.7051 21.9845 13.8207 21.6758 13.0103V13.0103ZM19.4328 17.9006C19.3955 18.1381 19.2794 18.3539 19.1051 18.5094C18.9307 18.665 18.7096 18.7503 18.4811 18.75H5.51862C5.29012 18.7503 5.06897 18.665 4.89465 18.5094C4.72032 18.3539 4.60417 18.1381 4.56694 17.9006L4.17708 15.4335C4.15376 15.2879 4.16091 15.1386 4.19801 14.9962C4.23512 14.8538 4.30129 14.7216 4.39192 14.6089C4.48254 14.4962 4.59543 14.4057 4.72269 14.3437C4.84996 14.2817 4.98854 14.2497 5.12876 14.25H18.872C19.468 14.25 19.922 14.8136 19.8237 15.4335L19.4328 17.9006V17.9006Z" fill="#666666"/>
</svg>
