<svg width="25" height="25" viewBox="0 0 25 25" fill="none" xmlns="http://www.w3.org/2000/svg">
<path fill-rule="evenodd" clip-rule="evenodd" d="M11.4021 18.6172C12.0575 19.571 12.5001 20.1721 12.5001 20.1721C12.5001 20.1721 12.9428 19.571 13.5982 18.6172C15.4662 15.8986 19.0623 10.3144 19.0623 7.61436C19.0623 3.96588 16.1385 1.03613 12.5001 1.03613C8.86172 1.03613 5.93799 3.96588 5.93799 7.61436C5.93799 10.3144 9.53408 15.8986 11.4021 18.6172ZM12.5001 17.0317C13.0238 16.2556 13.6355 15.3199 14.2454 14.3221C15.0472 13.0106 15.8264 11.6237 16.3994 10.368C17.0039 9.04309 17.2623 8.10834 17.2623 7.61436C17.2623 4.95604 15.1405 2.83613 12.5001 2.83613C9.85978 2.83613 7.73799 4.95604 7.73799 7.61436C7.73799 8.10834 7.99635 9.04309 8.6009 10.368C9.17385 11.6237 9.95304 13.0106 10.7548 14.3221C11.3648 15.3199 11.9765 16.2556 12.5001 17.0317Z" fill="#666666"/>
<path fill-rule="evenodd" clip-rule="evenodd" d="M12.5005 8.02559C13.166 8.02559 13.7106 7.48394 13.7106 6.80958C13.7106 6.13523 13.166 5.59357 12.5005 5.59357C11.8349 5.59357 11.2904 6.13523 11.2904 6.80958C11.2904 7.48394 11.8349 8.02559 12.5005 8.02559ZM12.5005 9.22559C13.8315 9.22559 14.9106 8.14391 14.9106 6.80958C14.9106 5.47526 13.8315 4.39357 12.5005 4.39357C11.1694 4.39357 10.0904 5.47526 10.0904 6.80958C10.0904 8.14391 11.1694 9.22559 12.5005 9.22559Z" fill="#666666"/>
<path fill-rule="evenodd" clip-rule="evenodd" d="M7.90485 16.0361H5.48117L3.5 23.0361H21.5L19.491 16.0361H17.105L16.2174 17.4361H18.4363L19.6417 21.6361H5.35123L6.53993 17.4361H8.77893L7.90485 16.0361Z" fill="#666666"/>
</svg>
