<svg width="24" height="24" viewBox="0 0 24 24" fill="none" xmlns="http://www.w3.org/2000/svg">
<path fill-rule="evenodd" clip-rule="evenodd" d="M14.9285 15.5523C14.1053 16.1484 13.0935 16.5 12.0001 16.5C9.24009 16.5 7.00009 14.26 7.00009 11.5H5.00009C5.00009 15.03 7.61009 17.93 11.0001 18.42V21.5H13.0001V18.42C14.2551 18.2386 15.4032 17.7269 16.3515 16.9752L14.9285 15.5523ZM13.485 14.1088C13.0475 14.3578 12.5408 14.5 12.0001 14.5C10.3401 14.5 9.00009 13.16 9.00009 11.5V9.62383L13.485 14.1088ZM9.12068 4.65325C9.4851 3.40712 10.6343 2.5 12.0001 2.5C13.6601 2.5 15.0001 3.84 15.0001 5.5V10.5327L9.12068 4.65325ZM18.5196 14.0522L16.9111 12.4436C16.9695 12.138 17.0001 11.8226 17.0001 11.5H19.0001C19.0001 12.4017 18.8298 13.2624 18.5196 14.0522Z" fill="#666666"/>
<path d="M2.87842 3.5088L4.15121 2.23601L21.7299 19.8147L20.4571 21.0875L2.87842 3.5088Z" fill="#666666"/>
</svg>
