<svg width="24" height="24" viewBox="0 0 24 24" fill="none" xmlns="http://www.w3.org/2000/svg">
<path fill-rule="evenodd" clip-rule="evenodd" d="M18 15.5462V10.6231C18 7.60032 16.37 5.06986 13.5 4.40032V3.97692C13.5 3.15969 12.83 2.5 12 2.5C11.17 2.5 10.5 3.15969 10.5 3.97692V4.40032C7.64 5.06986 6 7.59047 6 10.6231V15.5462L4 17.5154V18.5H20V17.5154L18 15.5462ZM12 21.5C13.1 21.5 14 20.6 14 19.5H10C10 20.6 10.9 21.5 12 21.5ZM8 16.5H16V10.7857C16 8.42381 14.49 6.5 12 6.5C9.51 6.5 8 8.42381 8 10.7857V16.5Z" fill="#666666"/>
</svg>
