<svg width="24" height="24" viewBox="0 0 24 24" fill="none" xmlns="http://www.w3.org/2000/svg">
<path d="M14.75 14.625H9.25V10.6964C9.25 9.07262 10.2881 7.75 12 7.75C13.7119 7.75 14.75 9.07262 14.75 10.6964V14.625Z" fill="#666666"/>
<path fill-rule="evenodd" clip-rule="evenodd" d="M2 12C2 6.48 6.48 2 12 2C17.52 2 22 6.48 22 12C22 17.52 17.52 22 12 22C6.48 22 2 17.52 2 12ZM16.125 10.5846V13.9692L17.5 15.3231V16H6.5V15.3231L7.875 13.9692V10.5846C7.875 8.4997 9.0025 6.76678 10.9688 6.30647V6.01538C10.9688 5.45354 11.4294 5 12 5C12.5706 5 13.0312 5.45354 13.0312 6.01538V6.30647C15.0044 6.76678 16.125 8.50647 16.125 10.5846ZM13.375 16.6875C13.375 17.4438 12.7563 18.0625 12 18.0625C11.2437 18.0625 10.625 17.4438 10.625 16.6875H13.375Z" fill="#666666"/>
</svg>
