<svg width="24" height="25" viewBox="0 0 24 25" fill="none" xmlns="http://www.w3.org/2000/svg">
<path fill-rule="evenodd" clip-rule="evenodd" d="M5 5.9043H10V7.9043H5V19.9043H17V14.9043H19V19.9043C19 20.4347 18.8751 20.9434 18.5 21.3185C18.1249 21.6936 17.5304 21.9043 17 21.9043H5C4.46957 21.9043 3.96086 21.6936 3.58579 21.3185C3.21071 20.9434 3 20.4347 3 19.9043V7.9043C3 7.37386 3.12493 6.77937 3.5 6.4043C3.87507 6.02922 4.46957 5.9043 5 5.9043ZM17.5 5.9043H13V3.9043H21V11.9043H19V7.4043L11.664 14.6823L10.25 13.2683L17.5 5.9043Z" fill="#666666"/>
</svg>
