<svg width="24" height="25" viewBox="0 0 24 25" fill="none" xmlns="http://www.w3.org/2000/svg">
<path d="M8.99556 5.92466V14.9869L8.73756 15.8898L7.86682 16.0833L5.19009 14.3741H4.22599L3.49089 14.9869L9.76966 22.0495L11.9626 22.4365H17.4774L19.5413 21.469L20.7023 19.3083V6.21491L19.8638 5.53768L19.0576 6.21491V11.7941H10.5437V5.92466L9.76966 5.53768L8.99556 5.92466Z" fill="#666666"/>
<path d="M12.6605 3.76443H13.9062V11.9536H12.6605V3.76443Z" fill="#666666"/>
<path d="M16.0549 3.76443H17.0546V11.9536H16.0549V3.76443Z" fill="#666666"/>
<path fill-rule="evenodd" clip-rule="evenodd" d="M4.05707 14.1253C4.54864 13.8147 5.17541 13.8162 5.66549 14.1291L7.74436 15.4565C8.07719 15.669 8.51344 15.43 8.51344 15.0351V14.4826H9.51344V15.0351C9.51344 16.2198 8.20469 16.9369 7.2062 16.2994L5.12733 14.972C4.96397 14.8677 4.75505 14.8672 4.59119 14.9707L4.41317 15.0832L9.40085 20.9883C9.87586 21.5507 10.5746 21.8751 11.3107 21.8751H17.5917C18.9724 21.8751 20.0917 20.7559 20.0917 19.3751V14.2087H21.0917V19.3751C21.0917 21.3081 19.5247 22.8751 17.5917 22.8751H11.3107C10.2801 22.8751 9.30191 22.4209 8.63689 21.6336L2.9082 14.8511L4.05707 14.1253Z" fill="#666666"/>
<path fill-rule="evenodd" clip-rule="evenodd" d="M9.9228 6.06033C9.82674 5.96233 9.66817 5.9648 9.57521 6.06575C9.53445 6.11001 9.51182 6.16799 9.51182 6.22817V14.6659C9.51182 14.9421 9.28796 15.1659 9.01182 15.1659C8.73567 15.1659 8.51182 14.9421 8.51182 14.6659V6.22817C8.51182 5.917 8.62883 5.61721 8.83962 5.38832C9.32031 4.86636 10.1402 4.85358 10.6369 5.36031L10.6464 5.36994C10.8759 5.60408 11.0044 5.91889 11.0044 6.24677V12.3737C11.0044 12.6499 10.7806 12.8737 10.5044 12.8737C10.2283 12.8737 10.0044 12.6499 10.0044 12.3737V6.24677C10.0044 6.18065 9.97852 6.11717 9.93224 6.06996L9.9228 6.06033Z" fill="#666666"/>
<path fill-rule="evenodd" clip-rule="evenodd" d="M19.6807 6.06033C19.7767 5.96233 19.9353 5.9648 20.0283 6.06575C20.069 6.11001 20.0917 6.16799 20.0917 6.22817V14.6659C20.0917 14.9421 20.3155 15.1659 20.5917 15.1659C20.8678 15.1659 21.0917 14.9421 21.0917 14.6659V6.22817C21.0917 5.917 20.9746 5.61721 20.7638 5.38832C20.2832 4.86636 19.4633 4.85358 18.9665 5.36031L18.9571 5.36994C18.7276 5.60408 18.599 5.91889 18.599 6.24677V12.3737C18.599 12.6499 18.8229 12.8737 19.099 12.8737C19.3752 12.8737 19.599 12.6499 19.599 12.3737V6.24677C19.599 6.18065 19.6249 6.11717 19.6712 6.06996L19.6807 6.06033Z" fill="#666666"/>
<path fill-rule="evenodd" clip-rule="evenodd" d="M13.3176 3.85757C13.2216 3.75957 13.063 3.76204 12.97 3.86299C12.9293 3.90725 12.9066 3.96523 12.9066 4.02541V12.3931C12.9066 12.6692 12.6828 12.8931 12.4066 12.8931C12.1305 12.8931 11.9066 12.6692 11.9066 12.3931V4.02541C11.9066 3.71424 12.0237 3.41445 12.2344 3.18556C12.7151 2.6636 13.535 2.65082 14.0317 3.15755L14.0412 3.16718C14.2707 3.40133 14.3993 3.71613 14.3993 4.04401V12.3931C14.3993 12.6692 14.1754 12.8931 13.8993 12.8931C13.6231 12.8931 13.3993 12.6692 13.3993 12.3931V4.04401C13.3993 3.97789 13.3733 3.91441 13.3271 3.8672L13.3176 3.85757Z" fill="#666666"/>
<path fill-rule="evenodd" clip-rule="evenodd" d="M16.7194 3.85757C16.6233 3.75957 16.4648 3.76204 16.3718 3.86299C16.331 3.90725 16.3084 3.96523 16.3084 4.02541V12.3834C16.3084 12.6595 16.0846 12.8834 15.8084 12.8834C15.5323 12.8834 15.3084 12.6595 15.3084 12.3834V4.02541C15.3084 3.71424 15.4254 3.41445 15.6362 3.18556C16.1169 2.6636 16.9368 2.65082 17.4335 3.15755L17.443 3.16718C17.6725 3.40133 17.801 3.71613 17.801 4.04401V12.3834C17.801 12.6595 17.5772 12.8834 17.301 12.8834C17.0249 12.8834 16.801 12.6595 16.801 12.3834V4.04401C16.801 3.97789 16.7751 3.91441 16.7288 3.8672L16.7194 3.85757Z" fill="#666666"/>
</svg>
