<svg width="24" height="24" viewBox="0 0 24 24" fill="none" xmlns="http://www.w3.org/2000/svg">
<path fill-rule="evenodd" clip-rule="evenodd" d="M9.49407 6H6V20H18V6H14.5231V4H18C19.1046 4 20 4.89543 20 6V20C20 21.1046 19.1046 22 18 22H6C4.89543 22 4 21.1046 4 20V6C4 4.89543 4.89543 4 6 4H9.49407V6Z" fill="#666666"/>
<path d="M8 5.99466H16V8.22992H8V5.99466Z" fill="#666666"/>
<path fill-rule="evenodd" clip-rule="evenodd" d="M16.5538 5H14.9998C14.9998 3.34315 13.6567 2 11.9998 2C10.3429 2 8.9998 3.34315 8.9998 5H7.49351L7.49341 8.25506H16.554L16.5538 5ZM12.0001 5.72685C12.5328 5.72685 12.9646 5.29501 12.9646 4.7623C12.9646 4.2296 12.5328 3.79776 12.0001 3.79776C11.4674 3.79776 11.0356 4.2296 11.0356 4.7623C11.0356 5.29501 11.4674 5.72685 12.0001 5.72685Z" fill="#666666"/>
</svg>
