<svg width="24" height="25" viewBox="0 0 24 25" fill="none" xmlns="http://www.w3.org/2000/svg">
<path fill-rule="evenodd" clip-rule="evenodd" d="M11.9831 17.9792C14.4689 17.9792 16.484 15.6823 16.484 12.8489C16.484 10.0155 14.4689 7.71863 11.9831 7.71863C9.4973 7.71863 7.48218 10.0155 7.48218 12.8489C7.48218 15.6823 9.4973 17.9792 11.9831 17.9792ZM11.925 9.04041C11.6489 9.04041 11.425 9.26426 11.425 9.54041V10.0012C11.1029 10.0754 10.8313 10.2055 10.61 10.3915C10.245 10.7008 10.0625 11.1257 10.0625 11.6663C10.0625 11.9532 10.1182 12.204 10.2297 12.4186C10.3411 12.6331 10.4902 12.8212 10.6769 12.9828C10.8636 13.1444 11.1436 13.3129 11.5169 13.4885C11.9154 13.678 12.1787 13.8159 12.3069 13.9022C12.4378 13.9886 12.5367 14.0792 12.6036 14.1739C12.6705 14.2659 12.7039 14.3717 12.7039 14.4915C12.7039 14.7061 12.6273 14.8677 12.474 14.9764C12.3236 15.085 12.1062 15.1394 11.822 15.1394C11.5852 15.1394 11.3233 15.1017 11.0363 15.0265C10.7521 14.9513 10.4038 14.8217 9.99146 14.6378V15.8415C10.4156 16.0489 10.8936 16.1686 11.4255 16.2005V16.5101C11.4255 16.7863 11.6493 17.0101 11.9255 17.0101H12.1238C12.3999 17.0101 12.6238 16.7863 12.6238 16.5101V16.102C12.9179 16.0228 13.1689 15.8998 13.3768 15.7328C13.7752 15.4152 13.9744 14.9805 13.9744 14.4289C13.9744 14.0304 13.8686 13.6947 13.6568 13.4216C13.4451 13.1458 13.0536 12.8713 12.4824 12.5983C12.0505 12.3921 11.7761 12.25 11.659 12.172C11.5448 12.0912 11.4612 12.009 11.4083 11.9254C11.3553 11.839 11.3289 11.7387 11.3289 11.6245C11.3289 11.4406 11.3943 11.2915 11.5253 11.1773C11.6563 11.063 11.8443 11.0059 12.0895 11.0059C12.2957 11.0059 12.5047 11.0324 12.7164 11.0853C12.931 11.1383 13.2013 11.2316 13.5272 11.3653L13.9452 10.3581C13.6303 10.2216 13.328 10.1157 13.0383 10.0405C12.9033 10.0051 12.7651 9.97804 12.6234 9.9593V9.54041C12.6234 9.26426 12.3995 9.04041 12.1234 9.04041H11.925Z" fill="#666666"/>
<path fill-rule="evenodd" clip-rule="evenodd" d="M0.5 6.01794C0.223858 6.01794 0 6.2418 0 6.51794V19.2322C0 19.5084 0.223857 19.7322 0.5 19.7322H23.5C23.7761 19.7322 24 19.5084 24 19.2322V6.51794C24 6.2418 23.7761 6.01794 23.5 6.01794H0.5ZM22.2858 7.73261H1.7144V18.0183H22.2858V7.73261Z" fill="#666666"/>
<path d="M2.05257 10.0369C3.13026 10.0369 4.0039 9.1633 4.0039 8.08561C4.0039 7.96046 3.99212 7.83806 3.9696 7.71946H1.70526V10.0061C1.81797 10.0264 1.93404 10.0369 2.05257 10.0369Z" fill="#666666"/>
<path d="M21.955 10.0369C20.8773 10.0369 20.0037 9.16331 20.0037 8.08563C20.0037 7.96047 20.0155 7.83807 20.038 7.71947H22.3023V10.0061C22.1896 10.0264 22.0735 10.0369 21.955 10.0369Z" fill="#666666"/>
<path d="M2.05257 15.7231C3.13026 15.7231 4.0039 16.5967 4.0039 17.6744C4.0039 17.7996 3.99212 17.922 3.9696 18.0406H1.70526V15.7539C1.81797 15.7337 1.93404 15.7231 2.05257 15.7231Z" fill="#666666"/>
<path d="M21.9551 15.7231C20.8774 15.7231 20.0038 16.5967 20.0038 17.6744C20.0038 17.7996 20.0156 17.922 20.0381 18.0406H22.3024V15.7539C22.1897 15.7337 22.0736 15.7231 21.9551 15.7231Z" fill="#666666"/>
</svg>
