<svg width="25" height="24" viewBox="0 0 25 24" fill="none" xmlns="http://www.w3.org/2000/svg">
<g id="pending-approval">
<g id="Vector">
<path fill-rule="evenodd" clip-rule="evenodd" d="M19.7671 12.9174V3.5C19.7671 2.4 18.8671 1.5 17.7671 1.5H3.76709C2.65709 1.5 1.77709 2.4 1.77709 3.5L1.76709 17.5C1.76709 18.6 2.65709 19.5 3.76709 19.5H13.1828C12.9154 18.8874 12.7671 18.211 12.7671 17.5H3.76709V3.5H17.7671V12.5C18.4783 12.5007 19.1547 12.6496 19.7671 12.9174Z" fill="#666666"/>
<path d="M8.76709 2.5H12.7671V8.5L10.7671 7.5L8.76709 8.5V2.5Z" fill="#666666"/>
<path fill-rule="evenodd" clip-rule="evenodd" d="M17.7621 12.5C15.0021 12.5 12.7671 14.74 12.7671 17.5C12.7671 20.26 15.0021 22.5 17.7621 22.5C20.5271 22.5 22.7671 20.26 22.7671 17.5C22.7671 14.74 20.5271 12.5 17.7621 12.5ZM17.7671 21C15.8333 21 14.2671 19.4338 14.2671 17.5C14.2671 15.5662 15.8333 14 17.7671 14C19.7008 14 21.2671 15.5662 21.2671 17.5C21.2671 19.4338 19.7008 21 17.7671 21ZM17.2669 15H18.2672V17H20.2672L20.2669 18H17.2669V15Z" fill="#666666"/>
</g>
</g>
</svg>
