<svg width="24" height="24" viewBox="0 0 24 24" fill="none" xmlns="http://www.w3.org/2000/svg">
<path d="M19.4471 15.3339C19.5064 15.2433 19.5166 15.1284 19.4739 15.0289C19.0981 14.15 18.5617 13.3567 17.8798 12.671C16.8168 11.6021 15.6927 11.0829 15.2388 10.9022L14.7346 4.61409C15.89 3.68975 16.0399 2.41376 16.0458 2.35759C16.0554 2.26625 16.0263 2.17537 15.9657 2.1071C15.903 2.04133 15.8176 1.99978 15.7265 2L8.79861 2C8.70709 1.99978 8.61989 2.03905 8.5588 2.10824C8.49795 2.17674 8.46888 2.26854 8.47932 2.35987C8.58174 3.25293 9.10358 3.9439 9.52324 4.36588C9.6168 4.45996 9.70105 4.536 9.7669 4.59263L9.26004 10.9123C8.55653 11.2233 6.12853 12.4536 5.02626 15.0293C4.98334 15.1291 4.99356 15.2435 5.05305 15.3344C5.06509 15.3529 5.07894 15.37 5.09416 15.3853C5.15388 15.4454 5.23541 15.4799 5.32124 15.4799H11.9385L11.9385 21.6771C11.9385 21.7662 11.9744 21.847 12.0325 21.9055C12.0907 21.9639 12.1711 22 12.2596 22C12.4372 22 12.5807 21.8557 12.5807 21.6771L12.5807 15.4799L19.1787 15.4796C19.2868 15.4796 19.3876 15.4248 19.4471 15.3339Z" fill="#666666"/>
</svg>
