<svg width="24" height="24" viewBox="0 0 24 24" fill="none" xmlns="http://www.w3.org/2000/svg">
<mask id="path-1-inside-1" fill="white">
<path fill-rule="evenodd" clip-rule="evenodd" d="M5.5 2.5V18.5H15.5V2.5L5.5 2.5ZM3.5 2.5V18.5C3.5 19.6046 4.39543 20.5 5.5 20.5H15.5C16.6046 20.5 17.5 19.6046 17.5 18.5V2.5C17.5 1.39543 16.6046 0.5 15.5 0.5H5.5C4.39543 0.5 3.5 1.39543 3.5 2.5Z"/>
</mask>
<path fill-rule="evenodd" clip-rule="evenodd" d="M5.5 2.5V18.5H15.5V2.5L5.5 2.5ZM3.5 2.5V18.5C3.5 19.6046 4.39543 20.5 5.5 20.5H15.5C16.6046 20.5 17.5 19.6046 17.5 18.5V2.5C17.5 1.39543 16.6046 0.5 15.5 0.5H5.5C4.39543 0.5 3.5 1.39543 3.5 2.5Z" fill="#808080"/>
<path d="M5.5 18.5H3.5V20.5H5.5V18.5ZM5.5 2.5L5.5 0.5L3.5 0.5V2.5H5.5ZM15.5 18.5V20.5H17.5V18.5H15.5ZM15.5 2.5H17.5V0.500001L15.5 0.5L15.5 2.5ZM7.5 18.5V2.5H3.5V18.5H7.5ZM15.5 16.5H5.5V20.5H15.5V16.5ZM13.5 2.5V18.5H17.5V2.5H13.5ZM5.5 4.5L15.5 4.5L15.5 0.5L5.5 0.5L5.5 4.5ZM5.5 18.5V2.5H1.5V18.5H5.5ZM5.5 18.5H1.5C1.5 20.7091 3.29086 22.5 5.5 22.5V18.5ZM15.5 18.5H5.5V22.5H15.5V18.5ZM15.5 18.5V22.5C17.7091 22.5 19.5 20.7091 19.5 18.5H15.5ZM15.5 2.5V18.5H19.5V2.5H15.5ZM15.5 2.5V2.5H19.5C19.5 0.290862 17.7091 -1.5 15.5 -1.5V2.5ZM5.5 2.5H15.5V-1.5H5.5V2.5ZM5.5 2.5H5.5V-1.5C3.29086 -1.5 1.5 0.290861 1.5 2.5H5.5Z" fill="#1F73E0" mask="url(#path-1-inside-1)"/>
<path fill-rule="evenodd" clip-rule="evenodd" d="M5.5 2.5L15.5 2.5V18.5H5.5V2.5ZM3.5 18.5V2.5C3.5 1.39543 4.39543 0.5 5.5 0.5H15.5C16.6046 0.5 17.5 1.39543 17.5 2.5V18.5C17.5 19.6046 16.6046 20.5 15.5 20.5H5.5C4.39543 20.5 3.5 19.6046 3.5 18.5Z" fill="#808080"/>
<path fill-rule="evenodd" clip-rule="evenodd" d="M15.5 2.5V18.5H5.5V2.5L15.5 2.5ZM3.5 2.5V18.5C3.5 19.6046 4.39543 20.5 5.5 20.5H15.5C16.6046 20.5 17.5 19.6046 17.5 18.5V2.5C17.5 1.39543 16.6046 0.5 15.5 0.5H5.5C4.39543 0.5 3.5 1.39543 3.5 2.5Z" fill="#808080"/>
<path fill-rule="evenodd" clip-rule="evenodd" d="M15.5 2.5V18.5H5.5V2.5L15.5 2.5ZM3.5 2.5V18.5C3.5 19.6046 4.39543 20.5 5.5 20.5H15.5C16.6046 20.5 17.5 19.6046 17.5 18.5V2.5C17.5 1.39543 16.6046 0.5 15.5 0.5H5.5C4.39543 0.5 3.5 1.39543 3.5 2.5Z" fill="#808080"/>
<path fill-rule="evenodd" clip-rule="evenodd" d="M5.5 2.5L15.5 2.5V18.5H5.5V2.5ZM3.5 18.5V2.5C3.5 1.39543 4.39543 0.5 5.5 0.5H15.5C16.6046 0.5 17.5 1.39543 17.5 2.5V18.5C17.5 19.6046 16.6046 20.5 15.5 20.5H5.5C4.39543 20.5 3.5 19.6046 3.5 18.5Z" fill="#808080"/>
<path fill-rule="evenodd" clip-rule="evenodd" d="M15.5 2.5V18.5H5.5V2.5L15.5 2.5ZM3.5 2.5V18.5C3.5 19.6046 4.39543 20.5 5.5 20.5H15.5C16.6046 20.5 17.5 19.6046 17.5 18.5V2.5C17.5 1.39543 16.6046 0.5 15.5 0.5H5.5C4.39543 0.5 3.5 1.39543 3.5 2.5Z" fill="#808080"/>
<path fill-rule="evenodd" clip-rule="evenodd" d="M5.5 2.5L15.5 2.5V18.5H5.5V2.5ZM3.5 18.5V2.5C3.5 1.39543 4.39543 0.5 5.5 0.5H15.5C16.6046 0.5 17.5 1.39543 17.5 2.5V18.5C17.5 19.6046 16.6046 20.5 15.5 20.5H5.5C4.39543 20.5 3.5 19.6046 3.5 18.5Z" fill="#808080"/>
<path fill-rule="evenodd" clip-rule="evenodd" d="M5.5 2.5L15.5 2.5V18.5H5.5V2.5ZM3.5 18.5V2.5C3.5 1.39543 4.39543 0.5 5.5 0.5H15.5C16.6046 0.5 17.5 1.39543 17.5 2.5V18.5C17.5 19.6046 16.6046 20.5 15.5 20.5H5.5C4.39543 20.5 3.5 19.6046 3.5 18.5Z" fill="#808080"/>
<path fill-rule="evenodd" clip-rule="evenodd" d="M5.5 2.5L15.5 2.5V18.5H5.5V2.5ZM3.5 2.5V18.5C3.5 19.6046 4.39543 20.5 5.5 20.5H15.5C16.6046 20.5 17.5 19.6046 17.5 18.5V2.5C17.5 1.39543 16.6046 0.5 15.5 0.5H5.5C4.39543 0.5 3.5 1.39543 3.5 2.5Z" fill="#808080"/>
<path fill-rule="evenodd" clip-rule="evenodd" d="M15.5 2.5V18.5H5.5V2.5L15.5 2.5ZM3.5 2.5V18.5C3.5 19.6046 4.39543 20.5 5.5 20.5H15.5C16.6046 20.5 17.5 19.6046 17.5 18.5V2.5C17.5 1.39543 16.6046 0.5 15.5 0.5H5.5C4.39543 0.5 3.5 1.39543 3.5 2.5Z" fill="#808080"/>
<path fill-rule="evenodd" clip-rule="evenodd" d="M5.5 2.5L15.5 2.5V18.5H5.5V2.5ZM3.5 18.5V2.5C3.5 1.39543 4.39543 0.5 5.5 0.5H15.5C16.6046 0.5 17.5 1.39543 17.5 2.5V18.5C17.5 19.6046 16.6046 20.5 15.5 20.5H5.5C4.39543 20.5 3.5 19.6046 3.5 18.5Z" fill="#808080"/>
<path fill-rule="evenodd" clip-rule="evenodd" d="M5.5 2.5L15.5 2.5V18.5H5.5V2.5ZM3.5 18.5V2.5C3.5 1.39543 4.39543 0.5 5.5 0.5H15.5C16.6046 0.5 17.5 1.39543 17.5 2.5V18.5C17.5 19.6046 16.6046 20.5 15.5 20.5H5.5C4.39543 20.5 3.5 19.6046 3.5 18.5Z" fill="#808080"/>
<path fill-rule="evenodd" clip-rule="evenodd" d="M5.5 2.5L15.5 2.5V18.5H5.5V2.5ZM3.5 2.5V18.5C3.5 19.6046 4.39543 20.5 5.5 20.5H15.5C16.6046 20.5 17.5 19.6046 17.5 18.5V2.5C17.5 1.39543 16.6046 0.5 15.5 0.5H5.5C4.39543 0.5 3.5 1.39543 3.5 2.5Z" fill="#808080"/>
<path fill-rule="evenodd" clip-rule="evenodd" d="M5.5 2.5L15.5 2.5V18.5H5.5V2.5ZM3.5 18.5V2.5C3.5 1.39543 4.39543 0.5 5.5 0.5H15.5C16.6046 0.5 17.5 1.39543 17.5 2.5V18.5C17.5 19.6046 16.6046 20.5 15.5 20.5H5.5C4.39543 20.5 3.5 19.6046 3.5 18.5Z" fill="#808080"/>
<path fill-rule="evenodd" clip-rule="evenodd" d="M5.5 2.5L15.5 2.5V18.5H5.5V2.5ZM3.5 2.5V18.5C3.5 19.6046 4.39543 20.5 5.5 20.5H15.5C16.6046 20.5 17.5 19.6046 17.5 18.5V2.5C17.5 1.39543 16.6046 0.5 15.5 0.5H5.5C4.39543 0.5 3.5 1.39543 3.5 2.5Z" fill="#808080"/>
<path fill-rule="evenodd" clip-rule="evenodd" d="M5.5 2.5L15.5 2.5V18.5H5.5V2.5ZM3.5 2.5V18.5C3.5 19.6046 4.39543 20.5 5.5 20.5H15.5C16.6046 20.5 17.5 19.6046 17.5 18.5V2.5C17.5 1.39543 16.6046 0.5 15.5 0.5H5.5C4.39543 0.5 3.5 1.39543 3.5 2.5Z" fill="#808080"/>
<path fill-rule="evenodd" clip-rule="evenodd" d="M5.5 2.5L15.5 2.5V18.5H5.5V2.5ZM3.5 18.5V2.5C3.5 1.39543 4.39543 0.5 5.5 0.5H15.5C16.6046 0.5 17.5 1.39543 17.5 2.5V18.5C17.5 19.6046 16.6046 20.5 15.5 20.5H5.5C4.39543 20.5 3.5 19.6046 3.5 18.5Z" fill="#808080"/>
<path fill-rule="evenodd" clip-rule="evenodd" d="M15.5 2.5V18.5H5.5V2.5L15.5 2.5ZM3.5 2.5V18.5C3.5 19.6046 4.39543 20.5 5.5 20.5H15.5C16.6046 20.5 17.5 19.6046 17.5 18.5V2.5C17.5 1.39543 16.6046 0.5 15.5 0.5H5.5C4.39543 0.5 3.5 1.39543 3.5 2.5Z" fill="#808080"/>
<path fill-rule="evenodd" clip-rule="evenodd" d="M5.5 2.5L15.5 2.5V18.5H5.5V2.5ZM3.5 18.5V2.5C3.5 1.39543 4.39543 0.5 5.5 0.5H15.5C16.6046 0.5 17.5 1.39543 17.5 2.5V18.5C17.5 19.6046 16.6046 20.5 15.5 20.5H5.5C4.39543 20.5 3.5 19.6046 3.5 18.5Z" fill="#808080"/>
<path fill-rule="evenodd" clip-rule="evenodd" d="M5.5 2.5L15.5 2.5V18.5H5.5V2.5ZM3.5 18.5V2.5C3.5 1.39543 4.39543 0.5 5.5 0.5H15.5C16.6046 0.5 17.5 1.39543 17.5 2.5V18.5C17.5 19.6046 16.6046 20.5 15.5 20.5H5.5C4.39543 20.5 3.5 19.6046 3.5 18.5Z" fill="#808080"/>
<path fill-rule="evenodd" clip-rule="evenodd" d="M5.5 2.5L15.5 2.5V18.5H5.5V2.5ZM3.5 2.5V18.5C3.5 19.6046 4.39543 20.5 5.5 20.5H15.5C16.6046 20.5 17.5 19.6046 17.5 18.5V2.5C17.5 1.39543 16.6046 0.5 15.5 0.5H5.5C4.39543 0.5 3.5 1.39543 3.5 2.5Z" fill="#808080"/>
<path fill-rule="evenodd" clip-rule="evenodd" d="M5.5 2.5L15.5 2.5V18.5H5.5V2.5ZM3.5 18.5V2.5C3.5 1.39543 4.39543 0.5 5.5 0.5H15.5C16.6046 0.5 17.5 1.39543 17.5 2.5V18.5C17.5 19.6046 16.6046 20.5 15.5 20.5H5.5C4.39543 20.5 3.5 19.6046 3.5 18.5Z" fill="#808080"/>
<path fill-rule="evenodd" clip-rule="evenodd" d="M5.5 2.5L15.5 2.5V18.5H5.5V2.5ZM3.5 2.5V18.5C3.5 19.6046 4.39543 20.5 5.5 20.5H15.5C16.6046 20.5 17.5 19.6046 17.5 18.5V2.5C17.5 1.39543 16.6046 0.5 15.5 0.5H5.5C4.39543 0.5 3.5 1.39543 3.5 2.5Z" fill="#808080"/>
<path fill-rule="evenodd" clip-rule="evenodd" d="M5.5 2.5L15.5 2.5V18.5H5.5V2.5ZM3.5 2.5V18.5C3.5 19.6046 4.39543 20.5 5.5 20.5H15.5C16.6046 20.5 17.5 19.6046 17.5 18.5V2.5C17.5 1.39543 16.6046 0.5 15.5 0.5H5.5C4.39543 0.5 3.5 1.39543 3.5 2.5Z" fill="#808080"/>
<path fill-rule="evenodd" clip-rule="evenodd" d="M5.5 2.5L15.5 2.5V18.5H5.5V2.5ZM3.5 18.5V2.5C3.5 1.39543 4.39543 0.5 5.5 0.5H15.5C16.6046 0.5 17.5 1.39543 17.5 2.5V18.5C17.5 19.6046 16.6046 20.5 15.5 20.5H5.5C4.39543 20.5 3.5 19.6046 3.5 18.5Z" fill="#808080"/>
<path fill-rule="evenodd" clip-rule="evenodd" d="M5.5 2.5L15.5 2.5V18.5H5.5V2.5ZM3.5 18.5V2.5C3.5 1.39543 4.39543 0.5 5.5 0.5H15.5C16.6046 0.5 17.5 1.39543 17.5 2.5V18.5C17.5 19.6046 16.6046 20.5 15.5 20.5H5.5C4.39543 20.5 3.5 19.6046 3.5 18.5Z" fill="#808080"/>
<path fill-rule="evenodd" clip-rule="evenodd" d="M5.5 2.5L15.5 2.5V18.5H5.5V2.5ZM3.5 2.5V18.5C3.5 19.6046 4.39543 20.5 5.5 20.5H15.5C16.6046 20.5 17.5 19.6046 17.5 18.5V2.5C17.5 1.39543 16.6046 0.5 15.5 0.5H5.5C4.39543 0.5 3.5 1.39543 3.5 2.5Z" fill="#808080"/>
<path fill-rule="evenodd" clip-rule="evenodd" d="M5.5 2.5L15.5 2.5V18.5H5.5V2.5ZM3.5 2.5V18.5C3.5 19.6046 4.39543 20.5 5.5 20.5H15.5C16.6046 20.5 17.5 19.6046 17.5 18.5V2.5C17.5 1.39543 16.6046 0.5 15.5 0.5H5.5C4.39543 0.5 3.5 1.39543 3.5 2.5Z" fill="#808080"/>
<path fill-rule="evenodd" clip-rule="evenodd" d="M5.5 2.5L15.5 2.5V18.5H5.5V2.5ZM3.5 18.5V2.5C3.5 1.39543 4.39543 0.5 5.5 0.5H15.5C16.6046 0.5 17.5 1.39543 17.5 2.5V18.5C17.5 19.6046 16.6046 20.5 15.5 20.5H5.5C4.39543 20.5 3.5 19.6046 3.5 18.5Z" fill="#808080"/>
<path fill-rule="evenodd" clip-rule="evenodd" d="M5.5 2.5L15.5 2.5V18.5H5.5V2.5ZM3.5 2.5V18.5C3.5 19.6046 4.39543 20.5 5.5 20.5H15.5C16.6046 20.5 17.5 19.6046 17.5 18.5V2.5C17.5 1.39543 16.6046 0.5 15.5 0.5H5.5C4.39543 0.5 3.5 1.39543 3.5 2.5Z" fill="#808080"/>
<path fill-rule="evenodd" clip-rule="evenodd" d="M5.5 2.5L15.5 2.5V18.5H5.5V2.5ZM3.5 18.5V2.5C3.5 1.39543 4.39543 0.5 5.5 0.5H15.5C16.6046 0.5 17.5 1.39543 17.5 2.5V18.5C17.5 19.6046 16.6046 20.5 15.5 20.5H5.5C4.39543 20.5 3.5 19.6046 3.5 18.5Z" fill="#808080"/>
<path fill-rule="evenodd" clip-rule="evenodd" d="M5.5 2.5L15.5 2.5V18.5H5.5V2.5ZM3.5 18.5V2.5C3.5 1.39543 4.39543 0.5 5.5 0.5H15.5C16.6046 0.5 17.5 1.39543 17.5 2.5V18.5C17.5 19.6046 16.6046 20.5 15.5 20.5H5.5C4.39543 20.5 3.5 19.6046 3.5 18.5Z" fill="#808080"/>
<path fill-rule="evenodd" clip-rule="evenodd" d="M5.5 2.5L15.5 2.5V18.5H5.5V2.5ZM3.5 2.5V18.5C3.5 19.6046 4.39543 20.5 5.5 20.5H15.5C16.6046 20.5 17.5 19.6046 17.5 18.5V2.5C17.5 1.39543 16.6046 0.5 15.5 0.5H5.5C4.39543 0.5 3.5 1.39543 3.5 2.5Z" fill="#808080"/>
<path fill-rule="evenodd" clip-rule="evenodd" d="M15.5 2.5V18.5H5.5V2.5L15.5 2.5ZM3.5 2.5V18.5C3.5 19.6046 4.39543 20.5 5.5 20.5H15.5C16.6046 20.5 17.5 19.6046 17.5 18.5V2.5C17.5 1.39543 16.6046 0.5 15.5 0.5H5.5C4.39543 0.5 3.5 1.39543 3.5 2.5Z" fill="#808080"/>
<path fill-rule="evenodd" clip-rule="evenodd" d="M5.5 2.5L15.5 2.5V18.5H5.5V2.5ZM3.5 18.5V2.5C3.5 1.39543 4.39543 0.5 5.5 0.5H15.5C16.6046 0.5 17.5 1.39543 17.5 2.5V18.5C17.5 19.6046 16.6046 20.5 15.5 20.5H5.5C4.39543 20.5 3.5 19.6046 3.5 18.5Z" fill="#808080"/>
<path fill-rule="evenodd" clip-rule="evenodd" d="M5.5 2.5L15.5 2.5V18.5H5.5V2.5ZM3.5 18.5V2.5C3.5 1.39543 4.39543 0.5 5.5 0.5H15.5C16.6046 0.5 17.5 1.39543 17.5 2.5V18.5C17.5 19.6046 16.6046 20.5 15.5 20.5H5.5C4.39543 20.5 3.5 19.6046 3.5 18.5Z" fill="#808080"/>
<path fill-rule="evenodd" clip-rule="evenodd" d="M5.5 2.5L15.5 2.5V18.5H5.5V2.5ZM3.5 2.5V18.5C3.5 19.6046 4.39543 20.5 5.5 20.5H15.5C16.6046 20.5 17.5 19.6046 17.5 18.5V2.5C17.5 1.39543 16.6046 0.5 15.5 0.5H5.5C4.39543 0.5 3.5 1.39543 3.5 2.5Z" fill="#808080"/>
<path fill-rule="evenodd" clip-rule="evenodd" d="M5.5 2.5L15.5 2.5V18.5H5.5V2.5ZM3.5 18.5V2.5C3.5 1.39543 4.39543 0.5 5.5 0.5H15.5C16.6046 0.5 17.5 1.39543 17.5 2.5V18.5C17.5 19.6046 16.6046 20.5 15.5 20.5H5.5C4.39543 20.5 3.5 19.6046 3.5 18.5Z" fill="#808080"/>
<path fill-rule="evenodd" clip-rule="evenodd" d="M5.5 2.5L15.5 2.5V18.5H5.5V2.5ZM3.5 2.5V18.5C3.5 19.6046 4.39543 20.5 5.5 20.5H15.5C16.6046 20.5 17.5 19.6046 17.5 18.5V2.5C17.5 1.39543 16.6046 0.5 15.5 0.5H5.5C4.39543 0.5 3.5 1.39543 3.5 2.5Z" fill="#808080"/>
<path fill-rule="evenodd" clip-rule="evenodd" d="M5.5 2.5L15.5 2.5V18.5H5.5V2.5ZM3.5 2.5V18.5C3.5 19.6046 4.39543 20.5 5.5 20.5H15.5C16.6046 20.5 17.5 19.6046 17.5 18.5V2.5C17.5 1.39543 16.6046 0.5 15.5 0.5H5.5C4.39543 0.5 3.5 1.39543 3.5 2.5Z" fill="#808080"/>
<path fill-rule="evenodd" clip-rule="evenodd" d="M5.5 2.5L15.5 2.5V18.5H5.5V2.5ZM3.5 18.5V2.5C3.5 1.39543 4.39543 0.5 5.5 0.5H15.5C16.6046 0.5 17.5 1.39543 17.5 2.5V18.5C17.5 19.6046 16.6046 20.5 15.5 20.5H5.5C4.39543 20.5 3.5 19.6046 3.5 18.5Z" fill="#808080"/>
<path fill-rule="evenodd" clip-rule="evenodd" d="M5.5 2.5L15.5 2.5V18.5H5.5V2.5ZM3.5 18.5V2.5C3.5 1.39543 4.39543 0.5 5.5 0.5H15.5C16.6046 0.5 17.5 1.39543 17.5 2.5V18.5C17.5 19.6046 16.6046 20.5 15.5 20.5H5.5C4.39543 20.5 3.5 19.6046 3.5 18.5Z" fill="#808080"/>
<path fill-rule="evenodd" clip-rule="evenodd" d="M5.5 2.5L15.5 2.5V18.5H5.5V2.5ZM3.5 2.5V18.5C3.5 19.6046 4.39543 20.5 5.5 20.5H15.5C16.6046 20.5 17.5 19.6046 17.5 18.5V2.5C17.5 1.39543 16.6046 0.5 15.5 0.5H5.5C4.39543 0.5 3.5 1.39543 3.5 2.5Z" fill="#808080"/>
<path fill-rule="evenodd" clip-rule="evenodd" d="M5.5 2.5L15.5 2.5V18.5H5.5V2.5ZM3.5 2.5V18.5C3.5 19.6046 4.39543 20.5 5.5 20.5H15.5C16.6046 20.5 17.5 19.6046 17.5 18.5V2.5C17.5 1.39543 16.6046 0.5 15.5 0.5H5.5C4.39543 0.5 3.5 1.39543 3.5 2.5Z" fill="#808080"/>
<path fill-rule="evenodd" clip-rule="evenodd" d="M5.5 2.5L15.5 2.5V18.5H5.5V2.5ZM3.5 18.5V2.5C3.5 1.39543 4.39543 0.5 5.5 0.5H15.5C16.6046 0.5 17.5 1.39543 17.5 2.5V18.5C17.5 19.6046 16.6046 20.5 15.5 20.5H5.5C4.39543 20.5 3.5 19.6046 3.5 18.5Z" fill="#808080"/>
<path fill-rule="evenodd" clip-rule="evenodd" d="M5.5 2.5L15.5 2.5V18.5H5.5V2.5ZM3.5 2.5V18.5C3.5 19.6046 4.39543 20.5 5.5 20.5H15.5C16.6046 20.5 17.5 19.6046 17.5 18.5V2.5C17.5 1.39543 16.6046 0.5 15.5 0.5H5.5C4.39543 0.5 3.5 1.39543 3.5 2.5Z" fill="#808080"/>
<path fill-rule="evenodd" clip-rule="evenodd" d="M5.5 2.5L15.5 2.5V18.5H5.5V2.5ZM3.5 18.5V2.5C3.5 1.39543 4.39543 0.5 5.5 0.5H15.5C16.6046 0.5 17.5 1.39543 17.5 2.5V18.5C17.5 19.6046 16.6046 20.5 15.5 20.5H5.5C4.39543 20.5 3.5 19.6046 3.5 18.5Z" fill="#808080"/>
<path fill-rule="evenodd" clip-rule="evenodd" d="M5.5 2.5L15.5 2.5V18.5H5.5V2.5ZM3.5 18.5V2.5C3.5 1.39543 4.39543 0.5 5.5 0.5H15.5C16.6046 0.5 17.5 1.39543 17.5 2.5V18.5C17.5 19.6046 16.6046 20.5 15.5 20.5H5.5C4.39543 20.5 3.5 19.6046 3.5 18.5Z" fill="#808080"/>
<path fill-rule="evenodd" clip-rule="evenodd" d="M5.5 2.5L15.5 2.5V18.5H5.5V2.5ZM3.5 2.5V18.5C3.5 19.6046 4.39543 20.5 5.5 20.5H15.5C16.6046 20.5 17.5 19.6046 17.5 18.5V2.5C17.5 1.39543 16.6046 0.5 15.5 0.5H5.5C4.39543 0.5 3.5 1.39543 3.5 2.5Z" fill="#808080"/>
<path fill-rule="evenodd" clip-rule="evenodd" d="M5.5 2.5L15.5 2.5V18.5H5.5V2.5ZM3.5 18.5V2.5C3.5 1.39543 4.39543 0.5 5.5 0.5H15.5C16.6046 0.5 17.5 1.39543 17.5 2.5V18.5C17.5 19.6046 16.6046 20.5 15.5 20.5H5.5C4.39543 20.5 3.5 19.6046 3.5 18.5Z" fill="#808080"/>
<path fill-rule="evenodd" clip-rule="evenodd" d="M5.5 2.5L15.5 2.5V18.5H5.5V2.5ZM3.5 2.5V18.5C3.5 19.6046 4.39543 20.5 5.5 20.5H15.5C16.6046 20.5 17.5 19.6046 17.5 18.5V2.5C17.5 1.39543 16.6046 0.5 15.5 0.5H5.5C4.39543 0.5 3.5 1.39543 3.5 2.5Z" fill="#808080"/>
<path fill-rule="evenodd" clip-rule="evenodd" d="M5.5 2.5L15.5 2.5V18.5H5.5V2.5ZM3.5 2.5V18.5C3.5 19.6046 4.39543 20.5 5.5 20.5H15.5C16.6046 20.5 17.5 19.6046 17.5 18.5V2.5C17.5 1.39543 16.6046 0.5 15.5 0.5H5.5C4.39543 0.5 3.5 1.39543 3.5 2.5Z" fill="#808080"/>
<path fill-rule="evenodd" clip-rule="evenodd" d="M5.5 2.5L15.5 2.5V18.5H5.5V2.5ZM3.5 18.5V2.5C3.5 1.39543 4.39543 0.5 5.5 0.5H15.5C16.6046 0.5 17.5 1.39543 17.5 2.5V18.5C17.5 19.6046 16.6046 20.5 15.5 20.5H5.5C4.39543 20.5 3.5 19.6046 3.5 18.5Z" fill="#808080"/>
<path fill-rule="evenodd" clip-rule="evenodd" d="M5.5 2.5L15.5 2.5V18.5H5.5V2.5ZM3.5 2.5V18.5C3.5 19.6046 4.39543 20.5 5.5 20.5H15.5C16.6046 20.5 17.5 19.6046 17.5 18.5V2.5C17.5 1.39543 16.6046 0.5 15.5 0.5H5.5C4.39543 0.5 3.5 1.39543 3.5 2.5Z" fill="#808080"/>
<path fill-rule="evenodd" clip-rule="evenodd" d="M5.5 2.5L15.5 2.5V18.5H5.5V2.5ZM3.5 18.5V2.5C3.5 1.39543 4.39543 0.5 5.5 0.5H15.5C16.6046 0.5 17.5 1.39543 17.5 2.5V18.5C17.5 19.6046 16.6046 20.5 15.5 20.5H5.5C4.39543 20.5 3.5 19.6046 3.5 18.5Z" fill="#808080"/>
<path fill-rule="evenodd" clip-rule="evenodd" d="M5.5 2.5L15.5 2.5V18.5H5.5V2.5ZM3.5 18.5V2.5C3.5 1.39543 4.39543 0.5 5.5 0.5H15.5C16.6046 0.5 17.5 1.39543 17.5 2.5V18.5C17.5 19.6046 16.6046 20.5 15.5 20.5H5.5C4.39543 20.5 3.5 19.6046 3.5 18.5Z" fill="#808080"/>
<path fill-rule="evenodd" clip-rule="evenodd" d="M5.5 2.5L15.5 2.5V18.5H5.5V2.5ZM3.5 2.5V18.5C3.5 19.6046 4.39543 20.5 5.5 20.5H15.5C16.6046 20.5 17.5 19.6046 17.5 18.5V2.5C17.5 1.39543 16.6046 0.5 15.5 0.5H5.5C4.39543 0.5 3.5 1.39543 3.5 2.5Z" fill="#808080"/>
<path fill-rule="evenodd" clip-rule="evenodd" d="M5.5 2.5L15.5 2.5V18.5H5.5V2.5ZM3.5 2.5V18.5C3.5 19.6046 4.39543 20.5 5.5 20.5H15.5C16.6046 20.5 17.5 19.6046 17.5 18.5V2.5C17.5 1.39543 16.6046 0.5 15.5 0.5H5.5C4.39543 0.5 3.5 1.39543 3.5 2.5Z" fill="#808080"/>
<path fill-rule="evenodd" clip-rule="evenodd" d="M5.5 2.5L15.5 2.5V18.5H5.5V2.5ZM3.5 18.5V2.5C3.5 1.39543 4.39543 0.5 5.5 0.5H15.5C16.6046 0.5 17.5 1.39543 17.5 2.5V18.5C17.5 19.6046 16.6046 20.5 15.5 20.5H5.5C4.39543 20.5 3.5 19.6046 3.5 18.5Z" fill="#808080"/>
<path fill-rule="evenodd" clip-rule="evenodd" d="M5.5 2.5L15.5 2.5V18.5H5.5V2.5ZM3.5 18.5V2.5C3.5 1.39543 4.39543 0.5 5.5 0.5H15.5C16.6046 0.5 17.5 1.39543 17.5 2.5V18.5C17.5 19.6046 16.6046 20.5 15.5 20.5H5.5C4.39543 20.5 3.5 19.6046 3.5 18.5Z" fill="#808080"/>
<path fill-rule="evenodd" clip-rule="evenodd" d="M5.5 2.5L15.5 2.5V18.5H5.5V2.5ZM3.5 2.5V18.5C3.5 19.6046 4.39543 20.5 5.5 20.5H15.5C16.6046 20.5 17.5 19.6046 17.5 18.5V2.5C17.5 1.39543 16.6046 0.5 15.5 0.5H5.5C4.39543 0.5 3.5 1.39543 3.5 2.5Z" fill="#808080"/>
<path fill-rule="evenodd" clip-rule="evenodd" d="M5.5 2.5L15.5 2.5V18.5H5.5V2.5ZM3.5 18.5V2.5C3.5 1.39543 4.39543 0.5 5.5 0.5H15.5C16.6046 0.5 17.5 1.39543 17.5 2.5V18.5C17.5 19.6046 16.6046 20.5 15.5 20.5H5.5C4.39543 20.5 3.5 19.6046 3.5 18.5Z" fill="#808080"/>
<path fill-rule="evenodd" clip-rule="evenodd" d="M5.5 2.5L15.5 2.5V18.5H5.5V2.5ZM3.5 2.5V18.5C3.5 19.6046 4.39543 20.5 5.5 20.5H15.5C16.6046 20.5 17.5 19.6046 17.5 18.5V2.5C17.5 1.39543 16.6046 0.5 15.5 0.5H5.5C4.39543 0.5 3.5 1.39543 3.5 2.5Z" fill="#808080"/>
<path fill-rule="evenodd" clip-rule="evenodd" d="M5.5 2.5L15.5 2.5V18.5H5.5V2.5ZM3.5 2.5V18.5C3.5 19.6046 4.39543 20.5 5.5 20.5H15.5C16.6046 20.5 17.5 19.6046 17.5 18.5V2.5C17.5 1.39543 16.6046 0.5 15.5 0.5H5.5C4.39543 0.5 3.5 1.39543 3.5 2.5Z" fill="#808080"/>
<path fill-rule="evenodd" clip-rule="evenodd" d="M5.5 2.5L15.5 2.5V18.5H5.5V2.5ZM3.5 18.5V2.5C3.5 1.39543 4.39543 0.5 5.5 0.5H15.5C16.6046 0.5 17.5 1.39543 17.5 2.5V18.5C17.5 19.6046 16.6046 20.5 15.5 20.5H5.5C4.39543 20.5 3.5 19.6046 3.5 18.5Z" fill="#808080"/>
<path fill-rule="evenodd" clip-rule="evenodd" d="M15.5 2.5V18.5H5.5V2.5L15.5 2.5ZM3.5 2.5V18.5C3.5 19.6046 4.39543 20.5 5.5 20.5H15.5C16.6046 20.5 17.5 19.6046 17.5 18.5V2.5C17.5 1.39543 16.6046 0.5 15.5 0.5H5.5C4.39543 0.5 3.5 1.39543 3.5 2.5Z" fill="#808080"/>
<path fill-rule="evenodd" clip-rule="evenodd" d="M5.5 2.5L15.5 2.5V18.5H5.5V2.5ZM3.5 18.5V2.5C3.5 1.39543 4.39543 0.5 5.5 0.5H15.5C16.6046 0.5 17.5 1.39543 17.5 2.5V18.5C17.5 19.6046 16.6046 20.5 15.5 20.5H5.5C4.39543 20.5 3.5 19.6046 3.5 18.5Z" fill="#808080"/>
<path fill-rule="evenodd" clip-rule="evenodd" d="M5.5 2.5L15.5 2.5V18.5H5.5V2.5ZM3.5 18.5V2.5C3.5 1.39543 4.39543 0.5 5.5 0.5H15.5C16.6046 0.5 17.5 1.39543 17.5 2.5V18.5C17.5 19.6046 16.6046 20.5 15.5 20.5H5.5C4.39543 20.5 3.5 19.6046 3.5 18.5Z" fill="#808080"/>
<path fill-rule="evenodd" clip-rule="evenodd" d="M5.5 2.5L15.5 2.5V18.5H5.5V2.5ZM3.5 2.5V18.5C3.5 19.6046 4.39543 20.5 5.5 20.5H15.5C16.6046 20.5 17.5 19.6046 17.5 18.5V2.5C17.5 1.39543 16.6046 0.5 15.5 0.5H5.5C4.39543 0.5 3.5 1.39543 3.5 2.5Z" fill="#808080"/>
<path fill-rule="evenodd" clip-rule="evenodd" d="M5.5 2.5L15.5 2.5V18.5H5.5V2.5ZM3.5 18.5V2.5C3.5 1.39543 4.39543 0.5 5.5 0.5H15.5C16.6046 0.5 17.5 1.39543 17.5 2.5V18.5C17.5 19.6046 16.6046 20.5 15.5 20.5H5.5C4.39543 20.5 3.5 19.6046 3.5 18.5Z" fill="#808080"/>
<path fill-rule="evenodd" clip-rule="evenodd" d="M5.5 2.5L15.5 2.5V18.5H5.5V2.5ZM3.5 2.5V18.5C3.5 19.6046 4.39543 20.5 5.5 20.5H15.5C16.6046 20.5 17.5 19.6046 17.5 18.5V2.5C17.5 1.39543 16.6046 0.5 15.5 0.5H5.5C4.39543 0.5 3.5 1.39543 3.5 2.5Z" fill="#808080"/>
<path fill-rule="evenodd" clip-rule="evenodd" d="M5.5 2.5L15.5 2.5V18.5H5.5V2.5ZM3.5 2.5V18.5C3.5 19.6046 4.39543 20.5 5.5 20.5H15.5C16.6046 20.5 17.5 19.6046 17.5 18.5V2.5C17.5 1.39543 16.6046 0.5 15.5 0.5H5.5C4.39543 0.5 3.5 1.39543 3.5 2.5Z" fill="#808080"/>
<path fill-rule="evenodd" clip-rule="evenodd" d="M5.5 2.5L15.5 2.5V18.5H5.5V2.5ZM3.5 18.5V2.5C3.5 1.39543 4.39543 0.5 5.5 0.5H15.5C16.6046 0.5 17.5 1.39543 17.5 2.5V18.5C17.5 19.6046 16.6046 20.5 15.5 20.5H5.5C4.39543 20.5 3.5 19.6046 3.5 18.5Z" fill="#808080"/>
<path fill-rule="evenodd" clip-rule="evenodd" d="M5.5 2.5L15.5 2.5V18.5H5.5V2.5ZM3.5 18.5V2.5C3.5 1.39543 4.39543 0.5 5.5 0.5H15.5C16.6046 0.5 17.5 1.39543 17.5 2.5V18.5C17.5 19.6046 16.6046 20.5 15.5 20.5H5.5C4.39543 20.5 3.5 19.6046 3.5 18.5Z" fill="#808080"/>
<path fill-rule="evenodd" clip-rule="evenodd" d="M5.5 2.5L15.5 2.5V18.5H5.5V2.5ZM3.5 2.5V18.5C3.5 19.6046 4.39543 20.5 5.5 20.5H15.5C16.6046 20.5 17.5 19.6046 17.5 18.5V2.5C17.5 1.39543 16.6046 0.5 15.5 0.5H5.5C4.39543 0.5 3.5 1.39543 3.5 2.5Z" fill="#808080"/>
<path fill-rule="evenodd" clip-rule="evenodd" d="M5.5 2.5L15.5 2.5V18.5H5.5V2.5ZM3.5 2.5V18.5C3.5 19.6046 4.39543 20.5 5.5 20.5H15.5C16.6046 20.5 17.5 19.6046 17.5 18.5V2.5C17.5 1.39543 16.6046 0.5 15.5 0.5H5.5C4.39543 0.5 3.5 1.39543 3.5 2.5Z" fill="#808080"/>
<path fill-rule="evenodd" clip-rule="evenodd" d="M5.5 2.5L15.5 2.5V18.5H5.5V2.5ZM3.5 18.5V2.5C3.5 1.39543 4.39543 0.5 5.5 0.5H15.5C16.6046 0.5 17.5 1.39543 17.5 2.5V18.5C17.5 19.6046 16.6046 20.5 15.5 20.5H5.5C4.39543 20.5 3.5 19.6046 3.5 18.5Z" fill="#808080"/>
<path fill-rule="evenodd" clip-rule="evenodd" d="M5.5 2.5L15.5 2.5V18.5H5.5V2.5ZM3.5 2.5V18.5C3.5 19.6046 4.39543 20.5 5.5 20.5H15.5C16.6046 20.5 17.5 19.6046 17.5 18.5V2.5C17.5 1.39543 16.6046 0.5 15.5 0.5H5.5C4.39543 0.5 3.5 1.39543 3.5 2.5Z" fill="#808080"/>
<path fill-rule="evenodd" clip-rule="evenodd" d="M5.5 2.5L15.5 2.5V18.5H5.5V2.5ZM3.5 18.5V2.5C3.5 1.39543 4.39543 0.5 5.5 0.5H15.5C16.6046 0.5 17.5 1.39543 17.5 2.5V18.5C17.5 19.6046 16.6046 20.5 15.5 20.5H5.5C4.39543 20.5 3.5 19.6046 3.5 18.5Z" fill="#808080"/>
<path fill-rule="evenodd" clip-rule="evenodd" d="M5.5 2.5L15.5 2.5V18.5H5.5V2.5ZM3.5 18.5V2.5C3.5 1.39543 4.39543 0.5 5.5 0.5H15.5C16.6046 0.5 17.5 1.39543 17.5 2.5V18.5C17.5 19.6046 16.6046 20.5 15.5 20.5H5.5C4.39543 20.5 3.5 19.6046 3.5 18.5Z" fill="#808080"/>
<path fill-rule="evenodd" clip-rule="evenodd" d="M5.5 2.5L15.5 2.5V18.5H5.5V2.5ZM3.5 2.5V18.5C3.5 19.6046 4.39543 20.5 5.5 20.5H15.5C16.6046 20.5 17.5 19.6046 17.5 18.5V2.5C17.5 1.39543 16.6046 0.5 15.5 0.5H5.5C4.39543 0.5 3.5 1.39543 3.5 2.5Z" fill="#808080"/>
<path fill-rule="evenodd" clip-rule="evenodd" d="M5.5 2.5L15.5 2.5V18.5H5.5V2.5ZM3.5 18.5V2.5C3.5 1.39543 4.39543 0.5 5.5 0.5H15.5C16.6046 0.5 17.5 1.39543 17.5 2.5V18.5C17.5 19.6046 16.6046 20.5 15.5 20.5H5.5C4.39543 20.5 3.5 19.6046 3.5 18.5Z" fill="#808080"/>
<path fill-rule="evenodd" clip-rule="evenodd" d="M5.5 2.5L15.5 2.5V18.5H5.5V2.5ZM3.5 2.5V18.5C3.5 19.6046 4.39543 20.5 5.5 20.5H15.5C16.6046 20.5 17.5 19.6046 17.5 18.5V2.5C17.5 1.39543 16.6046 0.5 15.5 0.5H5.5C4.39543 0.5 3.5 1.39543 3.5 2.5Z" fill="#808080"/>
<path fill-rule="evenodd" clip-rule="evenodd" d="M5.5 2.5L15.5 2.5V18.5H5.5V2.5ZM3.5 2.5V18.5C3.5 19.6046 4.39543 20.5 5.5 20.5H15.5C16.6046 20.5 17.5 19.6046 17.5 18.5V2.5C17.5 1.39543 16.6046 0.5 15.5 0.5H5.5C4.39543 0.5 3.5 1.39543 3.5 2.5Z" fill="#808080"/>
<path fill-rule="evenodd" clip-rule="evenodd" d="M5.5 2.5L15.5 2.5V18.5H5.5V2.5ZM3.5 18.5V2.5C3.5 1.39543 4.39543 0.5 5.5 0.5H15.5C16.6046 0.5 17.5 1.39543 17.5 2.5V18.5C17.5 19.6046 16.6046 20.5 15.5 20.5H5.5C4.39543 20.5 3.5 19.6046 3.5 18.5Z" fill="#808080"/>
<path fill-rule="evenodd" clip-rule="evenodd" d="M5.5 2.5L15.5 2.5V18.5H5.5V2.5ZM3.5 2.5V18.5C3.5 19.6046 4.39543 20.5 5.5 20.5H15.5C16.6046 20.5 17.5 19.6046 17.5 18.5V2.5C17.5 1.39543 16.6046 0.5 15.5 0.5H5.5C4.39543 0.5 3.5 1.39543 3.5 2.5Z" fill="#808080"/>
<path fill-rule="evenodd" clip-rule="evenodd" d="M5.5 2.5L15.5 2.5V18.5H5.5V2.5ZM3.5 18.5V2.5C3.5 1.39543 4.39543 0.5 5.5 0.5H15.5C16.6046 0.5 17.5 1.39543 17.5 2.5V18.5C17.5 19.6046 16.6046 20.5 15.5 20.5H5.5C4.39543 20.5 3.5 19.6046 3.5 18.5Z" fill="#808080"/>
<path fill-rule="evenodd" clip-rule="evenodd" d="M5.5 2.5L15.5 2.5V18.5H5.5V2.5ZM3.5 18.5V2.5C3.5 1.39543 4.39543 0.5 5.5 0.5H15.5C16.6046 0.5 17.5 1.39543 17.5 2.5V18.5C17.5 19.6046 16.6046 20.5 15.5 20.5H5.5C4.39543 20.5 3.5 19.6046 3.5 18.5Z" fill="#808080"/>
<path fill-rule="evenodd" clip-rule="evenodd" d="M5.5 2.5L15.5 2.5V18.5H5.5V2.5ZM3.5 2.5V18.5C3.5 19.6046 4.39543 20.5 5.5 20.5H15.5C16.6046 20.5 17.5 19.6046 17.5 18.5V2.5C17.5 1.39543 16.6046 0.5 15.5 0.5H5.5C4.39543 0.5 3.5 1.39543 3.5 2.5Z" fill="#808080"/>
<path fill-rule="evenodd" clip-rule="evenodd" d="M5.5 2.5L15.5 2.5V18.5H5.5V2.5ZM3.5 2.5V18.5C3.5 19.6046 4.39543 20.5 5.5 20.5H15.5C16.6046 20.5 17.5 19.6046 17.5 18.5V2.5C17.5 1.39543 16.6046 0.5 15.5 0.5H5.5C4.39543 0.5 3.5 1.39543 3.5 2.5Z" fill="#808080"/>
<path fill-rule="evenodd" clip-rule="evenodd" d="M5.5 2.5L15.5 2.5V18.5H5.5V2.5ZM3.5 18.5V2.5C3.5 1.39543 4.39543 0.5 5.5 0.5H15.5C16.6046 0.5 17.5 1.39543 17.5 2.5V18.5C17.5 19.6046 16.6046 20.5 15.5 20.5H5.5C4.39543 20.5 3.5 19.6046 3.5 18.5Z" fill="#808080"/>
<path fill-rule="evenodd" clip-rule="evenodd" d="M5.5 2.5L15.5 2.5V18.5H5.5V2.5ZM3.5 18.5V2.5C3.5 1.39543 4.39543 0.5 5.5 0.5H15.5C16.6046 0.5 17.5 1.39543 17.5 2.5V18.5C17.5 19.6046 16.6046 20.5 15.5 20.5H5.5C4.39543 20.5 3.5 19.6046 3.5 18.5Z" fill="#808080"/>
<path fill-rule="evenodd" clip-rule="evenodd" d="M5.5 2.5L15.5 2.5V18.5H5.5V2.5ZM3.5 2.5V18.5C3.5 19.6046 4.39543 20.5 5.5 20.5H15.5C16.6046 20.5 17.5 19.6046 17.5 18.5V2.5C17.5 1.39543 16.6046 0.5 15.5 0.5H5.5C4.39543 0.5 3.5 1.39543 3.5 2.5Z" fill="#808080"/>
<path fill-rule="evenodd" clip-rule="evenodd" d="M5.5 2.5L15.5 2.5V18.5H5.5V2.5ZM3.5 18.5V2.5C3.5 1.39543 4.39543 0.5 5.5 0.5H15.5C16.6046 0.5 17.5 1.39543 17.5 2.5V18.5C17.5 19.6046 16.6046 20.5 15.5 20.5H5.5C4.39543 20.5 3.5 19.6046 3.5 18.5Z" fill="#808080"/>
<path fill-rule="evenodd" clip-rule="evenodd" d="M5.5 2.5L15.5 2.5V18.5H5.5V2.5ZM3.5 2.5V18.5C3.5 19.6046 4.39543 20.5 5.5 20.5H15.5C16.6046 20.5 17.5 19.6046 17.5 18.5V2.5C17.5 1.39543 16.6046 0.5 15.5 0.5H5.5C4.39543 0.5 3.5 1.39543 3.5 2.5Z" fill="#808080"/>
<path fill-rule="evenodd" clip-rule="evenodd" d="M5.5 2.5L15.5 2.5V18.5H5.5V2.5ZM3.5 2.5V18.5C3.5 19.6046 4.39543 20.5 5.5 20.5H15.5C16.6046 20.5 17.5 19.6046 17.5 18.5V2.5C17.5 1.39543 16.6046 0.5 15.5 0.5H5.5C4.39543 0.5 3.5 1.39543 3.5 2.5Z" fill="#808080"/>
<path fill-rule="evenodd" clip-rule="evenodd" d="M5.5 2.5L15.5 2.5V18.5H5.5V2.5ZM3.5 18.5V2.5C3.5 1.39543 4.39543 0.5 5.5 0.5H15.5C16.6046 0.5 17.5 1.39543 17.5 2.5V18.5C17.5 19.6046 16.6046 20.5 15.5 20.5H5.5C4.39543 20.5 3.5 19.6046 3.5 18.5Z" fill="#808080"/>
<path fill-rule="evenodd" clip-rule="evenodd" d="M5.5 2.5L15.5 2.5V18.5H5.5V2.5ZM3.5 18.5V2.5C3.5 1.39543 4.39543 0.5 5.5 0.5H15.5C16.6046 0.5 17.5 1.39543 17.5 2.5V18.5C17.5 19.6046 16.6046 20.5 15.5 20.5H5.5C4.39543 20.5 3.5 19.6046 3.5 18.5Z" fill="#808080"/>
<path fill-rule="evenodd" clip-rule="evenodd" d="M5.5 2.5L15.5 2.5V18.5H5.5V2.5ZM3.5 2.5V18.5C3.5 19.6046 4.39543 20.5 5.5 20.5H15.5C16.6046 20.5 17.5 19.6046 17.5 18.5V2.5C17.5 1.39543 16.6046 0.5 15.5 0.5H5.5C4.39543 0.5 3.5 1.39543 3.5 2.5Z" fill="#808080"/>
<path fill-rule="evenodd" clip-rule="evenodd" d="M5.5 2.5L15.5 2.5V18.5H5.5V2.5ZM3.5 2.5V18.5C3.5 19.6046 4.39543 20.5 5.5 20.5H15.5C16.6046 20.5 17.5 19.6046 17.5 18.5V2.5C17.5 1.39543 16.6046 0.5 15.5 0.5H5.5C4.39543 0.5 3.5 1.39543 3.5 2.5Z" fill="#808080"/>
<path fill-rule="evenodd" clip-rule="evenodd" d="M5.5 2.5L15.5 2.5V18.5H5.5V2.5ZM3.5 18.5V2.5C3.5 1.39543 4.39543 0.5 5.5 0.5H15.5C16.6046 0.5 17.5 1.39543 17.5 2.5V18.5C17.5 19.6046 16.6046 20.5 15.5 20.5H5.5C4.39543 20.5 3.5 19.6046 3.5 18.5Z" fill="#808080"/>
<path fill-rule="evenodd" clip-rule="evenodd" d="M5.5 2.5L15.5 2.5V18.5H5.5V2.5ZM3.5 2.5V18.5C3.5 19.6046 4.39543 20.5 5.5 20.5H15.5C16.6046 20.5 17.5 19.6046 17.5 18.5V2.5C17.5 1.39543 16.6046 0.5 15.5 0.5H5.5C4.39543 0.5 3.5 1.39543 3.5 2.5Z" fill="#808080"/>
<path fill-rule="evenodd" clip-rule="evenodd" d="M5.5 2.5L15.5 2.5V18.5H5.5V2.5ZM3.5 18.5V2.5C3.5 1.39543 4.39543 0.5 5.5 0.5H15.5C16.6046 0.5 17.5 1.39543 17.5 2.5V18.5C17.5 19.6046 16.6046 20.5 15.5 20.5H5.5C4.39543 20.5 3.5 19.6046 3.5 18.5Z" fill="#808080"/>
<path fill-rule="evenodd" clip-rule="evenodd" d="M5.5 2.5L15.5 2.5V18.5H5.5V2.5ZM3.5 18.5V2.5C3.5 1.39543 4.39543 0.5 5.5 0.5H15.5C16.6046 0.5 17.5 1.39543 17.5 2.5V18.5C17.5 19.6046 16.6046 20.5 15.5 20.5H5.5C4.39543 20.5 3.5 19.6046 3.5 18.5Z" fill="#808080"/>
<path fill-rule="evenodd" clip-rule="evenodd" d="M5.5 2.5L15.5 2.5V18.5H5.5V2.5ZM3.5 2.5V18.5C3.5 19.6046 4.39543 20.5 5.5 20.5H15.5C16.6046 20.5 17.5 19.6046 17.5 18.5V2.5C17.5 1.39543 16.6046 0.5 15.5 0.5H5.5C4.39543 0.5 3.5 1.39543 3.5 2.5Z" fill="#808080"/>
<path fill-rule="evenodd" clip-rule="evenodd" d="M5.5 2.5L15.5 2.5V18.5H5.5V2.5ZM3.5 2.5V18.5C3.5 19.6046 4.39543 20.5 5.5 20.5H15.5C16.6046 20.5 17.5 19.6046 17.5 18.5V2.5C17.5 1.39543 16.6046 0.5 15.5 0.5H5.5C4.39543 0.5 3.5 1.39543 3.5 2.5Z" fill="#808080"/>
<path fill-rule="evenodd" clip-rule="evenodd" d="M5.5 2.5L15.5 2.5V18.5H5.5V2.5ZM3.5 18.5V2.5C3.5 1.39543 4.39543 0.5 5.5 0.5H15.5C16.6046 0.5 17.5 1.39543 17.5 2.5V18.5C17.5 19.6046 16.6046 20.5 15.5 20.5H5.5C4.39543 20.5 3.5 19.6046 3.5 18.5Z" fill="#808080"/>
<path fill-rule="evenodd" clip-rule="evenodd" d="M5.5 2.5L15.5 2.5V18.5H5.5V2.5ZM3.5 18.5V2.5C3.5 1.39543 4.39543 0.5 5.5 0.5H15.5C16.6046 0.5 17.5 1.39543 17.5 2.5V18.5C17.5 19.6046 16.6046 20.5 15.5 20.5H5.5C4.39543 20.5 3.5 19.6046 3.5 18.5Z" fill="#808080"/>
<path fill-rule="evenodd" clip-rule="evenodd" d="M5.5 2.5L15.5 2.5V18.5H5.5V2.5ZM3.5 2.5V18.5C3.5 19.6046 4.39543 20.5 5.5 20.5H15.5C16.6046 20.5 17.5 19.6046 17.5 18.5V2.5C17.5 1.39543 16.6046 0.5 15.5 0.5H5.5C4.39543 0.5 3.5 1.39543 3.5 2.5Z" fill="#808080"/>
<path fill-rule="evenodd" clip-rule="evenodd" d="M5.5 2.5L15.5 2.5V18.5H5.5V2.5ZM3.5 18.5V2.5C3.5 1.39543 4.39543 0.5 5.5 0.5H15.5C16.6046 0.5 17.5 1.39543 17.5 2.5V18.5C17.5 19.6046 16.6046 20.5 15.5 20.5H5.5C4.39543 20.5 3.5 19.6046 3.5 18.5Z" fill="#808080"/>
<path fill-rule="evenodd" clip-rule="evenodd" d="M5.5 2.5L15.5 2.5V18.5H5.5V2.5ZM3.5 2.5V18.5C3.5 19.6046 4.39543 20.5 5.5 20.5H15.5C16.6046 20.5 17.5 19.6046 17.5 18.5V2.5C17.5 1.39543 16.6046 0.5 15.5 0.5H5.5C4.39543 0.5 3.5 1.39543 3.5 2.5Z" fill="#808080"/>
<path fill-rule="evenodd" clip-rule="evenodd" d="M5.5 2.5L15.5 2.5V18.5H5.5V2.5ZM3.5 2.5V18.5C3.5 19.6046 4.39543 20.5 5.5 20.5H15.5C16.6046 20.5 17.5 19.6046 17.5 18.5V2.5C17.5 1.39543 16.6046 0.5 15.5 0.5H5.5C4.39543 0.5 3.5 1.39543 3.5 2.5Z" fill="#808080"/>
<path fill-rule="evenodd" clip-rule="evenodd" d="M5.5 2.5L15.5 2.5V18.5H5.5V2.5ZM3.5 18.5V2.5C3.5 1.39543 4.39543 0.5 5.5 0.5H15.5C16.6046 0.5 17.5 1.39543 17.5 2.5V18.5C17.5 19.6046 16.6046 20.5 15.5 20.5H5.5C4.39543 20.5 3.5 19.6046 3.5 18.5Z" fill="#808080"/>
<path fill-rule="evenodd" clip-rule="evenodd" d="M5.5 2.5L15.5 2.5V18.5H5.5V2.5ZM3.5 2.5V18.5C3.5 19.6046 4.39543 20.5 5.5 20.5H15.5C16.6046 20.5 17.5 19.6046 17.5 18.5V2.5C17.5 1.39543 16.6046 0.5 15.5 0.5H5.5C4.39543 0.5 3.5 1.39543 3.5 2.5Z" fill="#808080"/>
<path fill-rule="evenodd" clip-rule="evenodd" d="M5.5 2.5L15.5 2.5V18.5H5.5V2.5ZM3.5 18.5V2.5C3.5 1.39543 4.39543 0.5 5.5 0.5H15.5C16.6046 0.5 17.5 1.39543 17.5 2.5V18.5C17.5 19.6046 16.6046 20.5 15.5 20.5H5.5C4.39543 20.5 3.5 19.6046 3.5 18.5Z" fill="#808080"/>
<path fill-rule="evenodd" clip-rule="evenodd" d="M5.5 2.5L15.5 2.5V18.5H5.5V2.5ZM3.5 18.5V2.5C3.5 1.39543 4.39543 0.5 5.5 0.5H15.5C16.6046 0.5 17.5 1.39543 17.5 2.5V18.5C17.5 19.6046 16.6046 20.5 15.5 20.5H5.5C4.39543 20.5 3.5 19.6046 3.5 18.5Z" fill="#808080"/>
<path fill-rule="evenodd" clip-rule="evenodd" d="M5.5 2.5L15.5 2.5V18.5H5.5V2.5ZM3.5 2.5V18.5C3.5 19.6046 4.39543 20.5 5.5 20.5H15.5C16.6046 20.5 17.5 19.6046 17.5 18.5V2.5C17.5 1.39543 16.6046 0.5 15.5 0.5H5.5C4.39543 0.5 3.5 1.39543 3.5 2.5Z" fill="#808080"/>
<path fill-rule="evenodd" clip-rule="evenodd" d="M5.5 2.5L15.5 2.5V18.5H5.5V2.5ZM3.5 18.5V2.5C3.5 1.39543 4.39543 0.5 5.5 0.5H15.5C16.6046 0.5 17.5 1.39543 17.5 2.5V18.5C17.5 19.6046 16.6046 20.5 15.5 20.5H5.5C4.39543 20.5 3.5 19.6046 3.5 18.5Z" fill="#808080"/>
<path fill-rule="evenodd" clip-rule="evenodd" d="M5.5 2.5L15.5 2.5V18.5H5.5V2.5ZM3.5 2.5V18.5C3.5 19.6046 4.39543 20.5 5.5 20.5H15.5C16.6046 20.5 17.5 19.6046 17.5 18.5V2.5C17.5 1.39543 16.6046 0.5 15.5 0.5H5.5C4.39543 0.5 3.5 1.39543 3.5 2.5Z" fill="#808080"/>
<path fill-rule="evenodd" clip-rule="evenodd" d="M5.5 2.5L15.5 2.5V18.5H5.5V2.5ZM3.5 2.5V18.5C3.5 19.6046 4.39543 20.5 5.5 20.5H15.5C16.6046 20.5 17.5 19.6046 17.5 18.5V2.5C17.5 1.39543 16.6046 0.5 15.5 0.5H5.5C4.39543 0.5 3.5 1.39543 3.5 2.5Z" fill="#808080"/>
<path fill-rule="evenodd" clip-rule="evenodd" d="M5.5 2.5L15.5 2.5V18.5H5.5V2.5ZM3.5 18.5V2.5C3.5 1.39543 4.39543 0.5 5.5 0.5H15.5C16.6046 0.5 17.5 1.39543 17.5 2.5V18.5C17.5 19.6046 16.6046 20.5 15.5 20.5H5.5C4.39543 20.5 3.5 19.6046 3.5 18.5Z" fill="#808080"/>
<path fill-rule="evenodd" clip-rule="evenodd" d="M5.5 2.5L15.5 2.5V18.5H5.5V2.5ZM3.5 18.5V2.5C3.5 1.39543 4.39543 0.5 5.5 0.5H15.5C16.6046 0.5 17.5 1.39543 17.5 2.5V18.5C17.5 19.6046 16.6046 20.5 15.5 20.5H5.5C4.39543 20.5 3.5 19.6046 3.5 18.5Z" fill="#808080"/>
<path fill-rule="evenodd" clip-rule="evenodd" d="M5.5 2.5L15.5 2.5V18.5H5.5V2.5ZM3.5 2.5V18.5C3.5 19.6046 4.39543 20.5 5.5 20.5H15.5C16.6046 20.5 17.5 19.6046 17.5 18.5V2.5C17.5 1.39543 16.6046 0.5 15.5 0.5H5.5C4.39543 0.5 3.5 1.39543 3.5 2.5Z" fill="#808080"/>
<path fill-rule="evenodd" clip-rule="evenodd" d="M5.5 2.5L15.5 2.5V18.5H5.5V2.5ZM3.5 2.5V18.5C3.5 19.6046 4.39543 20.5 5.5 20.5H15.5C16.6046 20.5 17.5 19.6046 17.5 18.5V2.5C17.5 1.39543 16.6046 0.5 15.5 0.5H5.5C4.39543 0.5 3.5 1.39543 3.5 2.5Z" fill="#808080"/>
<path fill-rule="evenodd" clip-rule="evenodd" d="M5.5 2.5L15.5 2.5V18.5H5.5V2.5ZM3.5 18.5V2.5C3.5 1.39543 4.39543 0.5 5.5 0.5H15.5C16.6046 0.5 17.5 1.39543 17.5 2.5V18.5C17.5 19.6046 16.6046 20.5 15.5 20.5H5.5C4.39543 20.5 3.5 19.6046 3.5 18.5Z" fill="#808080"/>
<path fill-rule="evenodd" clip-rule="evenodd" d="M5.5 2.5L15.5 2.5V18.5H5.5V2.5ZM3.5 2.5V18.5C3.5 19.6046 4.39543 20.5 5.5 20.5H15.5C16.6046 20.5 17.5 19.6046 17.5 18.5V2.5C17.5 1.39543 16.6046 0.5 15.5 0.5H5.5C4.39543 0.5 3.5 1.39543 3.5 2.5Z" fill="#808080"/>
<path fill-rule="evenodd" clip-rule="evenodd" d="M5.5 2.5L15.5 2.5V18.5H5.5V2.5ZM3.5 18.5V2.5C3.5 1.39543 4.39543 0.5 5.5 0.5H15.5C16.6046 0.5 17.5 1.39543 17.5 2.5V18.5C17.5 19.6046 16.6046 20.5 15.5 20.5H5.5C4.39543 20.5 3.5 19.6046 3.5 18.5Z" fill="#808080"/>
<path fill-rule="evenodd" clip-rule="evenodd" d="M5.5 2.5L15.5 2.5V18.5H5.5V2.5ZM3.5 18.5V2.5C3.5 1.39543 4.39543 0.5 5.5 0.5H15.5C16.6046 0.5 17.5 1.39543 17.5 2.5V18.5C17.5 19.6046 16.6046 20.5 15.5 20.5H5.5C4.39543 20.5 3.5 19.6046 3.5 18.5Z" fill="#808080"/>
<path fill-rule="evenodd" clip-rule="evenodd" d="M5.5 2.5L15.5 2.5V18.5H5.5V2.5ZM3.5 2.5V18.5C3.5 19.6046 4.39543 20.5 5.5 20.5H15.5C16.6046 20.5 17.5 19.6046 17.5 18.5V2.5C17.5 1.39543 16.6046 0.5 15.5 0.5H5.5C4.39543 0.5 3.5 1.39543 3.5 2.5Z" fill="#808080"/>
<path d="M7 10.5V12.5C7 12.7761 7.22386 13 7.5 13H9.5C9.77614 13 10 12.7761 10 12.5V10.5C10 10.2239 9.77614 10 9.5 10H7.5C7.22386 10 7 10.2239 7 10.5Z" fill="#808080"/>
<path d="M11 10.5V12.5C11 12.7761 11.2239 13 11.5 13H13.5C13.7761 13 14 12.7761 14 12.5V10.5C14 10.2239 13.7761 10 13.5 10H11.5C11.2239 10 11 10.2239 11 10.5Z" fill="#808080"/>
<path d="M7 14.5V16.5C7 16.7761 7.22386 17 7.5 17H9.5C9.77614 17 10 16.7761 10 16.5V14.5C10 14.2239 9.77614 14 9.5 14H7.5C7.22386 14 7 14.2239 7 14.5Z" fill="#808080"/>
<path d="M11 14.5V16.5C11 16.7761 11.2239 17 11.5 17H13.5C13.7761 17 14 16.7761 14 16.5V14.5C14 14.2239 13.7761 14 13.5 14H11.5C11.2239 14 11 14.2239 11 14.5Z" fill="#808080"/>
<path d="M6.5 19.5H11.5V23.5H7.5C6.94772 23.5 6.5 23.0523 6.5 22.5V19.5Z" fill="#808080"/>
<path d="M12.5 19.5H14.5V22.5C14.5 23.0523 14.0523 23.5 13.5 23.5H12.5V19.5Z" fill="#808080"/>
<rect x="5" y="6.5" width="12" height="2" fill="#808080"/>
<rect x="18.5" y="3" width="2" height="16" fill="#808080"/>
</svg>
