<svg width="24" height="24" viewBox="0 0 24 24" fill="none" xmlns="http://www.w3.org/2000/svg">
<path d="M8.5 14.5001L8.50001 15.5001H15.5L15.5 14.4999L8.5 14.5001Z" fill="#666666"/>
<path d="M8.50001 17.4999L8.5 18.5001H15.5L15.5 17.4999H8.50001Z" fill="#666666"/>
<path fill-rule="evenodd" clip-rule="evenodd" d="M7 1.99994C5.89543 1.99994 5 2.89537 5 3.99994V6.99994H4C2.89543 6.99994 2 7.89537 2 8.99994V15.9999C2 17.1045 2.89543 17.9999 4 17.9999H5V21.9999H19V17.9999H20C21.1046 17.9999 22 17.1045 22 15.9999V8.99994C22 7.89537 21.1046 6.99994 20 6.99994H19V3.99994C19 2.89537 18.1046 1.99994 17 1.99994H7ZM17 6.99994H7V3.99994H17V6.99994ZM5 15.9999H4V8.99994H20V15.9999H19V10.9999H5V15.9999ZM7 12.9999H17V19.9999H7V12.9999Z" fill="#666666"/>
</svg>
