<svg width="24" height="25" viewBox="0 0 24 25" fill="none" xmlns="http://www.w3.org/2000/svg">
<g clip-path="url(#clip0)">
<path fill-rule="evenodd" clip-rule="evenodd" d="M9.1008 13.9332L0 23.1132L8.02542e-07 4.75317L9.1008 13.9332Z" fill="#666666"/>
<path fill-rule="evenodd" clip-rule="evenodd" d="M14.4043 13.9332L24 23.1132V4.75317L14.4043 13.9332ZM16.6573 13.9332L22.4 8.43924V19.4271L16.6573 13.9332Z" fill="#666666"/>
<path fill-rule="evenodd" clip-rule="evenodd" d="M11.2999 23.134V22.134H12.6999V23.134H11.2999ZM11.2999 21.134V19.134H12.6999V21.134H11.2999ZM11.2999 18.134V16.134H12.6999V18.134H11.2999ZM11.2999 15.134V13.134H12.6999V15.134H11.2999ZM11.2999 12.134V10.134H12.6999V12.134H11.2999ZM11.2999 9.13403V7.13403H12.6999V9.13403H11.2999ZM11.2999 6.13403V5.13403H12.6999V6.13403H11.2999Z" fill="#666666"/>
<path d="M4.88986 5.82157L6.53081 6.49797C6.83548 5.76022 7.2908 5.08909 7.86877 4.53248C8.55458 3.87202 9.41307 3.37281 10.3974 3.11488C12.9664 2.44175 15.5942 3.62132 16.8578 5.82157H18.8287C17.4178 2.38286 13.6419 0.431916 9.94822 1.39974C8.19772 1.85842 6.7526 2.89746 5.76518 4.2564C5.41282 4.74133 5.11874 5.267 4.88986 5.82157Z" fill="#666666"/>
<path d="M18.6534 6.78067L19.5721 2.72241L14.5661 5.85579L18.6534 6.78067Z" fill="#666666"/>
</g>
<defs>
<clipPath id="clip0">
<rect y="0.143066" width="24" height="24" fill="white"/>
</clipPath>
</defs>
</svg>
