<svg width="24" height="25" viewBox="0 0 24 25" fill="none" xmlns="http://www.w3.org/2000/svg">
<path fill-rule="evenodd" clip-rule="evenodd" d="M7.99439 7.14307C7.44211 7.14307 6.99439 7.59078 6.99439 8.14307V16.1431C6.99439 16.6954 7.44211 17.1431 7.9944 17.1431H15.9978C16.5501 17.1431 16.9978 16.6954 16.9978 16.1431V8.14307C16.9978 7.59078 16.5501 7.14307 15.9978 7.14307H7.99439ZM15.4968 8.64307H8.49439V15.6431H15.4968V8.64307Z" fill="#666666"/>
<path d="M14.7488 14.8981H9.24732L10.4907 12.8646L11.5504 14.1766L12.9376 12.1431L14.7488 14.8981Z" fill="#666666"/>
<path d="M11.999 2.14307L13.592 2.14307C18.2351 2.14308 21.999 5.90575 21.999 10.5472H20.0999C20.0999 7.47896 18.2028 5.17157 15.4333 4.27262C15.4333 4.27262 14.4312 5.00723 14.0282 5.29527L11.999 2.14307Z" fill="#666666"/>
<path d="M11.999 22.1431L10.406 22.1431C5.76297 22.1431 1.99902 18.3804 1.99902 13.7389H3.89817C3.89817 16.8072 5.7952 19.1146 8.56474 20.0135C8.56474 20.0135 9.5668 19.2789 9.96988 18.9909L11.999 22.1431Z" fill="#666666"/>
</svg>
