<svg width="24" height="25" viewBox="0 0 24 25" fill="none" xmlns="http://www.w3.org/2000/svg">
<path fill-rule="evenodd" clip-rule="evenodd" d="M2 4.61719C2 3.51262 2.89543 2.61719 4 2.61719H17.5466L22 7.14689V20.6172C22 21.7218 21.1046 22.6172 20 22.6172H4C2.89543 22.6172 2 21.7218 2 20.6172V4.61719ZM3.97754 4.61719H14.9775V9.61719H3.97754V4.61719ZM12.0958 20.4172C13.9736 20.4172 15.4958 18.895 15.4958 17.0172C15.4958 15.1394 13.9736 13.6172 12.0958 13.6172C10.218 13.6172 8.6958 15.1394 8.6958 17.0172C8.6958 18.895 10.218 20.4172 12.0958 20.4172Z" fill="#666666"/>
</svg>
