<svg width="25" height="25" viewBox="0 0 25 25" fill="none" xmlns="http://www.w3.org/2000/svg">
<g id="scan-photo">
<g id="Vector">
<path d="M3.49951 17.5405H1.49951V21.5405C1.49951 22.6405 2.39951 23.5405 3.49951 23.5405H7.49951V21.5405H3.49951V17.5405Z" fill="#666666"/>
<path d="M3.49951 3.54541H7.49951V1.54541H3.49951C2.39951 1.54541 1.49951 2.44541 1.49951 3.54541V7.54541H3.49951V3.54541Z" fill="#666666"/>
<path d="M21.4995 1.54541H17.4995V3.54541H21.4995V7.54541H23.4995V3.54541C23.4995 2.44541 22.5995 1.54541 21.4995 1.54541Z" fill="#666666"/>
<path d="M21.4995 21.5405H17.4995V23.5405H21.4995C22.5995 23.5405 23.4995 22.6405 23.4995 21.5405V17.5405H21.4995V21.5405Z" fill="#666666"/>
<path d="M3.49951 11.9597H21.4995V13.4597H3.49951V11.9597Z" fill="#666666"/>
<path fill-rule="evenodd" clip-rule="evenodd" d="M13.9995 5.04053H7.99951C7.17451 5.04053 6.50701 5.71553 6.50701 6.54053L6.49951 12.9672H18.4995V9.54053L13.9995 5.04053ZM7.99958 6.54053V12.0246H16.9996V10.2905H13.2496V6.54053H7.99958Z" fill="#666666"/>
<path fill-rule="evenodd" clip-rule="evenodd" d="M7.99551 16.8062H6.49951V18.0406C6.49951 18.3541 6.57167 18.6508 6.70029 18.915C6.72006 18.9556 6.80757 19.1036 6.87776 19.1628L7.99553 18.0451L7.99551 18.0406V16.8062ZM7.40465 19.7108L8.4848 18.6306C8.52034 18.6371 8.55728 18.6406 8.59552 18.6406H9.48441V20.0406H8.49951C8.1865 20.0406 7.89029 19.9687 7.62648 19.8405L7.61941 19.837C7.57509 19.8156 7.46434 19.762 7.40465 19.7108ZM16.4995 20.0406H15.509V18.6406H16.3979C16.4406 18.6406 16.4817 18.6363 16.5211 18.6282L17.5876 19.6947C17.5359 19.7492 17.4183 19.8181 17.377 19.8383C17.1121 19.9678 16.8143 20.0406 16.4995 20.0406ZM16.9979 18.0302L18.1406 19.1729C18.1915 19.1215 18.2867 18.941 18.3109 18.8895C18.4319 18.6318 18.4995 18.3441 18.4995 18.0406V16.815H16.9979V18.0302ZM16.9979 12.5117H18.4995V13.4572H16.9979V12.5117ZM16.9979 14.2163H18.4995L18.4995 16.0497H16.9979V14.2163ZM14.618 18.6406V20.0406H12.944V18.6406H14.618ZM12.0551 18.6406V20.0406H10.4027V18.6406H12.0551ZM7.99551 16.0497H6.49951V14.2163H7.99551V16.0497ZM7.99551 13.4572H6.49951V12.5117H7.99551V13.4572Z" fill="#666666"/>
</g>
</g>
</svg>
