<svg width="24" height="24" viewBox="0 0 24 24" fill="none" xmlns="http://www.w3.org/2000/svg">
<g id="scan-iris">
<g id="Vector">
<path fill-rule="evenodd" clip-rule="evenodd" d="M6 12.0909C6.94364 9.69636 9.27273 8 12 8C14.7273 8 17.0564 9.69636 18 12.0909C17.0564 14.4855 14.7273 16.1818 12 16.1818C9.27273 16.1818 6.94364 14.4855 6 12.0909ZM9.5 12C9.5 10.6222 10.6222 9.5 12 9.5C13.3778 9.5 14.5 10.6222 14.5 12C14.5 13.3778 13.3778 14.5 12 14.5C10.6222 14.5 9.5 13.3778 9.5 12Z" fill="#666666"/>
<path d="M5 15H3V19C3 20.1 3.9 21 5 21H9V19H5V15Z" fill="#666666"/>
<path d="M5 5H9V3H5C3.9 3 3 3.9 3 5V9H5V5Z" fill="#666666"/>
<path d="M19 3H15V5H19V9H21V5C21 3.9 20.1 3 19 3Z" fill="#666666"/>
<path d="M19 19H15V21H19C20.1 21 21 20.1 21 19V15H19V19Z" fill="#666666"/>
<path d="M11.5 10.5H12.5V13.5H11.5V10.5Z" fill="#666666"/>
<path d="M10.5 12.5V11.5H13.5V12.5H10.5Z" fill="#666666"/>
</g>
</g>
</svg>
