<svg width="24" height="24" viewBox="0 0 24 24" fill="none" xmlns="http://www.w3.org/2000/svg">
<path fill-rule="evenodd" clip-rule="evenodd" d="M2.01033 3.79551C2.0035 3.86275 2 3.93096 2 4V8H4V4H8V2H4C2.96447 2 2.11275 2.787 2.01033 3.79551ZM4 16H2V20C2 21.1046 2.89543 22 4 22H8V20H4V16ZM16 2H20C21.1046 2 22 2.89543 22 4V8H20V4H16V2ZM22 16H20V20H16V22H20C21.1046 22 22 21.1046 22 20V16ZM12 12C13.6575 12 15 10.6575 15 9C15 7.3425 13.6575 6 12 6C10.3425 6 9 7.3425 9 9C9 10.6575 10.3425 12 12 12ZM12 13.5C9.9975 13.5 6 14.505 6 16.5V18H18V16.5C18 14.505 14.0025 13.5 12 13.5Z" fill="#666666"/>
</svg>
