<svg width="24" height="24" viewBox="0 0 24 24" fill="none" xmlns="http://www.w3.org/2000/svg">
<path d="M10.5691 13.7324C12.3161 13.7324 13.7323 12.3162 13.7323 10.5692C13.7323 8.82219 12.3161 7.40595 10.5691 7.40595C8.82207 7.40595 7.40583 8.82219 7.40583 10.5692C7.40583 12.3162 8.82207 13.7324 10.5691 13.7324Z" fill="#666666"/>
<path fill-rule="evenodd" clip-rule="evenodd" d="M2 12C2 6.48 6.48 2 12 2C17.52 2 22 6.48 22 12C22 17.52 17.52 22 12 22C6.48 22 2 17.52 2 12ZM10.5691 15.1383C11.5772 15.1383 12.5091 14.8118 13.2647 14.2589L17.0058 18L17.9999 17.0059L14.2588 13.2647C14.8118 12.5091 15.1383 11.5773 15.1383 10.5691C15.1383 8.04569 13.0926 6.00002 10.5691 6.00002C8.04567 6.00002 6 8.04569 6 10.5691C6 13.0926 8.04567 15.1383 10.5691 15.1383Z" fill="#666666"/>
</svg>
