<svg width="24" height="24" viewBox="0 0 24 24" fill="none" xmlns="http://www.w3.org/2000/svg">
<path fill-rule="evenodd" clip-rule="evenodd" d="M16.5 1.99588H7.5C6.4 1.99588 5.5 3.09588 5.5 4.44032V19.5597C5.5 20.9041 6.4 22.0041 7.5 22.0041H16.5C17.6 22.0041 18.5 20.9041 18.5 19.5597V4.44032C18.5 3.09588 17.6 1.99588 16.5 1.99588ZM16.5 18.0495H7.5V3.99588H16.5V18.0495ZM12 21.051C12.5523 21.051 13 20.6033 13 20.051C13 19.4987 12.5523 19.051 12 19.051C11.4477 19.051 11 19.4987 11 20.051C11 20.6033 11.4477 21.051 12 21.051Z" fill="#666666"/>
</svg>
