<svg width="24" height="25" viewBox="0 0 24 25" fill="none" xmlns="http://www.w3.org/2000/svg">
<path fill-rule="evenodd" clip-rule="evenodd" d="M13.4384 11.0447L21.7262 19.3052C22.0913 19.6691 22.0913 20.2422 21.7262 20.5879L19.6268 22.6803C19.2709 23.0351 18.6958 23.0351 18.3399 22.6803L10.0246 14.3925C7.90705 15.184 5.43349 14.7382 3.73576 13.0461C1.63642 10.9628 1.44474 7.6968 3.14247 5.38605L6.63832 8.87037L7.93444 7.58763L4.42945 4.08511C6.75698 2.39299 10.0246 2.58403 12.124 4.67645C13.8491 6.40496 14.2872 8.91586 13.4384 11.0447ZM10.3532 12.1546L18.9879 20.7607L19.7911 19.9511L11.1656 11.354C11.5855 10.8172 11.8593 10.2168 11.9688 9.57088C12.197 8.30633 11.8228 6.95081 10.837 5.96829C9.96988 5.11313 8.82894 4.71284 7.69712 4.77652L10.5175 7.58763L6.64745 11.445L3.82704 8.63384C3.76314 9.76192 4.16476 10.9082 5.03187 11.7634C5.98114 12.7095 7.28638 13.0825 8.52773 12.9005C9.17578 12.8096 9.79646 12.5639 10.3532 12.1546Z" fill="#666666"/>
</svg>
