<svg width="24" height="25" viewBox="0 0 24 25" fill="none" xmlns="http://www.w3.org/2000/svg">
<path d="M21.7262 19.305L13.4384 11.0445C14.2872 8.91574 13.8491 6.40484 12.124 4.67633C10.1824 2.74111 7.24138 2.4323 4.96907 3.7355C5.6425 4.40094 6.29616 5.06095 6.80177 5.55461L8.3884 7.14666L7.93444 7.58751L6.63832 8.87025L6.18851 9.31086L4.39509 7.52691C3.85671 6.99386 3.54295 6.67402 2.78707 5.93024C1.48507 8.18788 1.7965 11.1215 3.73576 13.046C5.43349 14.7381 7.90705 15.1839 10.0246 14.3924L18.3398 22.6802C18.6958 23.035 19.2709 23.035 19.6268 22.6802L21.7262 20.5878C22.0913 20.2421 22.0913 19.6689 21.7262 19.305Z" fill="#666666"/>
</svg>
