<svg width="25" height="25" viewBox="0 0 25 25" fill="none" xmlns="http://www.w3.org/2000/svg">
<path fill-rule="evenodd" clip-rule="evenodd" d="M18.6674 20.2088C21.2637 18.2515 22.6313 15.2715 22.6326 12.2557L20.28 12.2557C20.2785 14.563 19.2334 16.8439 17.2506 18.3388C14.1069 20.7088 9.69999 20.2778 7.06611 17.467L9.30097 15.2539L3.04787 15.254L3.04741 21.4466L5.39728 19.1196C8.84911 22.7552 14.5695 23.2981 18.6674 20.2088Z" fill="#666666"/>
<path fill-rule="evenodd" clip-rule="evenodd" d="M6.59797 4.23742C4.00171 6.19472 2.63413 9.17474 2.63281 12.1905H4.98536C4.9869 9.88319 6.03202 7.60226 8.0148 6.10745C11.1598 3.73644 15.5691 4.16872 18.2026 6.98272L15.9781 9.18551L22.2312 9.18539L22.2317 2.99279L19.8714 5.3301C16.4199 1.69136 10.6972 1.14708 6.59797 4.23742Z" fill="#666666"/>
</svg>
