<svg width="24" height="24" viewBox="0 0 24 24" fill="none" xmlns="http://www.w3.org/2000/svg">
<path fill-rule="evenodd" clip-rule="evenodd" d="M17.5385 1.99588H6.46154C5.10769 1.99588 4 3.09588 4 4.44032V19.5597C4 20.9041 5.10769 22.0041 6.46154 22.0041H17.5385C18.8923 22.0041 20 20.9041 20 19.5597V4.44032C20 3.09588 18.8923 1.99588 17.5385 1.99588ZM18 18.0495H6.00003V4.07854H18V18.0495ZM12.0001 21.051C12.5524 21.051 13.0001 20.6033 13.0001 20.051C13.0001 19.4987 12.5524 19.051 12.0001 19.051C11.4478 19.051 11.0001 19.4987 11.0001 20.051C11.0001 20.6033 11.4478 21.051 12.0001 21.051Z" fill="#666666"/>
</svg>
