<svg width="24" height="24" viewBox="0 0 24 24" fill="none" xmlns="http://www.w3.org/2000/svg">
<path d="M16.0539 9.88823L8.10832 2L6.85516 3.24412L8.97042 5.34412L4.39328 9.88823C3.86891 10.4088 3.86891 11.2471 4.39328 11.7588L9.28149 16.6118C9.53923 16.8676 9.88585 17 10.2236 17C10.5613 17 10.9079 16.8676 11.1657 16.6118L16.0539 11.7588C16.5783 11.2471 16.5783 10.4088 16.0539 9.88823V9.88823ZM5.96639 10.8235L10.2236 6.59706L14.4808 10.8235H5.96639ZM18.2225 12.1471C18.2225 12.1471 16.4449 14.0618 16.4449 15.2353C16.4449 16.2059 17.2448 17 18.2225 17C19.2001 17 20 16.2059 20 15.2353C20 14.0618 18.2225 12.1471 18.2225 12.1471Z" fill="#4D4D4D"/>
<path d="M3 20H21V22H3V20Z" fill="#4D4D4D"/>
</svg>
