<svg width="24" height="24" viewBox="0 0 24 24" fill="none" xmlns="http://www.w3.org/2000/svg">
<path fill-rule="evenodd" clip-rule="evenodd" d="M9.20469 19.9913C9.14357 19.9913 9.09402 19.9414 9.09402 19.8797L9.09411 10.6002L13.4635 4.84214L13.7449 5.12867C13.8845 5.27079 13.9379 5.47737 13.885 5.67014L12.8851 9.00942C12.6119 10.0046 13.3542 10.9885 14.3782 10.9885H20.8974C20.9586 10.9885 21.0081 11.0385 21.0081 11.1001L21.008 13.5694L18.1569 19.9257C18.139 19.9657 18.0995 19.9913 18.056 19.9913H9.20469ZM7.10205 19.8797C7.10205 21.0507 8.04344 22 9.20469 22H18.056C18.882 22 19.6314 21.5124 19.9718 20.7535L23 14.0026L23.0001 11.1001C23.0001 9.92912 22.0587 8.97984 20.8974 8.97984H14.9601L15.8048 6.20602C16.0482 5.31928 15.8023 4.36899 15.1603 3.71523L13.4715 1.99561L7.56799 9.05372C7.26701 9.41355 7.10211 9.86774 7.1021 10.3369L7.10205 19.8797Z" fill="#666666"/>
<path fill-rule="evenodd" clip-rule="evenodd" d="M5 10H1V22H5V10ZM3 18.5235C3.55228 18.5235 4 18.9712 4 19.5235C4 20.0757 3.55228 20.5235 3 20.5235C2.44772 20.5235 2 20.0757 2 19.5235C2 18.9712 2.44772 18.5235 3 18.5235Z" fill="#666666"/>
</svg>
