<svg width="24" height="24" viewBox="0 0 24 24" fill="none" xmlns="http://www.w3.org/2000/svg">
<path fill-rule="evenodd" clip-rule="evenodd" d="M9 22H18C18.83 22 19.54 21.5 19.84 20.78L22.86 13.73C22.95 13.5 23 13.26 23 13V11C23 9.9 22.1 9 21 9H14.23L14.64 4.43L14.67 4.11C14.67 3.7 14.5 3.32 14.23 3.05L13.17 2L7.58 8.59C7.22 8.95 7 9.45 7 10V20C7 21.1 7.9 22 9 22ZM1 10H5V22H1V10ZM3 18.5229C3.55228 18.5229 4 18.9706 4 19.5229C4 20.0751 3.55228 20.5229 3 20.5229C2.44772 20.5229 2 20.0751 2 19.5229C2 18.9706 2.44772 18.5229 3 18.5229Z" fill="#666666"/>
</svg>
