<svg width="24" height="24" viewBox="0 0 24 24" fill="none" xmlns="http://www.w3.org/2000/svg">
<path fill-rule="evenodd" clip-rule="evenodd" d="M12 22C15.866 22 19 18.866 19 15C19 11.134 15.866 8 12 8C8.13401 8 5 11.134 5 15C5 18.866 8.13401 22 12 22ZM12 24C16.9706 24 21 19.9706 21 15C21 10.0294 16.9706 6 12 6C7.02944 6 3 10.0294 3 15C3 19.9706 7.02944 24 12 24Z" fill="#1F73E0"/>
<path d="M10.3477 4.1061C10.3477 3.63892 10.7264 3.26019 11.1936 3.26019H12.8854C13.3526 3.26019 13.7313 3.63892 13.7313 4.1061C13.7313 4.57328 13.3526 4.95201 12.8854 4.95201H11.1936C10.7264 4.95201 10.3477 4.57328 10.3477 4.1061Z" fill="#1F73E0"/>
<path fill-rule="evenodd" clip-rule="evenodd" d="M13.5468 3.02015C13.6189 2.83569 13.6585 2.63494 13.6585 2.42494C13.6585 1.52172 12.9263 0.789516 12.0231 0.789516C11.1198 0.789516 10.3876 1.52172 10.3876 2.42494C10.3876 2.64074 10.4294 2.84678 10.5054 3.0354C10.2483 3.18479 10.0549 3.43182 9.97615 3.72572C9.73679 3.34984 9.59811 2.90359 9.59811 2.42494C9.59811 1.08568 10.6838 0 12.0231 0C13.3623 0 14.448 1.08568 14.448 2.42494C14.448 2.88822 14.3181 3.32116 14.0927 3.68931C14.0051 3.40135 13.8065 3.16171 13.5468 3.02015Z" fill="#1F73E0"/>
<path d="M11.1292 5.18349H12.9504L12.9503 5.72728L12.9217 5.72323C12.3271 5.63885 11.7234 5.64022 11.1291 5.72728L11.1292 5.18349Z" fill="#1F73E0"/>
</svg>
