<svg width="24" height="24" viewBox="0 0 24 24" fill="none" xmlns="http://www.w3.org/2000/svg">
<g id="unlock">
<path id="Path" fill-rule="evenodd" clip-rule="evenodd" d="M18 8.5H9V6.5C9 4.84 10.34 3.5 12 3.5C13.66 3.5 15 4.84 15 6.5H17C17 3.74 14.76 1.5 12 1.5C9.24 1.5 7 3.74 7 6.5V8.5H6C4.9 8.5 4 9.4 4 10.5V20.5C4 21.6 4.9 22.5 6 22.5H18C19.1 22.5 20 21.6 20 20.5V10.5C20 9.4 19.1 8.5 18 8.5ZM6 20.5V10.5H18V20.5H6ZM14 14.5C14 15.2364 13.5967 15.8831 13 16.2303V19H11V16.2303C10.4033 15.8831 10 15.2364 10 14.5C10 13.4 10.9 12.5 12 12.5C13.1 12.5 14 13.4 14 14.5Z" fill="#666666"/>
</g>
</svg>
