<svg width="24" height="24" viewBox="0 0 24 24" fill="none" xmlns="http://www.w3.org/2000/svg">
<path fill-rule="evenodd" clip-rule="evenodd" d="M19.4092 15.0289C19.4519 15.1284 19.4417 15.2433 19.3824 15.3339C19.3229 15.4248 19.2221 15.4796 19.114 15.4796L18.2433 15.4797L9.52802 6.76435L9.7022 4.59262C9.63635 4.53599 9.5521 4.45996 9.45854 4.36588C9.03889 3.9439 8.51704 3.25293 8.41463 2.35987C8.40418 2.26853 8.43325 2.17674 8.49411 2.10824C8.55519 2.03905 8.6424 1.99977 8.73391 2L15.6618 2C15.7529 1.99977 15.8383 2.04133 15.901 2.10709C15.9616 2.17537 15.9907 2.26625 15.9811 2.35759C15.9752 2.41376 15.8253 3.68975 14.6699 4.61409L15.1741 10.9022C15.628 11.0829 16.7521 11.6021 17.8151 12.671C18.497 13.3567 19.0334 14.15 19.4092 15.0289ZM9.31802 9.38278L15.415 15.4798L12.516 15.4799L12.516 21.6771C12.516 21.8557 12.3725 22 12.1949 22C12.1064 22 12.026 21.9639 11.9678 21.9055C11.9097 21.847 11.8738 21.7662 11.8738 21.6771L11.8738 15.4799H5.25655C5.17071 15.4799 5.08918 15.4454 5.02946 15.3853C5.01425 15.37 5.00039 15.3529 4.98836 15.3344C4.92886 15.2435 4.91864 15.1291 4.96156 15.0293C6.06384 12.4536 8.49184 11.2233 9.19535 10.9123L9.31802 9.38278Z" fill="#666666"/>
<path d="M2.9353 4.41418L4.09436 3.25512L21.0649 20.2257L19.9059 21.3847L2.9353 4.41418Z" fill="#666666"/>
</svg>
