<svg width="24" height="24" viewBox="0 0 24 24" fill="none" xmlns="http://www.w3.org/2000/svg">
<path fill-rule="evenodd" clip-rule="evenodd" d="M2 12C2 6.48 6.48 2 12 2C17.52 2 22 6.48 22 12C22 17.52 17.52 22 12 22C6.48 22 2 17.52 2 12ZM8.11344 15H11.4025V14H9.32438V12.5273H11.258V11.5352H9.32438V10.2812H11.4025V9.28906H8.11344V15ZM15.7303 14.6328C16.1027 14.3359 16.2889 13.9297 16.2889 13.4141C16.2889 13.0417 16.1899 12.7279 15.992 12.4727C15.7941 12.2148 15.4282 11.9583 14.8944 11.7031C14.4907 11.5104 14.2342 11.3776 14.1248 11.3047C14.0181 11.2292 13.9399 11.1523 13.8905 11.0742C13.841 10.9935 13.8162 10.8997 13.8162 10.793C13.8162 10.6211 13.8774 10.4818 13.9998 10.375C14.1222 10.2682 14.298 10.2148 14.5272 10.2148C14.7199 10.2148 14.9152 10.2396 15.1131 10.2891C15.3136 10.3385 15.5662 10.4258 15.8709 10.5508L16.2616 9.60938C15.9673 9.48177 15.6847 9.38281 15.4139 9.3125C15.1457 9.24219 14.8631 9.20703 14.5662 9.20703C13.9621 9.20703 13.4881 9.35156 13.1444 9.64062C12.8032 9.92969 12.6327 10.3268 12.6327 10.832C12.6327 11.1003 12.6847 11.3346 12.7889 11.5352C12.8931 11.7357 13.0324 11.9115 13.2069 12.0625C13.3814 12.2135 13.6431 12.3711 13.992 12.5352C14.3644 12.7122 14.6105 12.8411 14.7303 12.9219C14.8527 13.0026 14.9452 13.0872 15.0077 13.1758C15.0702 13.2617 15.1014 13.3607 15.1014 13.4727C15.1014 13.6732 15.0298 13.8242 14.8866 13.9258C14.7459 14.0273 14.5428 14.0781 14.2772 14.0781C14.0558 14.0781 13.811 14.043 13.5428 13.9727C13.2772 13.9023 12.9517 13.7812 12.5662 13.6094V14.7344C13.035 14.9635 13.5741 15.0781 14.1834 15.0781C14.8449 15.0781 15.3605 14.9297 15.7303 14.6328Z" fill="#666666"/>
</svg>
