<svg width="24" height="24" viewBox="0 0 24 24" fill="none" xmlns="http://www.w3.org/2000/svg">
<path fill-rule="evenodd" clip-rule="evenodd" d="M6 7C6 4.79 7.79 3 10 3C12.21 3 14 4.79 14 7C14 9.21 12.21 11 10 11C7.79 11 6 9.21 6 7ZM10 5C11.1 5 12 5.9 12 7C12 8.1 11.1 9 10 9C8.9 9 8 8.1 8 7C8 5.9 8.9 5 10 5ZM10.0197 14C10.0132 14 10.0066 14 10 14C7.3 14 4.2 15.29 4 16.01V17H11.2419L10.1363 17.841C9.99952 17.946 9.96354 18.135 10.0499 18.289L10.4724 19H2V16C2 13.34 7.33 12 10 12C10.3125 12 10.6614 12.0184 11.034 12.055L10.0499 13.711C9.99382 13.8033 9.98687 13.9082 10.0197 14Z" fill="#666666"/>
<path fill-rule="evenodd" clip-rule="evenodd" d="M20.8563 16C20.8563 16.17 20.8409 16.33 20.8204 16.49L21.9049 17.315C22.0026 17.39 22.0283 17.525 21.9666 17.635L20.9386 19.365C20.8923 19.445 20.8049 19.49 20.7175 19.49C20.6867 19.49 20.6559 19.485 20.625 19.475L19.3451 18.975C19.0778 19.17 18.7899 19.34 18.4764 19.465L18.2811 20.79C18.2656 20.91 18.1577 21 18.0292 21H15.9731C15.8446 21 15.7366 20.91 15.7212 20.79L15.5259 19.465C15.2123 19.34 14.9245 19.175 14.6572 18.975L13.3772 19.475C13.3515 19.485 13.3207 19.49 13.2899 19.49C13.1973 19.49 13.11 19.445 13.0637 19.365L12.0356 17.635C11.974 17.525 11.9997 17.39 12.0973 17.315L13.1819 16.49C13.1614 16.33 13.1459 16.165 13.1459 16C13.1459 15.835 13.1614 15.67 13.1819 15.51L12.0973 14.685C11.9997 14.61 11.9688 14.475 12.0356 14.365L13.0637 12.635C13.11 12.555 13.1973 12.51 13.2847 12.51C13.3156 12.51 13.3464 12.515 13.3772 12.525L14.6572 13.025C14.9245 12.83 15.2123 12.66 15.5259 12.535L15.7212 11.21C15.7366 11.09 15.8446 11 15.9731 11H18.0292C18.1577 11 18.2656 11.09 18.2811 11.21L18.4764 12.535C18.7899 12.66 19.0778 12.825 19.3451 13.025L20.625 12.525C20.6507 12.515 20.6816 12.51 20.7124 12.51C20.8049 12.51 20.8923 12.555 20.9386 12.635L21.9666 14.365C22.0283 14.475 22.0026 14.61 21.9049 14.685L20.8204 15.51C20.8409 15.67 20.8563 15.83 20.8563 16ZM19.8285 16C19.8285 15.895 19.8234 15.79 19.8028 15.635L19.7309 15.07L20.1884 14.72L20.7384 14.295L20.3785 13.69L19.7257 13.945L19.1809 14.16L18.7131 13.81C18.5075 13.66 18.3019 13.545 18.0808 13.455L17.536 13.24L17.3561 12H16.6416L16.5388 12.675L16.4565 13.24L15.9117 13.455C15.7009 13.54 15.4902 13.66 15.2691 13.82L14.8065 14.16L14.2719 13.95L13.6191 13.695L13.2593 14.3L13.8144 14.72L14.2719 15.07L14.1999 15.635C14.1845 15.785 14.1742 15.9 14.1742 16C14.1742 16.1 14.1845 16.215 14.1999 16.37L14.2719 16.935L13.8144 17.285L13.2593 17.705L13.6191 18.31L14.2719 18.055L14.8168 17.84L15.2845 18.19C15.4902 18.34 15.6958 18.455 15.9168 18.545L16.4617 18.76L16.6416 20H17.3612L17.464 19.325L17.5463 18.76L18.0911 18.545C18.3019 18.46 18.5126 18.34 18.7337 18.18L19.1963 17.84L19.7309 18.05L20.3837 18.305L20.7435 17.7L20.1884 17.28L19.7309 16.93L19.8028 16.365C19.8183 16.215 19.8285 16.105 19.8285 16ZM17.0011 14C15.8651 14 14.9449 14.895 14.9449 16C14.9449 17.105 15.8651 18 17.0011 18C18.1371 18 19.0572 17.105 19.0572 16C19.0572 14.895 18.1371 14 17.0011 14ZM15.9731 16C15.9731 16.55 16.4357 17 17.0011 17C17.5666 17 18.0292 16.55 18.0292 16C18.0292 15.45 17.5666 15 17.0011 15C16.4357 15 15.9731 15.45 15.9731 16Z" fill="#666666"/>
</svg>
