<svg width="24" height="25" viewBox="0 0 24 25" fill="none" xmlns="http://www.w3.org/2000/svg">
<path fill-rule="evenodd" clip-rule="evenodd" d="M11.5 6.04297C11.5 7.97297 9.93 9.54297 8 9.54297C6.07 9.54297 4.5 7.97297 4.5 6.04297C4.5 4.11297 6.07 2.54297 8 2.54297C9.93 2.54297 11.5 4.11297 11.5 6.04297ZM8 11.293C5.66 11.293 1 12.463 1 14.793V16.543H11.0953C11.3011 15.819 11.6252 15.1449 12.0456 14.543H3.34C4.18 13.963 6.21 13.293 8 13.293C9.53391 13.293 11.2441 13.785 12.2306 14.2907C12.653 13.742 13.1583 13.2606 13.7278 12.8652C12.1764 11.818 9.56759 11.293 8 11.293ZM8 4.54297C8.83 4.54297 9.5 5.21297 9.5 6.04297C9.5 6.87297 8.83 7.54297 8 7.54297C7.17 7.54297 6.5 6.87297 6.5 6.04297C6.5 5.21297 7.17 4.54297 8 4.54297Z" fill="#666666"/>
<path fill-rule="evenodd" clip-rule="evenodd" d="M12 18.543C12 15.231 14.688 12.543 18 12.543C21.312 12.543 24 15.231 24 18.543C24 21.855 21.312 24.543 18 24.543C14.688 24.543 12 21.855 12 18.543ZM16.9008 17.4438C17.3055 17.0391 17.3055 16.383 16.9008 15.9783C16.4961 15.5736 15.84 15.5736 15.4353 15.9783C15.0306 16.383 15.0306 17.0391 15.4353 17.4438C15.84 17.8485 16.4961 17.8485 16.9008 17.4438ZM17.9537 17.764C18.4231 16.9693 18.3164 15.9284 17.6335 15.2456C16.8242 14.4362 15.5119 14.4362 14.7025 15.2456C13.8932 16.055 13.8932 17.3672 14.7025 18.1766C15.3854 18.8595 16.4262 18.9662 17.221 18.4968L18.3663 19.6421L17.9999 20.0085C17.7976 20.2108 17.7976 20.5389 17.9999 20.7412L19.099 21.8403C19.3014 22.0427 19.6294 22.0427 19.8318 21.8403L20.1982 21.474L20.5645 21.8403C20.7669 22.0427 21.0949 22.0427 21.2973 21.8403C21.4996 21.638 21.4996 21.3099 21.2973 21.1076L17.9537 17.764Z" fill="#666666"/>
</svg>
