<svg width="24" height="24" viewBox="0 0 24 24" fill="none" xmlns="http://www.w3.org/2000/svg">
<path fill-rule="evenodd" clip-rule="evenodd" d="M4.69 7.1L2.01 4.42L3.42 3L21.15 20.74L19.74 22.15L16.32 18.73C14.98 19.26 13.52 19.55 12 19.55C7 19.55 2.73 16.44 1 12.05C1.77 10.08 3.06 8.38 4.69 7.1ZM12 6.55C15.79 6.55 19.17 8.68 20.82 12.05C20.23 13.27 19.4 14.32 18.41 15.17L19.82 16.58C21.21 15.35 22.31 13.81 23 12.05C21.27 7.66 17 4.55 12 4.55C10.73 4.55 9.51 4.75 8.36 5.12L10.01 6.77C10.66 6.64 11.32 6.55 12 6.55ZM10.93 7.69L13 9.76C13.57 10.01 14.03 10.47 14.28 11.04L16.35 13.11C16.43 12.77 16.49 12.41 16.49 12.04C16.5 9.56 14.48 7.55 12 7.55C11.63 7.55 11.28 7.6 10.93 7.69ZM9.51 11.92L12.12 14.53C12.08 14.54 12.04 14.55 12 14.55C10.62 14.55 9.5 13.43 9.5 12.05C9.5 12.025 9.5025 12.005 9.505 11.985C9.5075 11.965 9.51 11.945 9.51 11.92ZM7.86 10.27L6.11 8.52C4.9 9.44 3.88 10.62 3.18 12.05C4.83 15.42 8.21 17.55 12 17.55C12.95 17.55 13.87 17.41 14.75 17.17L13.77 16.19C13.23 16.42 12.63 16.55 12 16.55C9.52 16.55 7.5 14.53 7.5 12.05C7.5 11.42 7.63 10.82 7.86 10.27Z" fill="#666666"/>
</svg>
