<svg width="24" height="24" viewBox="0 0 24 24" fill="none" xmlns="http://www.w3.org/2000/svg">
<path fill-rule="evenodd" clip-rule="evenodd" d="M1 11.8571C2.73 7.2581 7 4 12 4C17 4 21.27 7.2581 23 11.8571C21.27 16.4562 17 19.7143 12 19.7143C7 19.7143 2.73 16.4562 1 11.8571ZM20.82 11.8571C19.17 8.32667 15.79 6.09524 12 6.09524C8.20997 6.09524 4.82997 8.32667 3.17997 11.8571C4.82997 15.3876 8.20997 17.619 12 17.619C15.79 17.619 19.17 15.3876 20.82 11.8571ZM12 9.2381C13.38 9.2381 14.5 10.4114 14.5 11.8571C14.5 13.3029 13.38 14.4762 12 14.4762C10.62 14.4762 9.5 13.3029 9.5 11.8571C9.5 10.4114 10.62 9.2381 12 9.2381ZM7.5 11.8571C7.5 9.25905 9.52 7.14286 12 7.14286C14.48 7.14286 16.5 9.25905 16.5 11.8571C16.5 14.4552 14.48 16.5714 12 16.5714C9.52 16.5714 7.5 14.4552 7.5 11.8571Z" fill="#666666"/>
</svg>
