<svg width="24" height="24" viewBox="0 0 24 24" fill="none" xmlns="http://www.w3.org/2000/svg">
<path d="M3 3C2.44772 3 2 3.44771 2 4V14.6C2 15.1523 2.44772 15.6 3 15.6H9.14844V17.604H7.04844C6.27524 17.604 5.64844 18.2308 5.64844 19.004H13.0278V17.604H11.1484V15.6H13.0278V13.6H3.99988V5.00001H16.4399V6.01379H18.4398V4C18.4398 3.44772 17.9921 3 17.4398 3H3Z" fill="#666666"/>
<path d="M19.7 9.26973H16.3V10.2018H19.7V9.26973Z" fill="#666666"/>
<path d="M17.5 16.8645C17.5 16.5883 17.7238 16.3645 18 16.3645C18.2761 16.3645 18.5 16.5883 18.5 16.8645C18.5 17.1406 18.2761 17.3645 18 17.3645C17.7238 17.3645 17.5 17.1406 17.5 16.8645Z" fill="#666666"/>
<path fill-rule="evenodd" clip-rule="evenodd" d="M15 7C14.4477 7 14 7.44772 14 8V20C14 20.5523 14.4477 21 15 21H21C21.5523 21 22 20.5523 22 20V8C22 7.44772 21.5523 7 21 7H15ZM20.5 12.5987C20.5 12.3778 20.3209 12.1987 20.1 12.1987H15.9C15.6791 12.1987 15.5 12.3778 15.5 12.5987C15.5 12.8196 15.6791 12.9987 15.9 12.9987H20.1C20.3209 12.9987 20.5 12.8196 20.5 12.5987ZM20.5 8.96973C20.5 8.69358 20.2761 8.46973 20 8.46973H16C15.7239 8.46973 15.5 8.69358 15.5 8.96973V10.5018C15.5 10.778 15.7239 11.0018 16 11.0018H20C20.2761 11.0018 20.5 10.778 20.5 10.5018V8.96973ZM18 15.7645C17.3924 15.7645 16.9 16.2569 16.9 16.8645C16.9 17.472 17.3924 17.9645 18 17.9645C18.6075 17.9645 19.1 17.472 19.1 16.8645C19.1 16.2569 18.6075 15.7645 18 15.7645Z" fill="#666666"/>
</svg>
