<svg width="24" height="25" viewBox="0 0 24 25" fill="none" xmlns="http://www.w3.org/2000/svg">
<path d="M7.58333 8.21252C7.58333 8.10206 7.67288 8.01252 7.78333 8.01252H13.4353C13.5457 8.01252 13.6353 8.10206 13.6353 8.21252V9.42636C13.6353 9.53682 13.5457 9.62636 13.4353 9.62636H7.78333C7.67288 9.62636 7.58333 9.53682 7.58333 9.42636V8.21252Z" fill="#666666"/>
<path d="M11.216 5.79328C11.3265 5.79328 11.416 5.88283 11.416 5.99328V11.6452C11.416 11.7557 11.3265 11.8452 11.216 11.8452H10.0022C9.89172 11.8452 9.80217 11.7557 9.80217 11.6452V5.99328C9.80217 5.88283 9.89172 5.79328 10.0022 5.79328H11.216Z" fill="#666666"/>
<path fill-rule="evenodd" clip-rule="evenodd" d="M14.7095 17.8471C10.657 20.1868 5.47523 18.7983 3.13556 14.7459C0.795895 10.6935 2.18436 5.51167 6.23678 3.172C10.2892 0.832333 15.471 2.2208 17.8107 6.27322C19.5935 9.3611 19.2116 13.1047 17.136 15.747L21.8532 20.4642C22.0484 20.6595 22.0484 20.9761 21.8532 21.1713L21.1338 21.8907C20.9386 22.0859 20.622 22.0859 20.4267 21.8907L15.7086 17.1725C15.3963 17.4172 15.063 17.643 14.7095 17.8471ZM16.928 10.5097C16.928 14.0749 14.0378 16.965 10.4726 16.965C6.90743 16.965 4.01726 14.0749 4.01726 10.5097C4.01726 6.94445 6.90743 4.05428 10.4726 4.05428C14.0378 4.05428 16.928 6.94445 16.928 10.5097Z" fill="#666666"/>
<path d="M7.78333 12.8854H13.4353C13.5457 12.8854 13.6353 12.9749 13.6353 13.0854V14.2992C13.6353 14.4097 13.5457 14.4992 13.4353 14.4992H7.78333C7.67288 14.4992 7.58333 14.4097 7.58333 14.2992V13.0854C7.58333 12.9749 7.67288 12.8854 7.78333 12.8854Z" fill="#666666"/>
</svg>
