<svg width="24" height="25" viewBox="0 0 24 25" fill="none" xmlns="http://www.w3.org/2000/svg">
<path fill-rule="evenodd" clip-rule="evenodd" d="M13.7991 15.6174C12.7241 16.4041 11.3985 16.8685 9.96436 16.8685C6.3745 16.8685 3.46436 13.9584 3.46436 10.3685C3.46436 6.77868 6.3745 3.86853 9.96436 3.86853C13.5542 3.86853 16.4644 6.77868 16.4644 10.3685C16.4644 11.8026 15.9999 13.1283 15.2133 14.2032L20.5354 19.5254L19.1212 20.9396L13.7991 15.6174ZM14.4644 10.3685C14.4644 12.8538 12.4496 14.8685 9.96436 14.8685C7.47907 14.8685 5.46436 12.8538 5.46436 10.3685C5.46436 7.88325 7.47907 5.86853 9.96436 5.86853C12.4496 5.86853 14.4644 7.88325 14.4644 10.3685Z" fill="#666666"/>
<path d="M6.95898 9.66355H12.959V11.0636H6.95898V9.66355Z" fill="#666666"/>
</svg>
