<svg width="24" height="25" viewBox="0 0 24 25" fill="none" xmlns="http://www.w3.org/2000/svg">
<path fill-rule="evenodd" clip-rule="evenodd" d="M14.7254 17.8468C10.6682 20.1865 5.48029 18.798 3.13788 14.7456C0.795457 10.6932 2.18555 5.51136 6.24274 3.1717C10.2999 0.832028 15.4878 2.22049 17.8303 6.27291C19.6182 9.36607 19.2315 13.1172 17.1441 15.7602L21.8534 20.464C22.0489 20.6592 22.0489 20.9758 21.8534 21.1711L21.1332 21.8904C20.9377 22.0857 20.6207 22.0857 20.4253 21.8904L15.7121 17.1828C15.4034 17.4235 15.0742 17.6456 14.7254 17.8468ZM11.3995 5.48861V8.00352H13.9176V9.83254H11.3995V12.3475H9.56832V9.83254H7.05067V8.00352H9.56832V5.48861H11.3995ZM13.9176 13.5263H7.05067V15.3553H13.9176V13.5263Z" fill="#666666"/>
</svg>
