<svg width="24" height="25" viewBox="0 0 24 25" fill="none" xmlns="http://www.w3.org/2000/svg">
<path fill-rule="evenodd" clip-rule="evenodd" d="M13.7991 15.6175C12.7241 16.4042 11.3985 16.8687 9.96436 16.8687C6.3745 16.8687 3.46436 13.9585 3.46436 10.3687C3.46436 6.7788 6.3745 3.86865 9.96436 3.86865C13.5542 3.86865 16.4644 6.7788 16.4644 10.3687C16.4644 11.8027 15.9999 13.1284 15.2133 14.2033L20.5354 19.5255L19.1212 20.9397L13.7991 15.6175ZM14.4644 10.3687C14.4644 12.8539 12.4496 14.8687 9.96436 14.8687C7.47907 14.8687 5.46436 12.8539 5.46436 10.3687C5.46436 7.88337 7.47907 5.86865 9.96436 5.86865C12.4496 5.86865 14.4644 7.88337 14.4644 10.3687Z" fill="#666666"/>
<path d="M6.99452 9.69919H12.9945V11.0992H6.99452V9.69919Z" fill="#666666"/>
<path d="M10.6945 7.3992V13.3992H9.29447L9.29447 7.3992H10.6945Z" fill="#666666"/>
</svg>
